<svg width="22" height="22" viewBox="0 0 22 22" fill="none" xmlns="http://www.w3.org/2000/svg">
<path d="M7.67018 3.01935C7.76756 3.08178 8.16333 4.9108 8.28193 5.24664C9.03726 7.38404 10.2008 8.25547 12.3283 8.90343C12.7253 9.02454 13.6054 9.14064 13.8988 9.29171C14.0474 9.36787 14.0611 9.52892 13.9463 9.64004C13.8314 9.75115 12.7265 9.96214 12.4581 10.0458C9.87125 10.8436 8.90742 11.6963 8.1009 14.3069C7.96107 14.7576 7.87742 15.438 7.72511 15.8238C7.62773 16.0697 7.41174 16.0635 7.30187 15.8238C7.15081 15.4917 7.10462 14.9448 6.991 14.5678C6.19947 11.9572 5.37547 10.9072 2.71496 10.0957C2.28174 9.96339 1.42903 9.84853 1.09818 9.68998C0.969588 9.62755 0.983322 9.44278 1.04824 9.3429C1.10318 9.258 2.70872 8.89719 2.98963 8.8048C3.76369 8.54887 4.6089 8.18556 5.2294 7.64996C6.52282 6.53382 6.93607 4.67234 7.31561 3.07678C7.37429 2.99938 7.60401 2.9794 7.66893 3.02185L7.67018 3.01935Z" fill="black"/>
<path d="M7.67018 3.01935C7.76756 3.08178 8.16333 4.9108 8.28193 5.24664C9.03726 7.38404 10.2008 8.25547 12.3283 8.90343C12.7253 9.02454 13.6054 9.14064 13.8988 9.29171C14.0474 9.36787 14.0611 9.52892 13.9463 9.64004C13.8314 9.75115 12.7265 9.96214 12.4581 10.0458C9.87125 10.8436 8.90742 11.6963 8.1009 14.3069C7.96107 14.7576 7.87742 15.438 7.72511 15.8238C7.62773 16.0697 7.41174 16.0635 7.30187 15.8238C7.15081 15.4917 7.10462 14.9448 6.991 14.5678C6.19947 11.9572 5.37547 10.9072 2.71496 10.0957C2.28174 9.96339 1.42903 9.84853 1.09818 9.68998C0.969588 9.62755 0.983322 9.44278 1.04824 9.3429C1.10318 9.258 2.70872 8.89719 2.98963 8.8048C3.76369 8.54887 4.6089 8.18556 5.2294 7.64996C6.52282 6.53382 6.93607 4.67234 7.31561 3.07678C7.37429 2.99938 7.60401 2.9794 7.66893 3.02185L7.67018 3.01935Z" fill="url(#paint0_linear_1546_6220)"/>
<path d="M17.4652 19.1297C17.4415 19.1484 17.2417 19.1484 17.218 19.1297C17.1793 19.0985 17.0382 18.3269 16.982 18.1584C16.6999 17.3007 16.3366 16.6052 15.4926 16.187C15.2092 16.0459 13.706 15.6714 13.6861 15.5777C13.6461 15.3967 14.4202 15.2906 14.585 15.2369C15.982 14.7825 16.4877 14.3992 16.9683 12.9847C17.0582 12.72 17.1231 12.1981 17.2118 12.0034C17.248 11.9235 17.3254 11.9534 17.3753 11.891C17.63 12.4553 17.6924 13.092 17.9634 13.6513C18.2155 14.172 18.675 14.6464 19.1919 14.9048C19.4828 15.0496 20.9772 15.4217 20.9984 15.5141C21.0409 15.7026 20.097 15.8562 19.9047 15.9198C18.8086 16.2856 18.2343 16.7114 17.8173 17.8138C17.7286 18.0472 17.5201 19.086 17.4677 19.1284L17.4652 19.1297Z" fill="black"/>
<path d="M17.4652 19.1297C17.4415 19.1484 17.2417 19.1484 17.218 19.1297C17.1793 19.0985 17.0382 18.3269 16.982 18.1584C16.6999 17.3007 16.3366 16.6052 15.4926 16.187C15.2092 16.0459 13.706 15.6714 13.6861 15.5777C13.6461 15.3967 14.4202 15.2906 14.585 15.2369C15.982 14.7825 16.4877 14.3992 16.9683 12.9847C17.0582 12.72 17.1231 12.1981 17.2118 12.0034C17.248 11.9235 17.3254 11.9534 17.3753 11.891C17.63 12.4553 17.6924 13.092 17.9634 13.6513C18.2155 14.172 18.675 14.6464 19.1919 14.9048C19.4828 15.0496 20.9772 15.4217 20.9984 15.5141C21.0409 15.7026 20.097 15.8562 19.9047 15.9198C18.8086 16.2856 18.2343 16.7114 17.8173 17.8138C17.7286 18.0472 17.5201 19.086 17.4677 19.1284L17.4652 19.1297Z" fill="url(#paint1_linear_1546_6220)"/>
<path d="M16.0981 3.66362C16.1281 3.69233 16.2554 4.32406 16.3091 4.46514C16.7323 5.56131 17.3391 5.64995 18.3828 5.9808C17.6113 6.35035 16.8996 6.31289 16.4552 7.18683C16.2866 7.51643 16.2517 7.9097 16.1143 8.21682C15.957 8.57014 15.8135 7.64627 15.7573 7.4977C15.5013 6.82227 15.168 6.52763 14.5013 6.27294C14.4289 6.24547 13.5837 6.07818 13.6823 5.94958C14.5263 5.75981 15.2941 5.56006 15.6724 4.70735C15.8085 4.40022 15.8384 4.01444 15.9508 3.74477C15.9808 3.67236 16.0157 3.58496 16.0969 3.66362H16.0981Z" fill="black"/>
<path d="M16.0981 3.66362C16.1281 3.69233 16.2554 4.32406 16.3091 4.46514C16.7323 5.56131 17.3391 5.64995 18.3828 5.9808C17.6113 6.35035 16.8996 6.31289 16.4552 7.18683C16.2866 7.51643 16.2517 7.9097 16.1143 8.21682C15.957 8.57014 15.8135 7.64627 15.7573 7.4977C15.5013 6.82227 15.168 6.52763 14.5013 6.27294C14.4289 6.24547 13.5837 6.07818 13.6823 5.94958C14.5263 5.75981 15.2941 5.56006 15.6724 4.70735C15.8085 4.40022 15.8384 4.01444 15.9508 3.74477C15.9808 3.67236 16.0157 3.58496 16.0969 3.66362H16.0981Z" fill="url(#paint2_linear_1546_6220)"/>
<defs>
<linearGradient id="paint0_linear_1546_6220" x1="18.0661" y1="3.49363" x2="10.7836" y2="18.8711" gradientUnits="userSpaceOnUse">
<stop stop-color="#CB68FF"/>
<stop offset="1" stop-color="#901CFF"/>
</linearGradient>
<linearGradient id="paint1_linear_1546_6220" x1="18.0661" y1="3.49363" x2="10.7836" y2="18.8711" gradientUnits="userSpaceOnUse">
<stop stop-color="#CB68FF"/>
<stop offset="1" stop-color="#901CFF"/>
</linearGradient>
<linearGradient id="paint2_linear_1546_6220" x1="18.0661" y1="3.49363" x2="10.7836" y2="18.8711" gradientUnits="userSpaceOnUse">
<stop stop-color="#CB68FF"/>
<stop offset="1" stop-color="#901CFF"/>
</linearGradient>
</defs>
</svg>
