<svg width="22" height="22" viewBox="0 0 22 22" fill="none" xmlns="http://www.w3.org/2000/svg">
<path d="M4.72491 13.3285V6.76405C4.70949 6.36714 4.80957 5.97429 5.01301 5.63313C5.18132 5.35286 5.41841 5.1202 5.70181 4.9572C5.98521 4.79421 6.30554 4.70628 6.63243 4.70174H19.935C20.2474 4.69453 20.5576 4.7556 20.844 4.88068C21.1103 4.99354 21.3469 5.16633 21.5354 5.38561C21.724 5.60489 21.8594 5.86473 21.9311 6.14491C21.9859 6.34707 22.0082 6.55666 21.9973 6.76584V19.9118C22.0014 20.2145 21.9486 20.5153 21.8416 20.7985C21.7276 21.0561 21.5598 21.2865 21.3495 21.474C21.1392 21.6614 20.8911 21.8018 20.6221 21.8855C20.4055 21.9465 20.1814 21.9766 19.9564 21.975H6.74338C6.37629 21.9873 6.01315 21.8961 5.69545 21.7117C5.37776 21.5274 5.11833 21.2574 4.9468 20.9327C4.78469 20.6177 4.70818 20.2656 4.72491 19.9118V13.3285ZM13.3517 6.27643H6.67628C6.60464 6.27803 6.53513 6.30109 6.47676 6.34264C6.4078 6.39372 6.35319 6.46174 6.31824 6.54011C6.28328 6.61849 6.26916 6.70456 6.27724 6.78999V19.893C6.27369 19.9603 6.28125 20.0277 6.2996 20.0925C6.31262 20.1642 6.34718 20.2301 6.39865 20.2816C6.45013 20.333 6.51608 20.3676 6.5877 20.3806C6.66774 20.3991 6.7499 20.4066 6.83196 20.403H19.8714C19.9461 20.4066 20.0209 20.399 20.0933 20.3806C20.1695 20.3643 20.2393 20.3263 20.2944 20.2712C20.3494 20.2161 20.3874 20.1463 20.4038 20.0702C20.4222 19.9977 20.4297 19.9229 20.4262 19.8483V6.78642C20.4314 6.72586 20.4238 6.66488 20.4038 6.60747C20.3939 6.52859 20.358 6.45525 20.3018 6.39904C20.2456 6.34282 20.1722 6.30692 20.0933 6.29701C20.0285 6.27865 19.9611 6.2711 19.8938 6.27464L13.3517 6.27643Z" fill="#BCBBBD"/>
<path d="M3.9243 15.7004V17.2527C3.88234 17.2709 3.83658 17.2786 3.79099 17.2751H2.01767C1.61437 17.2914 1.21692 17.1744 0.886759 16.9423C0.637212 16.7733 0.42955 16.5496 0.279611 16.2881C0.129671 16.0267 0.0414161 15.7345 0.0215758 15.4338C-0.000791937 14.9014 0.0215758 14.3914 0.0215758 13.8591C-0.000791937 9.93043 -0.000791937 6.00892 -0.000791937 2.08383C-0.0189631 1.77057 0.042603 1.45781 0.17815 1.17481C0.292296 0.919842 0.460336 0.692639 0.670703 0.508838C0.88107 0.325038 1.12877 0.189005 1.39674 0.110104C1.60079 0.0286915 1.81961 -0.00910045 2.03914 -0.000840135H15.2567C15.5133 -0.00904865 15.7689 0.0337824 16.0088 0.125168C16.2487 0.216553 16.4681 0.354672 16.6542 0.531512C16.8387 0.693359 16.9888 0.890671 17.0954 1.1117C17.2021 1.33273 17.2632 1.57297 17.2751 1.8181C17.2975 2.52761 17.2751 3.21564 17.2975 3.92514C17.1866 3.94751 15.9223 3.94751 15.7452 3.92514C15.7228 3.88041 15.7452 3.8142 15.7452 3.7462V2.06146C15.7548 1.97958 15.7412 1.89663 15.706 1.82211C15.6707 1.74758 15.6151 1.6845 15.5457 1.64006C15.4828 1.60814 15.4156 1.58582 15.3462 1.57385H2.12862C2.04656 1.57025 1.9644 1.57777 1.88436 1.59622C1.80987 1.60803 1.74059 1.64174 1.6853 1.69304C1.63002 1.74434 1.59124 1.81092 1.5739 1.88431V15.1681C1.56531 15.2736 1.5806 15.3797 1.61863 15.4785C1.65656 15.5566 1.71694 15.6215 1.79202 15.665C1.8671 15.7085 1.95346 15.7287 2.04004 15.7228H3.72478C3.78935 15.7031 3.85698 15.6956 3.9243 15.7004V15.7004Z" fill="#BCBBBD"/>
</svg>
