<svg width="20" height="20" viewBox="0 0 20 20" fill="none" xmlns="http://www.w3.org/2000/svg">
<path d="M11.6162 5H3.86C2.837 5 2 5.837 2 6.86V13.1282C2 14.1512 2.837 14.9882 3.86 14.9882H11.6162C12.6392 14.9882 13.4762 14.1512 13.4762 13.1282V6.86C13.4762 5.8184 12.6392 5 11.6162 5Z" fill="#484848"/>
<path d="M17.6231 6.02019C17.5115 6.03879 17.3999 6.09459 17.3069 6.15039L14.4053 7.82439V12.1396L17.3255 13.8136C17.8649 14.1298 18.5345 13.9438 18.8507 13.4044C18.9437 13.237 18.9995 13.051 18.9995 12.8464V7.09899C18.9995 6.41079 18.3485 5.85279 17.6231 6.02019Z" fill="#484848"/>
</svg>
