<svg width="20" height="20" viewBox="0 0 20 20" fill="none" xmlns="http://www.w3.org/2000/svg">
<path d="M10.5235 7.94951V8.955C10.5235 9.27435 10.5964 9.54228 10.7404 9.751C10.9389 10.0391 11.2649 10.2042 11.6349 10.2042C11.9975 10.2042 12.3578 10.0498 12.7057 9.74551L16.5033 6.42448C17.3372 5.69531 17.3372 4.50886 16.5033 3.77968L12.7057 0.458652C12.3578 0.154257 11.9975 0 11.6349 0C11.0817 0 10.5235 0.386329 10.5235 1.24916V2.16235C5.13184 2.4408 0.668382 6.05921 0.00502221 10.7966C-0.0321413 11.0612 0.139893 11.3145 0.423417 11.4126C0.503676 11.4404 0.58725 11.4538 0.669778 11.4538C0.878801 11.4538 1.08154 11.3682 1.21066 11.2139C2.98997 9.0879 5.84685 7.81859 8.85273 7.81859C9.40966 7.81859 9.96973 7.86254 10.5235 7.94951V7.94951Z" fill="#09CEA7"/>
<path d="M19.5765 8.58742C19.293 8.48916 18.9695 8.57094 18.7892 8.78623C17.0101 10.9121 14.1532 12.1814 11.1473 12.1814C10.5904 12.1814 10.0303 12.1375 9.47656 12.0505V11.045C9.47656 10.1822 8.91824 9.79585 8.36515 9.79585C8.00258 9.79585 7.64229 9.95026 7.29421 10.2547L3.49655 13.5755C2.6629 14.3047 2.6629 15.4912 3.49673 16.2205L7.29421 19.5414C7.64229 19.8458 8.00258 20 8.36515 20C8.91824 20 9.47656 19.6137 9.47656 18.7508V17.8377C14.8684 17.5592 19.3317 13.9408 19.9951 9.20354C20.0322 8.93881 19.8602 8.68553 19.5765 8.58742V8.58742Z" fill="#09CEA7"/>
</svg>
