<svg width="11" height="15" viewBox="0 0 11 15" fill="none" xmlns="http://www.w3.org/2000/svg">
<path d="M10.4531 13.6955C10.5981 13.6955 10.7373 13.7531 10.8398 13.8557C10.9424 13.9583 11.0001 14.0974 11.0001 14.2425C11.0001 14.3875 10.9424 14.5267 10.8398 14.6292C10.7373 14.7318 10.5981 14.7895 10.4531 14.7895L0.971801 14.7924C0.826728 14.7924 0.687598 14.7347 0.585016 14.6322C0.482434 14.5296 0.424805 14.3904 0.424805 14.2454C0.424805 14.1003 0.482434 13.9612 0.585016 13.8586C0.687598 13.756 0.826728 13.6984 0.971801 13.6984L10.4531 13.6955ZM5.63804 0.211648L5.71243 0.206543C5.84461 0.206549 5.97232 0.254418 6.07194 0.341299C6.17156 0.428179 6.23635 0.548194 6.25432 0.679147L6.25943 0.753539L6.2587 10.7344L8.97326 8.02129C9.06587 7.92865 9.18866 7.87233 9.31929 7.86256C9.44992 7.85279 9.57971 7.89022 9.68508 7.96805L9.74707 8.02129C9.8396 8.114 9.89579 8.23683 9.90543 8.36746C9.91506 8.49808 9.87751 8.62783 9.79958 8.73311L9.74634 8.79438L6.10189 12.4388C6.00928 12.5315 5.88649 12.5878 5.75586 12.5976C5.62523 12.6073 5.49543 12.5699 5.39007 12.4921L5.32808 12.4388L1.67925 8.79511C1.58113 8.69763 1.52357 8.5666 1.51818 8.42839C1.51278 8.29018 1.55995 8.15506 1.65017 8.05023C1.7404 7.9454 1.86699 7.87864 2.00446 7.86339C2.14193 7.84814 2.28007 7.88554 2.39107 7.96805L2.45234 8.02056L5.16471 10.7293L5.16544 0.753539C5.16544 0.621357 5.21331 0.493649 5.30019 0.394031C5.38707 0.294413 5.50709 0.229625 5.63804 0.211648L5.71243 0.206543L5.63804 0.211648Z" fill="#09CEA7"/>
</svg>
