<svg width="30" height="30" viewBox="0 0 30 30" fill="none" xmlns="http://www.w3.org/2000/svg">
<path fill-rule="evenodd" clip-rule="evenodd" d="M12.85 18.3351L13.8469 21.1834C14.0699 21.8204 14.7672 22.1562 15.4042 21.9333C16.0414 21.7102 16.3771 21.0129 16.1542 20.3757L12.0782 8.73019C11.7857 7.89448 10.997 7.3349 10.1116 7.3349C9.22614 7.3349 8.43742 7.89448 8.14491 8.73019L4.06895 20.3757C3.84596 21.0129 4.18168 21.7102 4.81881 21.9333C5.45594 22.1562 6.15321 21.8204 6.37621 21.1834L7.37309 18.3351H12.85ZM11.9944 15.8906L10.1116 10.5109L8.22866 15.8906H11.9944Z" fill="#BCBBBD"/>
<path fill-rule="evenodd" clip-rule="evenodd" d="M21.7232 13.4461C22.4669 13.4461 23.1664 13.6359 23.7757 13.9698C23.9965 13.6532 24.3635 13.4461 24.7788 13.4461C25.4538 13.4461 26.001 13.9933 26.001 14.6683V20.7796C26.001 21.4546 25.4538 22.0018 24.7788 22.0018C24.3635 22.0018 23.9965 21.7948 23.7757 21.4782C23.1664 21.812 22.4669 22.0018 21.7232 22.0018C19.3606 22.0018 17.4453 20.0866 17.4453 17.724C17.4453 15.3614 19.3606 13.4461 21.7232 13.4461ZM21.7232 19.5573C22.7357 19.5573 23.5565 18.7365 23.5565 17.724C23.5565 16.7114 22.7357 15.8906 21.7232 15.8906C20.7107 15.8906 19.8898 16.7114 19.8898 17.724C19.8898 18.7365 20.7107 19.5573 21.7232 19.5573Z" fill="#BCBBBD"/>
</svg>
