<svg width="30" height="30" viewBox="0 0 30 30" fill="none" xmlns="http://www.w3.org/2000/svg">
<path d="M25 26.0526C25 26.2526 24.919 26.4444 24.7747 26.5858C24.6304 26.7272 24.4348 26.8066 24.2308 26.8066H5.76923C5.56522 26.8066 5.36956 26.7272 5.2253 26.5858C5.08104 26.4444 5 26.2526 5 26.0526C5 25.8526 5.08104 25.6608 5.2253 25.5194C5.36956 25.378 5.56522 25.2986 5.76923 25.2986H24.2308C24.4348 25.2986 24.6304 25.378 24.7747 25.5194C24.919 25.6608 25 25.8526 25 26.0526ZM5.76923 6.69944H24.2308C24.4348 6.69944 24.6304 6.62 24.7747 6.4786C24.919 6.33719 25 6.1454 25 5.94543C25 5.74545 24.919 5.55366 24.7747 5.41225C24.6304 5.27085 24.4348 5.19141 24.2308 5.19141H5.76923C5.56522 5.19141 5.36956 5.27085 5.2253 5.41225C5.08104 5.55366 5 5.74545 5 5.94543C5 6.1454 5.08104 6.33719 5.2253 6.4786C5.36956 6.62 5.56522 6.69944 5.76923 6.69944ZM17.359 12.2289C17.5041 12.3662 17.6985 12.4421 17.9002 12.4403C18.1018 12.4385 18.2947 12.3591 18.4373 12.2192C18.5799 12.0794 18.6607 11.8902 18.6623 11.6925C18.664 11.4948 18.5863 11.3044 18.4462 11.1622L15.5436 8.31807C15.3966 8.18204 15.2021 8.10627 15 8.10627C14.7979 8.10627 14.6034 8.18204 14.4564 8.31807L11.5559 11.1622C11.4225 11.3054 11.3505 11.4934 11.3549 11.6872C11.3592 11.8811 11.4396 12.0658 11.5792 12.2031C11.7189 12.3404 11.9071 12.4197 12.1049 12.4245C12.3026 12.4293 12.4946 12.3592 12.641 12.2289L14.2308 10.6706V20.9343L12.641 19.377C12.4959 19.2397 12.3015 19.1638 12.0998 19.1656C11.8982 19.1674 11.7053 19.2468 11.5627 19.3867C11.4201 19.5266 11.3393 19.7157 11.3377 19.9134C11.336 20.1111 11.4137 20.3016 11.5538 20.4437L14.4564 23.2879C14.5277 23.358 14.6124 23.4137 14.7057 23.4517C14.799 23.4897 14.899 23.5092 15 23.5092C15.101 23.5092 15.201 23.4897 15.2943 23.4517C15.3876 23.4137 15.4723 23.358 15.5436 23.2879L18.4441 20.4437C18.5775 20.3005 18.6495 20.1125 18.6451 19.9187C18.6408 19.7249 18.5604 19.5401 18.4208 19.4028C18.2811 19.2655 18.0929 19.1863 17.8952 19.1815C17.6974 19.1766 17.5054 19.2467 17.359 19.377L15.7692 20.9343V10.6706L17.359 12.2289Z" fill="#BCBBBD"/>
</svg>
