<svg width="30" height="30" viewBox="0 0 30 30" fill="none" xmlns="http://www.w3.org/2000/svg">
<path fill-rule="evenodd" clip-rule="evenodd" d="M5.625 8.85732H14.9388C14.8981 8.65927 14.8761 8.45447 14.8752 8.24482L14.8753 8.22728C14.8756 8.01505 14.8973 7.80775 14.9383 7.60736H5.625C5.27973 7.60736 5 7.88705 5 8.23236C5 8.57767 5.27969 8.8574 5.625 8.85732ZM13.9618 15.3297V15.3376C13.9586 16.4073 13.0857 17.2774 12.0164 17.2774C10.9481 17.2774 10.0751 16.4082 10.0705 15.3393L10.0706 15.3284C10.0719 14.2568 10.9444 13.3857 12.0164 13.3857C13.0875 13.3857 13.9595 14.2563 13.9618 15.327V15.3297ZM24.375 14.7066H15.0616C15.1025 14.9063 15.1243 15.1128 15.1248 15.3243V15.3286V15.3411C15.1241 15.5518 15.1023 15.7576 15.0614 15.9566L24.375 15.9566C24.7203 15.9566 25 15.6769 25 15.3316C25 14.9863 24.7203 14.7066 24.375 14.7066ZM8.9707 14.7066H5.625C5.27973 14.7066 5 14.9863 5 15.3316C5 15.6769 5.27969 15.9566 5.625 15.9566L8.97121 15.9566C8.93047 15.7585 8.90855 15.5537 8.90766 15.344L8.9077 15.3265C8.90797 15.1142 8.92969 14.907 8.9707 14.7066ZM17.9836 24.3766C16.9125 24.3766 16.0405 23.506 16.0382 22.4354V22.4326C16.0382 22.4299 16.0382 22.4276 16.0382 22.4249C16.0414 21.3551 16.9143 20.4849 17.9836 20.4849C19.052 20.4849 19.9248 21.3542 19.9294 22.423L19.9295 22.434C19.9281 23.5055 19.0556 24.3767 17.9836 24.3766ZM24.375 21.8058H21.0292C21.0701 22.0055 21.0919 22.212 21.0923 22.4235V22.4278V22.4403C21.0917 22.651 21.0698 22.8568 21.029 23.0558H24.375C24.7203 23.0558 25 22.7761 25 22.4308C25 22.0855 24.7203 21.8058 24.375 21.8058ZM14.9383 21.8058H5.625C5.27973 21.8058 5 22.0855 5 22.4308C5 22.7761 5.27969 23.0558 5.625 23.0558H14.9388C14.8981 22.8577 14.8761 22.6529 14.8752 22.4433L14.8753 22.4257C14.8756 22.2135 14.8973 22.0062 14.9383 21.8058ZM16.0382 8.23419C16.0382 8.23138 16.0382 8.22916 16.0382 8.22638C16.0414 7.15662 16.9143 6.2865 17.9836 6.2865C19.052 6.28646 19.9248 7.15576 19.9294 8.22458L19.9295 8.23552C19.9276 9.30665 19.0556 10.1782 17.9836 10.1782C16.9125 10.1782 16.0404 9.30755 16.0382 8.23693V8.23419ZM21.029 8.8574L24.375 8.85732C24.7203 8.85732 25 8.57767 25 8.23236C25 7.88701 24.7203 7.60736 24.375 7.60736H21.0292C21.0701 7.80705 21.0919 8.01361 21.0923 8.22505V8.22939V8.24185C21.0917 8.45259 21.0699 8.65837 21.029 8.8574Z" fill="#BCBBBD"/>
</svg>
