<svg width="30" height="30" viewBox="0 0 30 30" fill="none" xmlns="http://www.w3.org/2000/svg">
<path d="M15.0126 25.984C13.3312 25.984 11.7509 25.6389 10.3156 24.9582C9.88781 24.7553 9.70545 24.244 9.90834 23.8162C10.1112 23.3883 10.6226 23.206 11.0504 23.4089C18.8781 27.0204 27.0811 18.9111 23.3686 11.0477C22.9187 10.0094 24.3914 9.30133 24.918 10.313C28.4144 17.5015 22.9864 26.0502 15.0126 25.984ZM6.25198 20.1558C6.67911 19.9514 6.85962 19.4395 6.65523 19.0123C2.93337 11.2039 11.137 2.91929 18.9749 6.65398C19.4028 6.85682 19.914 6.67442 20.1168 6.24661C20.3197 5.81879 20.1374 5.30747 19.7096 5.10458C10.3536 0.711759 0.724975 10.4353 5.10862 19.7526C5.31362 20.1839 5.83437 20.3584 6.25198 20.1558ZM5.50215 25.7329L25.7355 5.49952C26.0703 5.16468 26.0703 4.62185 25.7355 4.28706C25.4007 3.95227 24.8578 3.95222 24.523 4.28706L4.28969 24.5204C3.95485 24.8552 3.95485 25.3981 4.28969 25.7329C4.62452 26.0677 5.16735 26.0677 5.50215 25.7329Z" fill="#BCBBBD"/>
</svg>
