<svg width="30" height="30" viewBox="0 0 30 30" fill="none" xmlns="http://www.w3.org/2000/svg">
<path d="M23.6429 21.2857C22.6199 21.2857 21.7559 21.9445 21.4305 22.8571H9.10714C7.15744 22.8571 5.57143 21.2711 5.57143 19.3214C5.57143 17.3717 7.15744 15.7857 9.10714 15.7857H12.7877C13.1131 16.6983 13.977 17.3571 15 17.3571C16.023 17.3571 16.887 16.6983 17.2124 15.7857H20.8929C23.7088 15.7857 26 13.4946 26 10.6786C26 7.86258 23.7088 5.57143 20.8929 5.57143H8.56951C8.24412 4.65882 7.3801 4 6.35714 4C5.05734 4 4 5.05734 4 6.35714C4 7.65695 5.05734 8.71429 6.35714 8.71429C7.3801 8.71429 8.24412 8.05546 8.56951 7.14286H20.8929C22.8426 7.14286 24.4286 8.72886 24.4286 10.6786C24.4286 12.6283 22.8426 14.2143 20.8929 14.2143H17.2124C16.887 13.3017 16.023 12.6429 15 12.6429C13.977 12.6429 13.113 13.3017 12.7876 14.2143H9.10714C6.29116 14.2143 4 16.5054 4 19.3214C4 22.1374 6.29116 24.4286 9.10714 24.4286H21.4305C21.7559 25.3412 22.6199 26 23.6429 26C24.9427 26 26 24.9427 26 23.6429C26 22.3431 24.9427 21.2857 23.6429 21.2857Z" fill="#BCBBBD"/>
</svg>
