<svg width="30" height="30" viewBox="0 0 30 30" fill="none" xmlns="http://www.w3.org/2000/svg">
<path fill-rule="evenodd" clip-rule="evenodd" d="M6.34478 18.865C6.80319 18.4066 7.5464 18.4066 8.0048 18.865L10.305 21.1652L12.6051 18.865C13.0635 18.4066 13.8068 18.4066 14.2652 18.865C14.7235 19.3234 14.7235 20.0666 14.2652 20.525L11.135 23.6552C10.6766 24.1136 9.93336 24.1136 9.47495 23.6552L6.34478 20.525C5.88638 20.0666 5.88638 19.3234 6.34478 18.865Z" fill="#BCBBBD"/>
<path fill-rule="evenodd" clip-rule="evenodd" d="M10.3056 6.00113C10.9539 6.00113 11.4795 6.52666 11.4795 7.17494V22.8258C11.4795 23.4741 10.9539 23.9996 10.3056 23.9996C9.65737 23.9996 9.13184 23.4741 9.13184 22.8258V7.17494C9.13184 6.52666 9.65737 6.00113 10.3056 6.00113Z" fill="#BCBBBD"/>
<path fill-rule="evenodd" clip-rule="evenodd" d="M18.8655 6.34493C19.3239 5.88653 20.0672 5.88653 20.5256 6.34493L23.6558 9.4751C24.1141 9.93351 24.1141 10.6767 23.6558 11.1352C23.1974 11.5935 22.4541 11.5935 21.9957 11.1352L19.6956 8.83497L17.3954 11.1352C16.937 11.5935 16.1938 11.5935 15.7354 11.1352C15.277 10.6767 15.277 9.93351 15.7354 9.4751L18.8655 6.34493Z" fill="#BCBBBD"/>
<path fill-rule="evenodd" clip-rule="evenodd" d="M19.7734 6.00113C20.4217 6.00113 20.9472 6.52666 20.9472 7.17494V22.8258C20.9472 23.4741 20.4217 23.9996 19.7734 23.9996C19.1252 23.9996 18.5996 23.4741 18.5996 22.8258V7.17494C18.5996 6.52666 19.1252 6.00113 19.7734 6.00113Z" fill="#BCBBBD"/>
</svg>
