<svg width="30" height="30" viewBox="0 0 30 30" fill="none" xmlns="http://www.w3.org/2000/svg">
<path fill-rule="evenodd" clip-rule="evenodd" d="M16.2446 6.26836L11.4443 23.0691C11.2631 23.7064 11.6328 24.3712 12.2688 24.5536C12.906 24.7348 13.5708 24.3652 13.7533 23.7292L18.5535 6.92839C18.7347 6.29116 18.3651 5.62633 17.729 5.44392C17.0918 5.26271 16.427 5.63233 16.2446 6.26836ZM5.89528 14.9988L9.84707 18.9506C10.3151 19.4186 10.3151 20.1794 9.84707 20.6474C9.37905 21.1155 8.61821 21.1155 8.15019 20.6474L3.34996 15.8472C2.88074 15.3792 2.88074 14.6184 3.34996 14.1503L8.15019 9.35011C8.61821 8.88208 9.37905 8.88208 9.84707 9.35011C10.3151 9.81813 10.3151 10.579 9.84707 11.047L5.89528 14.9988ZM24.1025 14.9988L20.1508 11.047C19.6827 10.579 19.6827 9.81813 20.1508 9.35011C20.6188 8.88208 21.3796 8.88208 21.8476 9.35011L26.6479 14.1503C27.1171 14.6184 27.1171 15.3792 26.6479 15.8472L21.8476 20.6474C21.3796 21.1155 20.6188 21.1155 20.1508 20.6474C19.6827 20.1794 19.6827 19.4186 20.1508 18.9506L24.1025 14.9988Z" fill="#BCBBBD"/>
</svg>
