<svg width="22" height="22" viewBox="0 0 22 22" fill="none" xmlns="http://www.w3.org/2000/svg">
<path d="M11 21C8.32891 21 5.81766 19.9598 3.92891 18.0711C2.04016 16.1823 1 13.6711 1 11C1 8.32891 2.0402 5.8177 3.92891 3.92891C5.81762 2.04012 8.32891 1 11 1C13.6711 1 16.1823 2.04016 18.0711 3.92891C19.9598 5.81766 21 8.32891 21 11C21 13.6711 19.9598 16.1823 18.0711 18.0711C16.1824 19.9599 13.6711 21 11 21ZM11 2.25C6.17523 2.25 2.25 6.17523 2.25 11C2.25 15.8248 6.17523 19.75 11 19.75C15.8248 19.75 19.75 15.8248 19.75 11C19.75 6.17523 15.8248 2.25 11 2.25Z" fill="#BCBBBD"/>
<path d="M11 10.375C10.1384 10.375 9.4375 9.67406 9.4375 8.8125C9.4375 7.95094 10.1384 7.25 11 7.25C11.8616 7.25 12.5625 7.95094 12.5625 8.8125C12.5625 9.15766 12.8423 9.4375 13.1875 9.4375C13.5327 9.4375 13.8125 9.15766 13.8125 8.8125C13.8125 7.47652 12.8759 6.35594 11.625 6.07086V5.375C11.625 5.02984 11.3452 4.75 11 4.75C10.6548 4.75 10.375 5.02984 10.375 5.375V6.07086C9.12414 6.35594 8.1875 7.47652 8.1875 8.8125C8.1875 10.3633 9.44918 11.625 11 11.625C11.8616 11.625 12.5625 12.3259 12.5625 13.1875C12.5625 14.0491 11.8616 14.75 11 14.75C10.1384 14.75 9.4375 14.0491 9.4375 13.1875C9.4375 12.8423 9.1577 12.5625 8.8125 12.5625C8.4673 12.5625 8.1875 12.8423 8.1875 13.1875C8.1875 14.5235 9.12414 15.6441 10.375 15.9291V16.625C10.375 16.9702 10.6548 17.25 11 17.25C11.3452 17.25 11.625 16.9702 11.625 16.625V15.9291C12.8759 15.6441 13.8125 14.5235 13.8125 13.1875C13.8125 11.6367 12.5508 10.375 11 10.375Z" fill="#BCBBBD"/>
</svg>
