<svg width="22" height="22" viewBox="0 0 22 22" fill="none" xmlns="http://www.w3.org/2000/svg">
<path d="M18.7547 10.5507L18.3653 10.3L11.864 14.476C11.6027 14.6414 11.304 14.732 11 14.732C10.696 14.732 10.3973 14.6467 10.136 14.4814L3.63467 10.3L3.24533 10.5507C3.09067 10.6467 3 10.8174 3 10.9987C3 11.18 3.09067 11.3507 3.24533 11.4467L10.712 16.2467C10.8027 16.3054 10.8987 16.332 11 16.332C11.1013 16.332 11.2027 16.3054 11.288 16.2467L18.7547 11.4467C18.9093 11.3507 19 11.18 19 10.9987C19 10.8174 18.9093 10.6467 18.7547 10.5507Z" fill="#BCBBBD"/>
<path d="M18.7547 13.2175L18.3653 12.9668L11.864 17.1428C11.6027 17.3081 11.304 17.3988 11 17.3988C10.696 17.3988 10.3973 17.3135 10.136 17.1481L3.63467 12.9668L3.24533 13.2175C3.09067 13.3135 3 13.4841 3 13.6655C3 13.8468 3.09067 14.0175 3.24533 14.1135L10.712 18.9135C10.8027 18.9721 10.8987 18.9988 11 18.9988C11.1013 18.9988 11.2027 18.9721 11.288 18.9135L18.7547 14.1135C18.9093 14.0175 19 13.8468 19 13.6655C19 13.4841 18.9093 13.3135 18.7547 13.2175Z" fill="#BCBBBD"/>
<path d="M3.24533 8.78L10.712 13.58C10.8027 13.6387 10.8987 13.6653 11 13.6653C11.1013 13.6653 11.2027 13.6387 11.288 13.58L18.7547 8.78C18.9093 8.684 19 8.51333 19 8.332C19 8.15067 18.9093 7.98 18.7547 7.884L11.288 3.084C11.112 2.972 10.888 2.972 10.712 3.084L3.24533 7.884C3.09067 7.98 3 8.15067 3 8.332C3 8.51333 3.09067 8.684 3.24533 8.78ZM12.7707 7.61733C12.568 7.404 12.5733 7.068 12.7813 6.86533C12.9947 6.66267 13.3307 6.668 13.5333 6.876L14.5787 7.95867C14.7813 8.16667 14.7813 8.492 14.5787 8.7L13.5333 9.78267C13.4267 9.88933 13.288 9.94267 13.1493 9.94267C13.0107 9.94267 12.8827 9.89467 12.776 9.79333C12.5627 9.59067 12.5573 9.24933 12.7653 9.04133L13.4533 8.32667L12.7653 7.612L12.7707 7.61733ZM10.0613 9.93733L10.8987 6.47067C10.968 6.18267 11.256 6.00667 11.544 6.076C11.832 6.14533 12.008 6.43333 11.9387 6.72133L11.1013 10.188C11.0427 10.4333 10.824 10.5933 10.584 10.5933C10.5413 10.5933 10.4987 10.5933 10.456 10.5773C10.168 10.508 9.992 10.22 10.0613 9.932V9.93733ZM7.416 7.95867L8.46133 6.876C8.664 6.66267 9.00533 6.65733 9.21333 6.86533C9.42667 7.068 9.432 7.40933 9.224 7.61733L8.536 8.332L9.224 9.04667C9.42667 9.26 9.42133 9.596 9.21333 9.79867C9.112 9.9 8.97333 9.948 8.84 9.948C8.70667 9.948 8.56267 9.89467 8.456 9.788L7.41067 8.70533C7.208 8.49733 7.208 8.172 7.41067 7.964L7.416 7.95867Z" fill="#BCBBBD"/>
</svg>
