<svg width="22" height="22" viewBox="0 0 22 22" fill="none" xmlns="http://www.w3.org/2000/svg">
<path d="M10.3315 17.9017C10.3315 18.0024 10.3513 18.1022 10.3898 18.1952C10.4283 18.2883 10.4848 18.3728 10.556 18.444C10.6272 18.5152 10.7118 18.5717 10.8048 18.6102C10.8979 18.6488 10.9976 18.6686 11.0983 18.6686H14.1657C15.1823 18.6674 16.1568 18.263 16.8756 17.5442C17.5944 16.8254 17.9988 15.8509 18 14.8343V7.16578C17.9988 6.14924 17.5944 5.17468 16.8756 4.45588C16.1568 3.73708 15.1823 3.33273 14.1657 3.33154H11.0983C10.895 3.33154 10.6999 3.41233 10.5561 3.55615C10.4123 3.69996 10.3315 3.895 10.3315 4.09838C10.3315 4.30176 10.4123 4.49681 10.5561 4.64062C10.6999 4.78443 10.895 4.86522 11.0983 4.86522H14.1657C14.7757 4.86589 15.3604 5.10848 15.7917 5.53978C16.223 5.97107 16.4656 6.55584 16.4663 7.16578V14.8343C16.4656 15.4443 16.223 16.029 15.7917 16.4603C15.3604 16.8916 14.7757 17.1342 14.1657 17.1349H11.0983C10.9976 17.1349 10.8979 17.1547 10.8048 17.1932C10.7118 17.2317 10.6272 17.2882 10.556 17.3594C10.4848 17.4306 10.4283 17.5152 10.3898 17.6082C10.3513 17.7013 10.3315 17.801 10.3315 17.9017ZM4.25583 11.2931C4.19806 11.1529 4.18301 10.9987 4.21257 10.85C4.24213 10.7013 4.31498 10.5646 4.42197 10.4572L7.48872 7.39044C7.55992 7.31924 7.64445 7.26276 7.73748 7.22423C7.83051 7.18569 7.93022 7.16586 8.03092 7.16586C8.13161 7.16586 8.23132 7.18569 8.32435 7.22423C8.41738 7.26276 8.50191 7.31924 8.57311 7.39044C8.64431 7.46165 8.70079 7.54618 8.73933 7.6392C8.77786 7.73223 8.79769 7.83194 8.79769 7.93264C8.79769 8.03333 8.77786 8.13304 8.73933 8.22607C8.70079 8.3191 8.64431 8.40363 8.57311 8.47483L6.81473 10.2332H12.632C12.8354 10.2332 13.0305 10.314 13.1743 10.4578C13.3181 10.6016 13.3989 10.7967 13.3989 11.0001C13.3989 11.2034 13.3181 11.3985 13.1743 11.5423C13.0305 11.6861 12.8354 11.7669 12.632 11.7669H6.81473L8.57311 13.5253C8.64431 13.5965 8.70079 13.681 8.73933 13.774C8.77786 13.8671 8.79769 13.9668 8.79769 14.0675C8.79769 14.1682 8.77786 14.2679 8.73933 14.3609C8.70079 14.4539 8.64431 14.5385 8.57311 14.6097C8.50191 14.6809 8.41738 14.7373 8.32435 14.7759C8.23132 14.8144 8.13161 14.8342 8.03092 14.8342C7.93022 14.8342 7.83051 14.8144 7.73748 14.7759C7.64445 14.7373 7.55992 14.6809 7.48872 14.6097L4.42197 11.5428C4.35065 11.4714 4.29419 11.3865 4.25583 11.2931Z" fill="#BCBBBD"/>
</svg>
