<svg width="22" height="22" viewBox="0 0 22 22" fill="none" xmlns="http://www.w3.org/2000/svg">
<path d="M9.50007 20.0005C7.94986 20.0005 6.6875 18.7389 6.6875 17.1879C6.6875 16.8774 6.93951 16.6254 7.25001 16.6254C7.56052 16.6254 7.81253 16.8774 7.81253 17.1879C7.81253 18.1187 8.57006 18.8754 9.50007 18.8754C10.4301 18.8754 11.1876 18.1187 11.1876 17.1879C11.1876 16.8774 11.4396 16.6254 11.7501 16.6254C12.0606 16.6254 12.3126 16.8774 12.3126 17.1879C12.3126 18.7389 11.0504 20.0005 9.50007 20.0005Z" fill="#BCBBBD"/>
<path d="M15.6878 17.7504H3.31249C2.58875 17.7504 2 17.1616 2 16.4379C2 16.0538 2.16727 15.6901 2.45897 15.4403C2.47778 15.4238 2.49797 15.4089 2.51898 15.3953C3.61998 14.4345 4.25006 13.0522 4.25006 11.5927V9.50012C4.25006 7.05739 5.90533 4.96032 8.27542 4.4C8.57837 4.33024 8.88147 4.5155 8.95274 4.81859C9.02388 5.12086 8.83642 5.42382 8.53498 5.49509C6.67412 5.93456 5.37509 7.58159 5.37509 9.50012V11.5927C5.37509 13.4048 4.58076 15.1194 3.19782 16.296C3.18655 16.3051 3.1768 16.3133 3.16472 16.3216C3.14453 16.3471 3.12503 16.3861 3.12503 16.4379C3.12503 16.5398 3.21059 16.6254 3.31249 16.6254H15.6878C15.7899 16.6254 15.8754 16.5398 15.8754 16.4379C15.8754 16.3853 15.8559 16.3471 15.8349 16.3216C15.8236 16.3133 15.8131 16.3051 15.8026 16.296C15.1307 15.7231 14.6003 15.0316 14.2269 14.2403C14.0934 13.9597 14.2133 13.6245 14.4945 13.491C14.7781 13.3575 15.1103 13.4791 15.2431 13.7595C15.54 14.3866 15.9563 14.9371 16.4828 15.3976C16.5023 15.4111 16.5227 15.4253 16.5398 15.4403C16.8332 15.6901 17.0004 16.0538 17.0004 16.4379C17.0004 17.1616 16.4117 17.7504 15.6878 17.7504Z" fill="#BCBBBD"/>
<path d="M15.125 11.7502C12.437 11.7502 10.25 9.56319 10.25 6.87517C10.25 4.18702 12.437 2 15.125 2C17.8132 2 20.0002 4.18702 20.0002 6.87517C20.0002 9.56319 17.8132 11.7502 15.125 11.7502ZM15.125 3.12503C13.0572 3.12503 11.375 4.80735 11.375 6.87517C11.375 8.94299 13.0572 10.6252 15.125 10.6252C17.1929 10.6252 18.8752 8.94299 18.8752 6.87517C18.8752 4.80735 17.1929 3.12503 15.125 3.12503Z" fill="#BCBBBD"/>
<path d="M15.3136 9.12526C15.0031 9.12526 14.751 8.87326 14.751 8.56275V6.12509H14.376C14.0655 6.12509 13.8135 5.87308 13.8135 5.56258C13.8135 5.25207 14.0655 5.00006 14.376 5.00006H15.3136C15.6241 5.00006 15.8761 5.25207 15.8761 5.56258V8.56275C15.8761 8.87326 15.6241 9.12526 15.3136 9.12526Z" fill="#BCBBBD"/>
</svg>
