<svg width="22" height="22" viewBox="0 0 22 22" fill="none" xmlns="http://www.w3.org/2000/svg">
<path d="M17.5407 4.45926C15.7937 2.71218 13.4707 1.75 11 1.75C8.52928 1.75 6.20633 2.71218 4.45926 4.45926C2.71218 6.20633 1.75 8.52928 1.75 11C1.75 13.4707 2.71218 15.7937 4.45926 17.5407C6.20633 19.2878 8.52928 20.25 11 20.25C13.4707 20.25 15.7937 19.2878 17.5407 17.5407C19.2878 15.7937 20.25 13.4707 20.25 11C20.25 8.52928 19.2878 6.20633 17.5407 4.45926ZM5.76455 17.2617C6.06999 14.6336 8.32956 12.6045 11 12.6045C12.4078 12.6045 13.7316 13.153 14.7273 14.1486C15.5685 14.99 16.0991 16.0885 16.2356 17.2616C14.8171 18.4496 12.9907 19.166 11 19.166C9.00931 19.166 7.18305 18.4497 5.76455 17.2617ZM11 11.4881C9.45095 11.4881 8.19053 10.2277 8.19053 8.67861C8.19053 7.12941 9.45095 5.86914 11 5.86914C12.5491 5.86914 13.8095 7.12941 13.8095 8.67861C13.8095 10.2277 12.5491 11.4881 11 11.4881ZM17.1685 16.3453C16.8923 15.2316 16.3163 14.2048 15.4937 13.3822C14.8275 12.716 14.0394 12.2162 13.1798 11.903C14.2131 11.2023 14.8935 10.0183 14.8935 8.67861C14.8935 6.53181 13.1468 4.78516 11 4.78516C8.8532 4.78516 7.10655 6.53181 7.10655 8.67861C7.10655 10.0191 7.78743 11.2034 8.82159 11.904C8.03076 12.1922 7.29893 12.6378 6.66928 13.2244C5.7575 14.0735 5.12432 15.1563 4.83075 16.3444C3.58741 14.9111 2.83398 13.0419 2.83398 11C2.83398 6.49723 6.49723 2.83398 11 2.83398C15.5028 2.83398 19.166 6.49723 19.166 11C19.166 13.0424 18.4123 14.9119 17.1685 16.3453Z" fill="#BCBBBD"/>
<path d="M11 20.25C8.52924 20.25 6.20633 19.2879 4.45924 17.5408C2.71214 15.7937 1.75 13.4708 1.75 11C1.75 8.52924 2.71218 6.20637 4.45924 4.45924C6.2063 2.71211 8.52924 1.75 11 1.75C13.4708 1.75 15.7937 2.71214 17.5408 4.45924C19.2879 6.20633 20.25 8.52924 20.25 11C20.25 13.4708 19.2878 15.7936 17.5408 17.5408C15.7937 19.2879 13.4708 20.25 11 20.25ZM11 2.90625C6.53709 2.90625 2.90625 6.53709 2.90625 11C2.90625 15.4629 6.53709 19.0938 11 19.0938C15.4629 19.0938 19.0938 15.4629 19.0938 11C19.0938 6.53709 15.4629 2.90625 11 2.90625Z" fill="#BCBBBD"/>
</svg>
