<svg width="22" height="22" viewBox="0 0 22 22" fill="none" xmlns="http://www.w3.org/2000/svg">
<path d="M15 4.33333C16.4707 4.33333 17.6667 5.52933 17.6667 7V15C17.6667 16.4707 16.4707 17.6667 15 17.6667H7C5.52933 17.6667 4.33333 16.4707 4.33333 15V7C4.33333 5.52933 5.52933 4.33333 7 4.33333H15ZM15 3H7C4.79067 3 3 4.79067 3 7V15C3 17.2093 4.79067 19 7 19H15C17.2093 19 19 17.2093 19 15V7C19 4.79067 17.2093 3 15 3Z" fill="#BCBBBD"/>
<path d="M7.66667 14.9998C7.29867 14.9998 7 14.7018 7 14.3332V10.3332C7 9.96517 7.29867 9.6665 7.66667 9.6665C8.03467 9.6665 8.33333 9.96517 8.33333 10.3332V14.3332C8.33333 14.7018 8.03467 14.9998 7.66667 14.9998Z" fill="#BCBBBD"/>
<path d="M11.0007 15C10.6327 15 10.334 14.702 10.334 14.3333V7.66667C10.334 7.29867 10.6327 7 11.0007 7C11.3687 7 11.6673 7.29867 11.6673 7.66667V14.3333C11.6673 14.702 11.3687 15 11.0007 15Z" fill="#BCBBBD"/>
<path d="M14.3327 14.9998C13.964 14.9998 13.666 14.7018 13.666 14.3332V10.3332C13.666 9.96517 13.964 9.6665 14.3327 9.6665C14.7013 9.6665 14.9993 9.96517 14.9993 10.3332V14.3332C14.9993 14.7018 14.7013 14.9998 14.3327 14.9998Z" fill="#BCBBBD"/>
</svg>
