<svg width="22" height="22" viewBox="0 0 22 22" fill="none" xmlns="http://www.w3.org/2000/svg">
<path d="M11.0072 11.7602C10.2952 11.7602 9.59916 11.5491 9.00715 11.1535C8.41514 10.7579 7.95373 10.1957 7.68126 9.53789C7.40879 8.88008 7.3375 8.15625 7.4764 7.45793C7.6153 6.75961 7.95817 6.11816 8.46163 5.6147C8.96509 5.11124 9.60654 4.76838 10.3049 4.62948C11.0032 4.49057 11.727 4.56186 12.3848 4.83433C13.0426 5.1068 13.6048 5.56822 14.0004 6.16023C14.396 6.75223 14.6071 7.44825 14.6071 8.16025C14.6071 9.11501 14.2278 10.0307 13.5527 10.7058C12.8776 11.3809 11.9619 11.7602 11.0072 11.7602ZM11.0072 5.76029C10.5325 5.76029 10.0685 5.90104 9.67382 6.16475C9.27915 6.42846 8.97154 6.80329 8.78989 7.24182C8.60825 7.68036 8.56072 8.16291 8.65332 8.62846C8.74593 9.094 8.9745 9.52164 9.31014 9.85728C9.64578 10.1929 10.0734 10.4215 10.539 10.5141C11.0045 10.6067 11.4871 10.5592 11.9256 10.3775C12.3641 10.1959 12.739 9.88827 13.0027 9.4936C13.2664 9.09892 13.4071 8.63492 13.4071 8.16025C13.4071 7.52374 13.1543 6.9133 12.7042 6.46322C12.2541 6.01314 11.6437 5.76029 11.0072 5.76029Z" fill="#BCBBBD"/>
<path d="M11.0071 20.1597C9.67658 20.1588 8.36282 19.8629 7.16038 19.2934C5.95794 18.7238 4.89675 17.8947 4.05321 16.8658L3.74121 16.4818L4.05321 16.1038C4.89746 15.0762 5.95897 14.2485 7.16136 13.6802C8.36376 13.1119 9.67716 12.8171 11.0071 12.8171C12.337 12.8171 13.6504 13.1119 14.8528 13.6802C16.0552 14.2485 17.1167 15.0762 17.961 16.1038L18.273 16.4818L17.961 16.8658C17.1174 17.8947 16.0563 18.7238 14.8538 19.2934C13.6514 19.8629 12.3376 20.1588 11.0071 20.1597ZM5.31319 16.4878C6.04292 17.269 6.92544 17.8918 7.90597 18.3177C8.88649 18.7435 9.94409 18.9633 11.0131 18.9633C12.0821 18.9633 13.1397 18.7435 14.1202 18.3177C15.1008 17.8918 15.9833 17.269 16.713 16.4878C15.9833 15.7066 15.1008 15.0837 14.1202 14.6579C13.1397 14.232 12.0821 14.0123 11.0131 14.0123C9.94409 14.0123 8.88649 14.232 7.90597 14.6579C6.92544 15.0837 6.04292 15.7066 5.31319 16.4878Z" fill="#BCBBBD"/>
<path d="M11.0059 20.1599C8.96154 20.1612 6.97767 19.4666 5.38077 18.1902C3.78386 16.9138 2.66909 15.1318 2.21993 13.1374C1.77076 11.143 2.01397 9.05518 2.90953 7.21745C3.80509 5.37973 5.29962 3.90166 7.14715 3.02651C8.99468 2.15136 11.0851 1.93129 13.0744 2.40252C15.0637 2.87375 16.8332 4.00819 18.0918 5.61914C19.3504 7.23008 20.0231 9.22153 19.9991 11.2657C19.9751 13.3099 19.2559 15.285 17.9598 16.8659C17.1162 17.8949 16.055 18.724 14.8526 19.2935C13.6501 19.8631 12.3364 20.159 11.0059 20.1599ZM11.0059 3.36014C9.4632 3.36014 7.95517 3.8176 6.67249 4.67466C5.3898 5.53172 4.39007 6.7499 3.79972 8.17514C3.20937 9.60038 3.0549 11.1687 3.35586 12.6817C3.65682 14.1947 4.39969 15.5845 5.49052 16.6754C6.58135 17.7662 7.97116 18.5091 9.48419 18.81C10.9972 19.111 12.5655 18.9565 13.9907 18.3662C15.416 17.7758 16.6342 16.7761 17.4912 15.4934C18.3483 14.2107 18.8057 12.7027 18.8057 11.16C18.8057 9.09136 17.984 7.10744 16.5212 5.64467C15.0585 4.18191 13.0745 3.36014 11.0059 3.36014Z" fill="#BCBBBD"/>
<path d="M4.51367 16.488C4.51367 16.488 10.5556 23.2379 16.7055 17.16L17.4975 16.488C17.4975 16.488 12.3615 11.1601 7.14763 14.358L4.51367 16.488Z" fill="#BCBBBD"/>
<path d="M11.0058 11.1602C12.6626 11.1602 14.0058 9.81706 14.0058 8.16023C14.0058 6.5034 12.6626 5.16028 11.0058 5.16028C9.34898 5.16028 8.00586 6.5034 8.00586 8.16023C8.00586 9.81706 9.34898 11.1602 11.0058 11.1602Z" fill="#BCBBBD"/>
</svg>
