<svg width="156" height="25" viewBox="0 0 156 25" fill="none" xmlns="http://www.w3.org/2000/svg">
<path d="M40.1654 20L36.0557 5.32258H39.0961L41.9057 16.2048L44.967 5.32258H47.4412L50.5235 16.2048L53.3331 5.32258H56.3735L52.2638 20H48.9719L46.2041 10.3129L43.4573 20H40.1654ZM58.962 15.8694C59.3254 17.1833 60.3109 17.8403 61.9185 17.8403C62.9529 17.8403 63.7357 17.4909 64.2668 16.7919L66.4475 18.05C65.4131 19.5457 63.8894 20.2935 61.8765 20.2935C60.1432 20.2935 58.7523 19.7694 57.7039 18.721C56.6556 17.6726 56.1314 16.3516 56.1314 14.7581C56.1314 13.1785 56.6486 11.8645 57.683 10.8161C58.7174 9.75376 60.0453 9.22258 61.6668 9.22258C63.2045 9.22258 64.4695 9.75376 65.462 10.8161C66.4685 11.8785 66.9717 13.1925 66.9717 14.7581C66.9717 15.1075 66.9367 15.478 66.8668 15.8694H58.962ZM58.9201 13.7726H64.2668C64.1131 13.0597 63.7916 12.5285 63.3023 12.179C62.8271 11.8296 62.2819 11.6548 61.6668 11.6548C60.94 11.6548 60.3389 11.8435 59.8636 12.221C59.3883 12.5844 59.0738 13.1016 58.9201 13.7726ZM78.5261 20H75.3809L71.5648 15.2403V20H68.8599V5.32258H71.5648V14.129L75.1712 9.51613H78.4002L74.1857 14.6952L78.5261 20ZM81.404 15.8694C81.7675 17.1833 82.753 17.8403 84.3605 17.8403C85.3949 17.8403 86.1777 17.4909 86.7089 16.7919L88.8895 18.05C87.8551 19.5457 86.3315 20.2935 84.3186 20.2935C82.5852 20.2935 81.1944 19.7694 80.146 18.721C79.0976 17.6726 78.5734 16.3516 78.5734 14.7581C78.5734 13.1785 79.0906 11.8645 80.125 10.8161C81.1594 9.75376 82.4874 9.22258 84.1089 9.22258C85.6465 9.22258 86.9116 9.75376 87.904 10.8161C88.9105 11.8785 89.4137 13.1925 89.4137 14.7581C89.4137 15.1075 89.3788 15.478 89.3089 15.8694H81.404ZM81.3621 13.7726H86.7089C86.5551 13.0597 86.2336 12.5285 85.7444 12.179C85.2691 11.8296 84.7239 11.6548 84.1089 11.6548C83.382 11.6548 82.7809 11.8435 82.3057 12.221C81.8304 12.5844 81.5159 13.1016 81.3621 13.7726ZM97.7279 9.51613H100.621L96.8053 20C96.2602 21.5097 95.5333 22.6 94.6247 23.271C93.7301 23.9559 92.6118 24.2634 91.2699 24.1935V21.6774C91.9967 21.6914 92.5699 21.5376 92.9892 21.2161C93.4225 20.8946 93.765 20.3774 94.0166 19.6645L89.7182 9.51613H92.6747L95.4005 16.5613L97.7279 9.51613ZM116.984 5.32258V8.09032H113.022V20H110.128V8.09032H106.186V5.32258H116.984ZM125.502 18.7C124.426 19.7624 123.112 20.2935 121.56 20.2935C120.008 20.2935 118.694 19.7624 117.618 18.7C116.556 17.6237 116.025 16.3097 116.025 14.7581C116.025 13.2065 116.556 11.8995 117.618 10.8371C118.694 9.76075 120.008 9.22258 121.56 9.22258C123.112 9.22258 124.426 9.76075 125.502 10.8371C126.578 11.8995 127.117 13.2065 127.117 14.7581C127.117 16.3097 126.578 17.6237 125.502 18.7ZM119.526 16.8339C120.071 17.379 120.749 17.6516 121.56 17.6516C122.371 17.6516 123.049 17.379 123.594 16.8339C124.139 16.2887 124.412 15.5968 124.412 14.7581C124.412 13.9194 124.139 13.2274 123.594 12.6823C123.049 12.1371 122.371 11.8645 121.56 11.8645C120.749 11.8645 120.071 12.1371 119.526 12.6823C118.995 13.2274 118.729 13.9194 118.729 14.7581C118.729 15.5968 118.995 16.2887 119.526 16.8339ZM137.952 18.7C136.875 19.7624 135.561 20.2935 134.01 20.2935C132.458 20.2935 131.144 19.7624 130.068 18.7C129.005 17.6237 128.474 16.3097 128.474 14.7581C128.474 13.2065 129.005 11.8995 130.068 10.8371C131.144 9.76075 132.458 9.22258 134.01 9.22258C135.561 9.22258 136.875 9.76075 137.952 10.8371C139.028 11.8995 139.566 13.2065 139.566 14.7581C139.566 16.3097 139.028 17.6237 137.952 18.7ZM131.976 16.8339C132.521 17.379 133.199 17.6516 134.01 17.6516C134.82 17.6516 135.498 17.379 136.044 16.8339C136.589 16.2887 136.861 15.5968 136.861 14.7581C136.861 13.9194 136.589 13.2274 136.044 12.6823C135.498 12.1371 134.82 11.8645 134.01 11.8645C133.199 11.8645 132.521 12.1371 131.976 12.6823C131.445 13.2274 131.179 13.9194 131.179 14.7581C131.179 15.5968 131.445 16.2887 131.976 16.8339ZM141.469 20V4.69355H144.174V20H141.469ZM149.063 12.4935C149.063 12.7731 149.244 13.0038 149.608 13.1855C149.985 13.3532 150.44 13.507 150.971 13.6468C151.502 13.7726 152.033 13.9403 152.564 14.15C153.095 14.3457 153.543 14.6812 153.906 15.1565C154.284 15.6317 154.472 16.2258 154.472 16.9387C154.472 18.0151 154.067 18.8468 153.256 19.4339C152.459 20.007 151.46 20.2935 150.258 20.2935C148.105 20.2935 146.637 19.4618 145.855 17.7984L148.203 16.4774C148.511 17.386 149.195 17.8403 150.258 17.8403C151.222 17.8403 151.705 17.5398 151.705 16.9387C151.705 16.6591 151.516 16.4355 151.138 16.2677C150.775 16.086 150.328 15.9253 149.797 15.7855C149.265 15.6457 148.734 15.471 148.203 15.2613C147.672 15.0516 147.218 14.7231 146.84 14.2758C146.477 13.8145 146.295 13.2414 146.295 12.5565C146.295 11.522 146.672 10.7113 147.427 10.1242C148.196 9.52312 149.147 9.22258 150.279 9.22258C151.132 9.22258 151.907 9.41828 152.606 9.80968C153.305 10.1871 153.857 10.7323 154.263 11.4452L151.956 12.7032C151.621 11.9903 151.062 11.6339 150.279 11.6339C149.929 11.6339 149.636 11.7108 149.398 11.8645C149.175 12.0183 149.063 12.228 149.063 12.4935Z" fill="#BCBBBD"/>
<path d="M26.0925 0L20.1711 22.2011H14.2984L10.5992 8.32542L9.76367 5.12129H14.4444L17.2326 15.5806L21.3917 0H26.0925Z" fill="#09CEA7"/>
<path d="M13.1722 5.12367L12.3358 8.32522L8.63219 22.2009H2.76168L0 11.8411H4.69862L5.69804 15.5804L8.48626 5.12109L13.1722 5.12367Z" fill="#09CEA7"/>
</svg>
