<svg width="22" height="22" viewBox="0 0 22 22" fill="none" xmlns="http://www.w3.org/2000/svg">
<path d="M5.2625 4.20001H16.7375C18.2106 4.20001 19.4143 5.35299 19.4957 6.80575L19.5 6.96251V15.0375C19.5 16.5106 18.347 17.7143 16.8942 17.7957L16.7375 17.8H5.2625C3.78942 17.8 2.58564 16.647 2.50437 15.1943L2.5 15.0375V6.96251C2.5 5.48944 3.65298 4.28565 5.10574 4.20438L5.2625 4.20001ZM18.225 8.76706L11.2969 12.4142C11.1376 12.498 10.9516 12.51 10.7848 12.4501L10.7031 12.4142L3.775 8.76791V15.0375C3.775 15.818 4.37604 16.458 5.1405 16.5201L5.2625 16.525H16.7375C17.518 16.525 18.158 15.924 18.2201 15.1595L18.225 15.0375V8.76706ZM16.7375 5.47501H5.2625C4.48206 5.47501 3.84199 6.07606 3.77993 6.84051L3.775 6.96251V7.32716L11 11.1296L18.225 7.32631V6.96251C18.225 6.18207 17.624 5.542 16.8595 5.47994L16.7375 5.47501Z" fill="#BCBBBD"/>
</svg>
