<svg width="22" height="22" viewBox="0 0 22 22" fill="none" xmlns="http://www.w3.org/2000/svg">
<path fill-rule="evenodd" clip-rule="evenodd" d="M20.0003 5.97605C20.0003 4.92109 19.5817 3.90967 18.8357 3.16366C18.0897 2.41766 17.0782 1.99902 16.0233 1.99902H5.97605C4.92109 1.99902 3.90967 2.41766 3.16366 3.16366C2.41766 3.90967 1.99902 4.92109 1.99902 5.97605V16.0233C1.99902 17.0782 2.41766 18.0897 3.16366 18.8357C3.90967 19.5817 4.92109 20.0003 5.97605 20.0003H16.0233C17.0782 20.0003 18.0897 19.5817 18.8357 18.8357C19.5817 18.0897 20.0003 17.0782 20.0003 16.0233V5.97605ZM18.7444 5.97605V16.0233C18.7444 16.745 18.4581 17.4374 17.9473 17.9473C17.4374 18.4581 16.745 18.7444 16.0233 18.7444H5.97605C5.25432 18.7444 4.5619 18.4581 4.05201 17.9473C3.54127 17.4374 3.25493 16.745 3.25493 16.0233V5.97605C3.25493 5.25432 3.54127 4.5619 4.05201 4.05201C4.5619 3.54127 5.25432 3.25493 5.97605 3.25493H16.0233C16.745 3.25493 17.4374 3.54127 17.9473 4.05201C18.4581 4.5619 18.7444 5.25432 18.7444 5.97605Z" fill="#BCBBBD"/>
<path fill-rule="evenodd" clip-rule="evenodd" d="M11.4077 7.78715L9.39824 13.8155C9.28939 14.1445 9.46689 14.5004 9.79594 14.6101C10.125 14.7189 10.4808 14.5414 10.5905 14.2124L12.6 8.18401C12.7088 7.85497 12.5313 7.49913 12.2022 7.38945C11.8732 7.2806 11.5174 7.4581 11.4077 7.78715Z" fill="#BCBBBD"/>
<path fill-rule="evenodd" clip-rule="evenodd" d="M13.5697 9.43404L15.1346 10.9997L13.5697 12.5654C13.3244 12.8099 13.3244 13.2085 13.5697 13.4529C13.8142 13.6983 14.2128 13.6983 14.4572 13.4529L16.4667 11.4435C16.712 11.1982 16.712 10.8013 16.4667 10.556L14.4572 8.54654C14.2128 8.30122 13.8142 8.30122 13.5697 8.54654C13.3244 8.79102 13.3244 9.18956 13.5697 9.43404Z" fill="#BCBBBD"/>
<path fill-rule="evenodd" clip-rule="evenodd" d="M7.54207 8.54654L5.53262 10.556C5.2873 10.8013 5.2873 11.1982 5.53262 11.4435L7.54207 13.4529C7.78655 13.6983 8.18509 13.6983 8.42957 13.4529C8.67489 13.2085 8.67489 12.8099 8.42957 12.5654L6.86472 10.9997L8.42957 9.43404C8.67489 9.18956 8.67489 8.79102 8.42957 8.54654C8.18509 8.30122 7.78655 8.30122 7.54207 8.54654Z" fill="#BCBBBD"/>
</svg>
