<svg width="22" height="22" viewBox="0 0 22 22" fill="none" xmlns="http://www.w3.org/2000/svg">
<path d="M17.364 4.63603C15.6641 2.93617 13.4039 2 11 2C8.59605 2 6.33589 2.93617 4.63603 4.63603C2.93617 6.33589 2 8.59605 2 11C2 13.4039 2.93617 15.6641 4.63603 17.364C6.33589 19.0638 8.59605 20 11 20C13.4039 20 15.6641 19.0638 17.364 17.364C19.0638 15.6641 20 13.4039 20 11C20 8.59605 19.0638 6.33589 17.364 4.63603ZM5.90605 17.0925C6.20323 14.5354 8.40173 12.5612 11 12.5612C12.3697 12.5612 13.6577 13.0948 14.6266 14.0635C15.4451 14.8822 15.9613 15.951 16.0941 17.0923C14.7139 18.2482 12.9369 18.9453 11 18.9453C9.06311 18.9453 7.28621 18.2484 5.90605 17.0925ZM11 11.4749C9.49281 11.4749 8.26646 10.2485 8.26646 8.74135C8.26646 7.23402 9.49281 6.00781 11 6.00781C12.5072 6.00781 13.7335 7.23402 13.7335 8.74135C13.7335 10.2485 12.5072 11.4749 11 11.4749ZM17.0018 16.2008C16.7331 15.1173 16.1726 14.1182 15.3723 13.3178C14.7241 12.6696 13.9572 12.1834 13.1209 11.8786C14.1263 11.1968 14.7882 10.0449 14.7882 8.74135C14.7882 6.65257 13.0888 4.95312 11 4.95312C8.91122 4.95312 7.21178 6.65257 7.21178 8.74135C7.21178 10.0456 7.87425 11.1979 8.88046 11.8796C8.11101 12.16 7.39896 12.5936 6.78633 13.1643C5.89919 13.9905 5.28313 15.0439 4.99748 16.2C3.78775 14.8054 3.05469 12.9867 3.05469 11C3.05469 6.61893 6.61893 3.05469 11 3.05469C15.3811 3.05469 18.9453 6.61893 18.9453 11C18.9453 12.9872 18.212 14.8062 17.0018 16.2008Z" fill="#BCBBBD"/>
<path d="M11 20C8.59602 20 6.33589 19.0639 4.63602 17.364C2.93614 15.6641 2 13.404 2 11C2 8.59602 2.93618 6.33593 4.63602 4.63602C6.33586 2.93611 8.59602 2 11 2C13.404 2 15.6641 2.93614 17.364 4.63602C19.0639 6.33589 20 8.59602 20 11C20 13.404 19.0638 15.6641 17.364 17.364C15.6641 19.0639 13.404 20 11 20ZM11 3.125C6.65771 3.125 3.125 6.65771 3.125 11C3.125 15.3423 6.65771 18.875 11 18.875C15.3423 18.875 18.875 15.3423 18.875 11C18.875 6.65771 15.3423 3.125 11 3.125Z" fill="#BCBBBD"/>
</svg>
