<svg width="22" height="22" viewBox="0 0 22 22" fill="none" xmlns="http://www.w3.org/2000/svg">
<path d="M11.0003 20.7676C10.8979 20.7683 10.7968 20.7451 10.7049 20.6999L7.7083 19.2046C6.28861 18.4987 5.0951 17.4091 4.26311 16.0594C3.43111 14.7098 2.9939 13.154 3.00106 11.5685V4.0984C3.00103 3.9259 3.06871 3.76027 3.18953 3.63714C3.31036 3.51402 3.47468 3.44323 3.64716 3.44H5.78234C6.65577 3.43539 7.50972 3.18135 8.24364 2.70777L10.6249 1.18176C10.7307 1.1144 10.8534 1.07861 10.9788 1.07861C11.1041 1.07861 11.2269 1.1144 11.3326 1.18176L13.7139 2.70777C14.4478 3.18135 15.3017 3.43539 16.1752 3.44H18.3104C18.3994 3.43584 18.4883 3.44979 18.5718 3.48101C18.6553 3.51223 18.7315 3.56006 18.7959 3.62162C18.8604 3.68318 18.9116 3.75718 18.9466 3.83913C18.9816 3.92108 18.9996 4.00929 18.9995 4.0984V11.5685C19.0044 13.1542 18.5648 14.7096 17.7306 16.0582C16.8964 17.4069 15.701 18.4947 14.28 19.1985L11.2833 20.6937C11.1957 20.7393 11.099 20.7645 11.0003 20.7676ZM4.30555 4.76911V11.5685C4.3018 12.91 4.67393 14.2257 5.37976 15.3666C6.08558 16.5074 7.09688 17.4278 8.29902 18.0232L11.0003 19.3769L13.7016 18.0232C14.9037 17.4278 15.915 16.5074 16.6208 15.3666C17.3267 14.2257 17.6988 12.91 17.695 11.5685V4.76911H16.2183C15.0853 4.76903 13.9765 4.44214 13.0247 3.82766L11.0003 2.51086L8.97588 3.81535C8.02542 4.43418 6.91648 4.76536 5.78234 4.76911H4.30555Z" fill="#BCBBBD"/>
<path d="M11.0004 11.4146C10.4163 11.4146 9.84524 11.2414 9.35953 10.9168C8.87382 10.5923 8.49525 10.131 8.2717 9.59129C8.04815 9.0516 7.98966 8.45773 8.10363 7.8848C8.21759 7.31186 8.49889 6.78559 8.91196 6.37253C9.32502 5.95946 9.85129 5.67816 10.4242 5.5642C10.9972 5.45024 11.591 5.50873 12.1307 5.73227C12.6704 5.95582 13.1317 6.33439 13.4562 6.8201C13.7808 7.30581 13.954 7.87685 13.954 8.46101C13.9524 9.24385 13.6407 9.99415 13.0871 10.5477C12.5336 11.1012 11.7833 11.4129 11.0004 11.4146ZM11.0004 6.81809C10.6755 6.81809 10.3579 6.91445 10.0877 7.09497C9.81751 7.2755 9.60693 7.53209 9.48258 7.83229C9.35823 8.1325 9.3257 8.46283 9.38909 8.78153C9.45248 9.10022 9.60895 9.39296 9.83872 9.62273C10.0685 9.8525 10.3612 10.009 10.6799 10.0724C10.9986 10.1358 11.329 10.1032 11.6292 9.97887C11.9294 9.85452 12.186 9.64395 12.3665 9.37377C12.547 9.10359 12.6434 8.78595 12.6434 8.46101C12.6417 8.02635 12.4679 7.61005 12.16 7.30327C11.8521 6.99649 11.4351 6.82424 11.0004 6.82424V6.81809Z" fill="#BCBBBD"/>
<path d="M14.9387 15.0266H13.628C13.6264 14.6795 13.4878 14.347 13.2424 14.1016C12.9969 13.8561 12.6645 13.7175 12.3174 13.7159H9.68379C9.33618 13.7159 9.00282 13.854 8.75702 14.0998C8.51123 14.3456 8.37314 14.679 8.37314 15.0266H7.0625C7.0625 14.3314 7.33867 13.6646 7.83026 13.173C8.32184 12.6814 8.98858 12.4053 9.68379 12.4053H12.3112C13.007 12.4053 13.6744 12.6812 14.1669 13.1727C14.6595 13.6641 14.937 14.3308 14.9387 15.0266Z" fill="#BCBBBD"/>
</svg>
