<svg width="22" height="22" viewBox="0 0 22 22" fill="none" xmlns="http://www.w3.org/2000/svg">
<path fill-rule="evenodd" clip-rule="evenodd" d="M18.6512 18.1548C18.6512 18.8068 18.3918 19.4329 17.9312 19.8944C17.4697 20.355 16.8437 20.6143 16.1917 20.6143H5.45947C4.80749 20.6143 4.18144 20.355 3.71995 19.8944C3.25936 19.4329 3 18.8068 3 18.1548V3.84521C3 3.19323 3.25936 2.56718 3.71995 2.1057C4.18144 1.6451 4.80749 1.38574 5.45947 1.38574H13.1384C13.5534 1.38574 13.9513 1.5503 14.2447 1.84454L18.1924 5.79222C18.4866 6.08556 18.6512 6.48355 18.6512 6.89853V18.1548ZM17.3096 18.1548V6.89853C17.3096 6.8395 17.2864 6.78226 17.2443 6.74023L13.2967 2.79256C13.2546 2.75052 13.1974 2.72727 13.1384 2.72727H5.45947C5.16254 2.72727 4.87903 2.84532 4.66886 3.0546C4.45958 3.26478 4.34153 3.54829 4.34153 3.84521V18.1548C4.34153 18.4518 4.45958 18.7353 4.66886 18.9455C4.87903 19.1547 5.16254 19.2728 5.45947 19.2728H16.1917C16.4886 19.2728 16.7721 19.1547 16.9823 18.9455C17.1916 18.7353 17.3096 18.4518 17.3096 18.1548Z" fill="#BBBABC"/>
<path fill-rule="evenodd" clip-rule="evenodd" d="M12.8379 2.50377C12.8379 2.13351 13.1384 1.83301 13.5087 1.83301C13.8789 1.83301 14.1794 2.13351 14.1794 2.50377V5.634C14.1794 5.75742 14.2796 5.85759 14.403 5.85759H17.5332C17.9035 5.85759 18.204 6.15809 18.204 6.52836C18.204 6.89862 17.9035 7.19912 17.5332 7.19912H14.403C13.5382 7.19912 12.8379 6.49884 12.8379 5.634V2.50377Z" fill="#BBBABC"/>
<path fill-rule="evenodd" clip-rule="evenodd" d="M7.24791 10.3293C6.87765 10.3293 6.57715 10.0288 6.57715 9.65856C6.57715 9.2883 6.87765 8.98779 7.24791 8.98779H14.4027C14.773 8.98779 15.0735 9.2883 15.0735 9.65856C15.0735 10.0288 14.773 10.3293 14.4027 10.3293H7.24791Z" fill="#BBBABC"/>
<path fill-rule="evenodd" clip-rule="evenodd" d="M7.24791 13.4594C6.87765 13.4594 6.57715 13.1589 6.57715 12.7887C6.57715 12.4184 6.87765 12.1179 7.24791 12.1179H14.4027C14.773 12.1179 15.0735 12.4184 15.0735 12.7887C15.0735 13.1589 14.773 13.4594 14.4027 13.4594H7.24791Z" fill="#BBBABC"/>
<path fill-rule="evenodd" clip-rule="evenodd" d="M7.24791 16.5897C6.87765 16.5897 6.57715 16.2892 6.57715 15.9189C6.57715 15.5487 6.87765 15.2482 7.24791 15.2482H11.2725C11.6428 15.2482 11.9433 15.5487 11.9433 15.9189C11.9433 16.2892 11.6428 16.5897 11.2725 16.5897H7.24791Z" fill="#BBBABC"/>
</svg>
