<svg width="22" height="22" viewBox="0 0 22 22" fill="none" xmlns="http://www.w3.org/2000/svg">
<path fill-rule="evenodd" clip-rule="evenodd" d="M19.0001 5.25597V16.7439C19.0001 18.4433 17.6224 19.8211 15.923 19.8211H6.07616C4.37676 19.8211 2.99902 18.4433 2.99902 16.7439V5.25597C2.99902 3.55657 4.37676 2.17883 6.07616 2.17883H15.923C17.6224 2.17883 19.0001 3.55657 19.0001 5.25597ZM17.7693 5.25597C17.7693 4.236 16.9429 3.40969 15.923 3.40969H6.07616C5.05619 3.40969 4.22988 4.236 4.22988 5.25597V16.7439C4.22988 17.7639 5.05619 18.5902 6.07616 18.5902H15.923C16.9429 18.5902 17.7693 17.7639 17.7693 16.7439V5.25597Z" fill="#BCBBBD"/>
<path fill-rule="evenodd" clip-rule="evenodd" d="M11.0005 5.46118C11.3402 5.46118 11.6159 5.73689 11.6159 6.07661C11.6159 6.41632 11.3402 6.69203 11.0005 6.69203H6.89765C6.55794 6.69203 6.28223 6.41632 6.28223 6.07661C6.28223 5.73689 6.55794 5.46118 6.89765 5.46118H11.0005Z" fill="#BCBBBD"/>
<path fill-rule="evenodd" clip-rule="evenodd" d="M15.1033 8.74341C15.4431 8.74341 15.7188 9.01912 15.7188 9.35883C15.7188 9.69855 15.4431 9.97426 15.1033 9.97426H6.89765C6.55794 9.97426 6.28223 9.69855 6.28223 9.35883C6.28223 9.01912 6.55794 8.74341 6.89765 8.74341H15.1033Z" fill="#BCBBBD"/>
<path fill-rule="evenodd" clip-rule="evenodd" d="M15.1033 12.0258C15.4431 12.0258 15.7188 12.3015 15.7188 12.6412C15.7188 12.9809 15.4431 13.2566 15.1033 13.2566H6.89765C6.55794 13.2566 6.28223 12.9809 6.28223 12.6412C6.28223 12.3015 6.55794 12.0258 6.89765 12.0258H15.1033Z" fill="#BCBBBD"/>
<path fill-rule="evenodd" clip-rule="evenodd" d="M15.1033 15.308C15.4431 15.308 15.7188 15.5837 15.7188 15.9234C15.7188 16.2631 15.4431 16.5388 15.1033 16.5388H6.89765C6.55794 16.5388 6.28223 16.2631 6.28223 15.9234C6.28223 15.5837 6.55794 15.308 6.89765 15.308H15.1033Z" fill="#BCBBBD"/>
</svg>
