<svg width="14" height="14" viewBox="0 0 14 14" fill="none" xmlns="http://www.w3.org/2000/svg">
<path d="M4.88138 1.92143C4.94335 1.96116 5.1952 3.12508 5.27067 3.3388C5.75134 4.69896 6.4918 5.25351 7.84561 5.66585C8.09825 5.74291 8.65836 5.8168 8.84507 5.91293C8.93961 5.9614 8.94835 6.06389 8.87526 6.1346C8.80217 6.20531 8.09905 6.33957 7.92823 6.3928C6.28206 6.90048 5.66871 7.44312 5.15547 9.10439C5.06649 9.3912 5.01326 9.82419 4.91633 10.0697C4.85436 10.2262 4.71692 10.2222 4.647 10.0697C4.55087 9.85836 4.52147 9.51037 4.44918 9.27044C3.94547 7.60916 3.42111 6.941 1.72806 6.42458C1.45237 6.34037 0.909737 6.26728 0.699198 6.16638C0.617366 6.12665 0.626106 6.00907 0.667419 5.94551C0.702376 5.89148 1.72409 5.66188 1.90285 5.60308C2.39543 5.44021 2.93329 5.20902 3.32815 4.86818C4.15124 4.15791 4.41422 2.97333 4.65574 1.95798C4.69308 1.90872 4.83927 1.89601 4.88058 1.92302L4.88138 1.92143Z" fill="#BCBBBD"/>
<path d="M11.1146 12.1735C11.0995 12.1854 10.9724 12.1854 10.9573 12.1735C10.9326 12.1536 10.8429 11.6626 10.8071 11.5553C10.6276 11.0095 10.3964 10.567 9.85929 10.3009C9.67894 10.2111 8.72238 9.97273 8.70967 9.91314C8.68424 9.79794 9.17683 9.73041 9.2817 9.69625C10.1707 9.40705 10.4925 9.16315 10.7984 8.26299C10.8556 8.09456 10.8969 7.76246 10.9533 7.63853C10.9763 7.58768 11.0256 7.60675 11.0574 7.56702C11.2194 7.92613 11.2592 8.33132 11.4316 8.68725C11.5921 9.01855 11.8844 9.32045 12.2134 9.48491C12.3985 9.57707 13.3495 9.81383 13.363 9.87262C13.39 9.99259 12.7894 10.0903 12.667 10.1308C11.9694 10.3636 11.604 10.6345 11.3386 11.3361C11.2822 11.4846 11.1495 12.1456 11.1162 12.1727L11.1146 12.1735Z" fill="#BCBBBD"/>
<path d="M10.2446 2.33142C10.2637 2.34969 10.3447 2.7517 10.3789 2.84148C10.6482 3.53904 11.0343 3.59545 11.6985 3.80599C11.2075 4.04116 10.7547 4.01732 10.4718 4.57346C10.3646 4.78321 10.3423 5.03347 10.2549 5.22891C10.1548 5.45375 10.0635 4.86583 10.0277 4.77129C9.86485 4.34147 9.65272 4.15397 9.22846 3.9919C9.18238 3.97442 8.64452 3.86796 8.70728 3.78613C9.24435 3.66536 9.73296 3.53825 9.97369 2.99561C10.0603 2.80017 10.0794 2.55467 10.1509 2.38306C10.1699 2.33698 10.1922 2.28137 10.2438 2.33142H10.2446Z" fill="#BCBBBD"/>
</svg>
