<svg width="22" height="22" viewBox="0 0 22 22" fill="none" xmlns="http://www.w3.org/2000/svg">
<circle cx="11" cy="11" r="7" fill="#BCBBBD"/>
<path d="M1 10.9999C1 12.9778 1.58649 14.9112 2.68531 16.5557C3.78413 18.2002 5.34593 19.4819 7.1732 20.2388C9.00047 20.9957 11.0112 21.1937 12.951 20.8078C14.8908 20.422 16.6726 19.4696 18.0712 18.071C19.4697 16.6725 20.4221 14.8907 20.808 12.9509C21.1938 11.011 20.9958 9.00035 20.2389 7.17308C19.482 5.34581 18.2003 3.78401 16.5558 2.68519C14.9113 1.58637 12.9779 0.999878 11.0001 0.999878C8.3488 1.00288 5.80699 2.05741 3.93226 3.93214C2.05754 5.80686 1.003 8.34868 1 10.9999ZM14.5287 9.19526C14.5902 9.13158 14.6638 9.0808 14.7451 9.04586C14.8265 9.01092 14.914 8.99253 15.0025 8.99176C15.091 8.99099 15.1788 9.00786 15.2607 9.04138C15.3426 9.0749 15.4171 9.1244 15.4797 9.187C15.5423 9.24959 15.5918 9.32403 15.6253 9.40596C15.6588 9.48789 15.6757 9.57568 15.6749 9.6642C15.6741 9.75272 15.6558 9.8402 15.6208 9.92153C15.5859 10.0029 15.5351 10.0764 15.4714 10.1379L11.4714 14.138C11.3464 14.2629 11.1768 14.3331 11.0001 14.3331C10.8233 14.3331 10.6537 14.2629 10.5287 14.138L6.5287 10.1379C6.40726 10.0122 6.34006 9.84379 6.34158 9.66899C6.3431 9.4942 6.41321 9.32699 6.53682 9.20338C6.66043 9.07977 6.82764 9.00966 7.00243 9.00814C7.17723 9.00662 7.34563 9.07382 7.47137 9.19526L11.0001 12.7239L14.5287 9.19526Z" fill="#333335"/>
</svg>
