<svg width="22" height="22" viewBox="0 0 22 22" fill="none" xmlns="http://www.w3.org/2000/svg">
<path d="M17.8478 6.50435H15.9696L14.9326 4.93913C14.5413 4.35217 13.8565 4 13.1522 4H8.84783C8.14348 4 7.4587 4.35217 7.06739 4.93913L6.03043 6.50435H4.15217C2.9587 6.50435 2 7.46304 2 8.65652V16.2478C2 17.4413 2.9587 18.4 4.15217 18.4H17.8478C19.0413 18.4 20 17.4413 20 16.2478V8.65652C20 7.46304 19.0413 6.50435 17.8478 6.50435ZM11 16.6391C8.31957 16.6391 6.14783 14.4674 6.14783 11.787C6.14783 9.10652 8.31957 6.95435 11 6.95435C13.6804 6.95435 15.8522 9.12609 15.8522 11.8065C15.8522 14.4674 13.6804 16.6391 11 16.6391ZM17.5739 9.53696C17.5543 9.53696 17.5348 9.53696 17.4957 9.53696H16.713C16.3609 9.51739 16.087 9.22391 16.1065 8.87174C16.1261 8.53913 16.3804 8.28478 16.713 8.26522H17.4957C17.8478 8.24565 18.1413 8.51956 18.1609 8.87174C18.1804 9.22391 17.9261 9.51739 17.5739 9.53696Z" fill="#BCBBBD"/>
<path d="M10.9998 9.10657C9.51285 9.10657 8.2998 10.3196 8.2998 11.8066C8.2998 13.2935 9.51285 14.487 10.9998 14.487C12.4868 14.487 13.6998 13.274 13.6998 11.787C13.6998 10.3 12.4868 9.10657 10.9998 9.10657Z" fill="#BCBBBD"/>
</svg>
