<svg width="40" height="40" viewBox="0 0 40 40" fill="none" xmlns="http://www.w3.org/2000/svg">
<g clip-path="url(#clip0_1374_6380)">
<path d="M28.5708 1.90476C28.5708 0.852791 29.4236 0 30.4755 0C31.5275 0 32.3803 0.852791 32.3803 1.90476V3.80952C32.3803 4.86149 31.5275 5.71428 30.4755 5.71428C29.4236 5.71428 28.5708 4.86149 28.5708 3.80952V1.90476Z" fill="#BCBBBD"/>
<path d="M7.6191 1.90476C7.6191 0.852791 8.47189 0 9.52386 0C10.5758 0 11.4286 0.852791 11.4286 1.90476V3.80952C11.4286 4.86149 10.5758 5.71428 9.52386 5.71428C8.47189 5.71428 7.6191 4.86149 7.6191 3.80952V1.90476Z" fill="#BCBBBD"/>
<path d="M39.048 14.2857V36.1905C39.048 38.2943 37.3422 40 35.2384 40H4.76225C2.65844 40 0.952724 38.2943 0.952724 36.1905V14.2857H39.048ZM27.6194 33.3333C27.6194 34.3857 28.4718 35.2381 29.5241 35.2381H31.4289C32.4813 35.2381 33.3337 34.3857 33.3337 33.3333V31.4286C33.3337 30.3762 32.4813 29.5238 31.4289 29.5238H29.5241C28.4718 29.5238 27.6194 30.3762 27.6194 31.4286V33.3333ZM27.6194 22.8571C27.6194 23.9095 28.4718 24.7619 29.5241 24.7619H31.4289C32.4813 24.7619 33.3337 23.9095 33.3337 22.8571V20.9524C33.3337 19.9 32.4813 19.0476 31.4289 19.0476H29.5241C28.4718 19.0476 27.6194 19.9 27.6194 20.9524V22.8571ZM17.1432 33.3333C17.1432 34.3857 17.9956 35.2381 19.048 35.2381H20.9527C22.0051 35.2381 22.8575 34.3857 22.8575 33.3333V31.4286C22.8575 30.3762 22.0051 29.5238 20.9527 29.5238H19.048C17.9956 29.5238 17.1432 30.3762 17.1432 31.4286V33.3333ZM17.1432 22.8571C17.1432 23.9095 17.9956 24.7619 19.048 24.7619H20.9527C22.0051 24.7619 22.8575 23.9095 22.8575 22.8571V20.9524C22.8575 19.9 22.0051 19.0476 20.9527 19.0476H19.048C17.9956 19.0476 17.1432 19.9 17.1432 20.9524V22.8571ZM6.66701 33.3333C6.66701 34.3857 7.51939 35.2381 8.57177 35.2381H10.4765C11.5289 35.2381 12.3813 34.3857 12.3813 33.3333V31.4286C12.3813 30.3762 11.5289 29.5238 10.4765 29.5238H8.57177C7.51939 29.5238 6.66701 30.3762 6.66701 31.4286V33.3333ZM6.66701 22.8571C6.66701 23.9095 7.51939 24.7619 8.57177 24.7619H10.4765C11.5289 24.7619 12.3813 23.9095 12.3813 22.8571V20.9524C12.3813 19.9 11.5289 19.0476 10.4765 19.0476H8.57177C7.51939 19.0476 6.66701 19.9 6.66701 20.9524V22.8571Z" fill="#BCBBBD"/>
<path d="M0.952724 12.3809V6.66657C0.952724 4.56276 2.65844 2.85705 4.76225 2.85705H5.71463V3.80943C5.71463 5.91038 7.4232 7.61895 9.52415 7.61895C11.6251 7.61895 13.3337 5.91038 13.3337 3.80943V2.85705H26.667V3.80943C26.667 5.91038 28.3756 7.61895 30.4765 7.61895C32.5775 7.61895 34.2861 5.91038 34.2861 3.80943V2.85705H35.2384C37.3422 2.85705 39.048 4.56276 39.048 6.66657V12.3809H0.952724Z" fill="#BCBBBD"/>
</g>
<defs>
<clipPath id="clip0_1374_6380">
<rect width="40" height="40" fill="white"/>
</clipPath>
</defs>
</svg>
