<svg width="22" height="22" viewBox="0 0 22 22" fill="none" xmlns="http://www.w3.org/2000/svg">
<path d="M11 20C15.9706 20 20 15.9706 20 11C20 6.02944 15.9706 2 11 2C6.02944 2 2 6.02944 2 11C2 15.9706 6.02944 20 11 20Z" fill="#FFB800"/>
<path d="M11.0001 18.2004C14.9082 18.2004 18.0763 15.0322 18.0763 11.1241C18.0763 7.216 14.9082 4.04785 11.0001 4.04785C7.09197 4.04785 3.92383 7.216 3.92383 11.1241C3.92383 15.0322 7.09197 18.2004 11.0001 18.2004Z" fill="#F28A00"/>
<g filter="url(#filter0_i_1644_6182)">
<path d="M15.5946 7.2168L13.4479 15.2655H11.3188L9.97772 10.2351L9.6748 9.07345H11.3717L12.3825 12.8653L13.8904 7.2168H15.5946Z" fill="#FFB800"/>
<path d="M10.9102 9.07417L10.6069 10.2349L9.26424 15.2653H7.13597L6.13477 11.5095H7.83818L8.20051 12.8651L9.21133 9.07324L10.9102 9.07417Z" fill="#FFB800"/>
</g>
<defs>
<filter id="filter0_i_1644_6182" x="6.13477" y="7.2168" width="9.45996" height="8.10276" filterUnits="userSpaceOnUse" color-interpolation-filters="sRGB">
<feFlood flood-opacity="0" result="BackgroundImageFix"/>
<feBlend mode="normal" in="SourceGraphic" in2="BackgroundImageFix" result="shape"/>
<feColorMatrix in="SourceAlpha" type="matrix" values="0 0 0 0 0 0 0 0 0 0 0 0 0 0 0 0 0 0 127 0" result="hardAlpha"/>
<feOffset dy="0.0540541"/>
<feGaussianBlur stdDeviation="0.027027"/>
<feComposite in2="hardAlpha" operator="arithmetic" k2="-1" k3="1"/>
<feColorMatrix type="matrix" values="0 0 0 0 0 0 0 0 0 0 0 0 0 0 0 0 0 0 0.5 0"/>
<feBlend mode="normal" in2="shape" result="effect1_innerShadow_1644_6182"/>
</filter>
</defs>
</svg>
