<svg width="24" height="24" viewBox="0 0 24 24" fill="none" xmlns="http://www.w3.org/2000/svg">
<path d="M12 24C18.6274 24 24 18.6274 24 12C24 5.37258 18.6274 0 12 0C5.37258 0 0 5.37258 0 12C0 18.6274 5.37258 24 12 24Z" fill="#FFCE33"/>
<path d="M12.0004 21.6005C17.2112 21.6005 21.4354 17.3763 21.4354 12.1655C21.4354 6.95466 17.2112 2.73047 12.0004 2.73047C6.78962 2.73047 2.56543 6.95466 2.56543 12.1655C2.56543 17.3763 6.78962 21.6005 12.0004 21.6005Z" fill="#F28A00"/>
<g filter="url(#filter0_i_1699_6609)">
<path d="M7.64236 13.9585C7.61132 14.0204 7.60056 14.0906 7.61161 14.159C7.62266 14.2274 7.65495 14.2906 7.70392 14.3396L7.78439 14.4201C8.01735 14.144 8.28854 13.8446 8.61766 13.5154C8.641 13.492 8.66474 13.4808 8.68807 13.4594L8.16944 12.9407C7.86928 13.4872 7.69265 13.8599 7.64236 13.9585Z" fill="#FFCE33"/>
<path d="M10.4822 15.3812C10.1523 15.7112 9.85375 15.9849 9.57934 16.2163L9.68838 16.3254C9.73776 16.3748 9.80153 16.4072 9.87052 16.418C9.93951 16.4288 10.0101 16.4173 10.0722 16.3854C10.2428 16.2972 10.5116 16.1708 11.0813 15.8537L10.5385 15.3108C10.5168 15.3341 10.5056 15.3579 10.4822 15.3812Z" fill="#FFCE33"/>
<path d="M10.3064 13.6929C10.0682 13.4547 9.39827 13.6684 9.08363 13.9831C8.38541 14.6303 7.79724 15.3869 7.34225 16.2232C7.31191 16.2851 7.30172 16.3549 7.3131 16.4228C7.32449 16.4908 7.35688 16.5535 7.40573 16.6021C7.45457 16.6507 7.51741 16.6827 7.58541 16.6937C7.65341 16.7048 7.72315 16.6942 7.78483 16.6635C8.61847 16.205 9.37254 15.6148 10.0179 14.9156C10.3639 14.5695 10.5345 13.9195 10.3084 13.6933L10.3064 13.6929Z" fill="#FFCE33"/>
<path d="M7.02919 11.1382L6.09694 12.0707C6.04549 12.1219 6.01242 12.1888 6.00286 12.2608C5.99331 12.3328 6.00781 12.406 6.0441 12.4689C6.08039 12.5318 6.13645 12.581 6.20356 12.6087C6.27067 12.6365 6.34507 12.6413 6.4152 12.6224C6.81622 12.487 7.24341 12.4474 7.66249 12.5069C8.06785 11.7818 8.52377 11.0861 9.02687 10.425C8.74562 10.2455 7.82182 10.3453 7.02919 11.1382Z" fill="#FFCE33"/>
<path d="M11.579 17.9647C11.6408 17.9959 11.711 18.0068 11.7794 17.9958C11.8478 17.9849 11.911 17.9526 11.96 17.9035L12.8922 16.971C13.6141 16.249 13.7408 15.3173 13.5762 15.0219C12.9125 15.5188 12.2167 15.9712 11.4933 16.3762C11.5271 16.7944 11.4956 17.2153 11.3999 17.6238C11.3902 17.6923 11.4023 17.762 11.4344 17.8232C11.4665 17.8844 11.5171 17.9339 11.579 17.9647Z" fill="#FFCE33"/>
<path d="M12.5435 10.0558C12.4052 10.1941 12.3111 10.3703 12.273 10.5622C12.2348 10.754 12.2544 10.9528 12.3292 11.1335C12.4041 11.3141 12.5308 11.4686 12.6933 11.5772C12.8559 11.6859 13.047 11.7439 13.2426 11.7439C13.4381 11.7439 13.6292 11.6859 13.7918 11.5772C13.9543 11.4686 14.081 11.3141 14.1559 11.1335C14.2307 10.9528 14.2503 10.754 14.2122 10.5622C14.174 10.3703 14.0799 10.1941 13.9416 10.0558C13.7561 9.87065 13.5047 9.76666 13.2426 9.76666C12.9804 9.76666 12.729 9.87065 12.5435 10.0558Z" fill="#FFCE33"/>
<path d="M17.2308 7.07043C17.2251 6.99165 17.1912 6.91757 17.1353 6.86171C17.0795 6.80586 17.0054 6.77195 16.9267 6.76617C16.1141 6.70881 15.298 6.80437 14.5206 7.04789C14.6061 7.6611 14.8947 8.22793 15.3402 8.65774C15.7779 9.10987 16.357 9.39872 16.9814 9.47635C17.2072 8.69566 17.2917 7.88087 17.2308 7.07043Z" fill="#FFCE33"/>
<path d="M14.8742 9.12376C14.3613 8.62562 14.0151 7.98088 13.8832 7.27807C11.9041 8.08983 10.0094 9.86308 8.51264 12.3535L9.25659 13.0977C9.76476 12.8912 10.3832 12.8369 10.7731 13.2281C11.1629 13.6192 11.1094 14.237 10.903 14.7445L11.6711 15.5128C13.5871 14.3578 15.8173 12.5382 16.7661 10.1174C16.0461 9.9951 15.3836 9.64714 14.8742 9.12376ZM14.4079 11.9209C14.1773 12.152 13.8834 12.3095 13.5633 12.3735C13.2432 12.4374 12.9113 12.4049 12.6097 12.2802C12.3081 12.1554 12.0502 11.9439 11.8688 11.6724C11.6874 11.401 11.5905 11.0818 11.5905 10.7553C11.5905 10.4288 11.6874 10.1097 11.8688 9.83822C12.0502 9.56679 12.3081 9.35529 12.6097 9.23051C12.9113 9.10572 13.2432 9.07325 13.5633 9.13721C13.8834 9.20117 14.1773 9.35868 14.4079 9.58981C14.7165 9.89915 14.8898 10.3183 14.8898 10.7553C14.8898 11.1923 14.7165 11.6115 14.4079 11.9209Z" fill="#FFCE33"/>
</g>
<defs>
<filter id="filter0_i_1699_6609" x="6" y="6.75" width="11.25" height="11.45" filterUnits="userSpaceOnUse" color-interpolation-filters="sRGB">
<feFlood flood-opacity="0" result="BackgroundImageFix"/>
<feBlend mode="normal" in="SourceGraphic" in2="BackgroundImageFix" result="shape"/>
<feColorMatrix in="SourceAlpha" type="matrix" values="0 0 0 0 0 0 0 0 0 0 0 0 0 0 0 0 0 0 127 0" result="hardAlpha"/>
<feOffset dy="0.2"/>
<feGaussianBlur stdDeviation="0.1"/>
<feComposite in2="hardAlpha" operator="arithmetic" k2="-1" k3="1"/>
<feColorMatrix type="matrix" values="0 0 0 0 0 0 0 0 0 0 0 0 0 0 0 0 0 0 0.5 0"/>
<feBlend mode="normal" in2="shape" result="effect1_innerShadow_1699_6609"/>
</filter>
</defs>
</svg>
