<svg width="22" height="22" viewBox="0 0 22 22" fill="none" xmlns="http://www.w3.org/2000/svg">
<path d="M13.5956 2.56656L14.4347 1.72749C15.4263 0.735858 17.1521 0.735858 18.1437 1.72749L18.8207 2.40446C19.3165 2.90028 19.593 3.55818 19.593 4.25423C19.593 4.95028 19.3165 5.61772 18.8207 6.104L17.9816 6.94307L13.5956 2.55702V2.56656ZM12.5849 3.57725L3.8986 12.2635C3.62209 12.54 3.45047 12.9024 3.42186 13.2933L3.16442 16.087C3.13581 16.4398 3.25977 16.7831 3.50767 17.0405C3.73651 17.2693 4.03209 17.3933 4.34674 17.3933H4.45163L7.24535 17.1359C7.63628 17.0977 7.9986 16.9261 8.27512 16.6496L16.9614 7.9633L12.5753 3.57725H12.5849ZM21.5 20.4349C21.5 20.044 21.1758 19.7198 20.7849 19.7198H1.71512C1.32419 19.7198 1 20.044 1 20.4349C1 20.8259 1.32419 21.15 1.71512 21.15H20.7849C21.1758 21.15 21.5 20.8259 21.5 20.4349Z" fill="#BCBBBD"/>
</svg>
