<svg width="22" height="22" viewBox="0 0 22 22" fill="none" xmlns="http://www.w3.org/2000/svg">
<g clip-path="url(#clip0_1707_6233)">
<path fill-rule="evenodd" clip-rule="evenodd" d="M6.09322 10.9997C6.09322 8.29518 8.29304 6.09446 11.0005 6.09446C13.705 6.09446 15.9048 8.29513 15.9048 10.9997C15.9048 13.7048 13.705 15.9046 11.0005 15.9046C8.29299 15.9046 6.09322 13.7048 6.09322 10.9997ZM0.126912 10.5317C-0.0423041 10.8378 -0.0423041 11.1616 0.126912 11.4679C2.32381 15.413 6.48997 17.8637 11.0005 17.8637C15.508 17.8637 19.6742 15.413 21.8711 11.4679C22.0432 11.1616 22.0432 10.8378 21.8711 10.5317C19.6742 6.58667 15.508 4.13623 11.0005 4.13623C6.48997 4.13623 2.32381 6.58667 0.126912 10.5317Z" fill="#BCBBBD"/>
<circle cx="11" cy="11" r="2.5" fill="#BCBBBD"/>
</g>
<defs>
<clipPath id="clip0_1707_6233">
<rect width="22" height="22" fill="white"/>
</clipPath>
</defs>
</svg>
