<svg width="22" height="22" viewBox="0 0 22 22" fill="none" xmlns="http://www.w3.org/2000/svg">
<path d="M5.43227 13.0862L4.73612 15.685L2.19172 15.7388C1.43131 14.3284 1 12.7148 1 11C1 9.34181 1.40327 7.77811 2.11809 6.40125H2.11863L4.38387 6.81654L5.37618 9.06818C5.16849 9.67367 5.05529 10.3236 5.05529 11C5.05537 11.734 5.18833 12.4373 5.43227 13.0862Z" fill="#FBBB00"/>
<path d="M20.8248 9.13196C20.9397 9.73686 20.9995 10.3616 20.9995 11C20.9995 11.7159 20.9243 12.4143 20.7809 13.0879C20.2941 15.3801 19.0222 17.3817 17.2601 18.7981L17.2596 18.7976L14.4064 18.652L14.0026 16.1312C15.1718 15.4455 16.0855 14.3724 16.5668 13.0879H11.2197V9.13196H16.6448H20.8248Z" fill="#518EF8"/>
<path d="M17.259 18.7975L17.2596 18.7981C15.5459 20.1755 13.369 20.9996 10.9993 20.9996C7.19123 20.9996 3.88037 18.8711 2.19141 15.7388L5.43196 13.0862C6.27642 15.3399 8.45053 16.9443 10.9993 16.9443C12.0949 16.9443 13.1213 16.6481 14.002 16.1311L17.259 18.7975Z" fill="#28B446"/>
<path d="M17.3825 3.30247L14.143 5.95457C13.2315 5.38483 12.1541 5.0557 10.9997 5.0557C8.39322 5.0557 6.17845 6.73365 5.37629 9.06821L2.11871 6.40127H2.11816C3.7824 3.1926 7.13502 1.00037 10.9997 1.00037C13.426 1.00037 15.6507 1.86463 17.3825 3.30247Z" fill="#F14336"/>
</svg>
