<svg width="48" height="48" viewBox="0 0 48 48" fill="none" xmlns="http://www.w3.org/2000/svg">
<path d="M24 4C12.95 4 4 12.95 4 24C4 35.05 12.95 44 24 44C35.05 44 44 35.05 44 24C44 12.95 35.05 4 24 4Z" fill="#4285F4"/>
<path d="M24 8C33.39 8 41 15.61 41 25C41 34.39 33.39 42 24 42C14.61 42 7 34.39 7 25C7 15.61 14.61 8 24 8Z" fill="white"/>
<path d="M24 12C30.63 12 36 17.37 36 24C36 30.63 30.63 36 24 36C17.37 36 12 30.63 12 24C12 17.37 17.37 12 24 12Z" fill="#34A853"/>
<path d="M19 24L22 27L29 20" stroke="white" stroke-width="2" stroke-linecap="round" stroke-linejoin="round"/>
</svg>