<svg width="24" height="24" viewBox="0 0 24 24" fill="none" xmlns="http://www.w3.org/2000/svg">
<path d="M22.56 12.25C22.56 11.47 22.49 10.72 22.36 10H12V14.26H17.92C17.66 15.63 16.91 16.79 15.81 17.56V20.58H19.36C21.38 18.73 22.56 15.78 22.56 12.25Z" fill="#4285F4"/>
<path d="M12 23C15.24 23 17.96 21.99 19.36 20.58L15.81 17.56C14.85 18.21 13.64 18.62 12 18.62C8.87 18.62 6.22 16.74 5.35 14.07H1.66V17.2C3.05 19.96 7.24 23 12 23Z" fill="#34A853"/>
<path d="M5.35 14.07C5.13 13.42 5 12.73 5 12S5.13 10.58 5.35 9.93V6.8H1.66C0.95 8.21 0.54 9.83 0.54 11.65C0.54 13.47 0.95 15.09 1.66 16.5L5.35 14.07Z" fill="#FBBC05"/>
<path d="M12 5.38C13.77 5.38 15.35 5.99 16.6 7.19L19.76 4.03C17.96 2.35 15.24 1.38 12 1.38C7.24 1.38 3.05 4.42 1.66 7.18L5.35 10.31C6.22 7.64 8.87 5.76 12 5.76V5.38Z" fill="#EB4335"/>
</svg>