<svg width="22" height="22" viewBox="0 0 22 22" fill="none" xmlns="http://www.w3.org/2000/svg">
<path d="M11 2.5C15.6986 2.5 19.5 6.30183 19.5 11C19.5 15.6986 15.6982 19.5 11 19.5C6.30141 19.5 2.5 15.6981 2.5 11C2.5 6.30141 6.30183 2.5 11 2.5ZM11 2.75586C6.45371 2.75586 2.75586 6.45367 2.75586 11C2.75586 15.5463 6.45371 19.2441 11 19.2441C15.5463 19.2441 19.2441 15.5463 19.2441 11C19.2441 6.45367 15.5463 2.75586 11 2.75586Z" fill="#BCBBBD" stroke="#BCBBBD"/>
<path d="M10.7334 13.8871C10.9548 13.8871 11.1455 14.0778 11.1455 14.2992C11.1455 14.5173 10.9582 14.7113 10.7334 14.7113C10.517 14.7113 10.333 14.526 10.333 14.2992C10.333 14.0693 10.5204 13.8871 10.7334 13.8871Z" fill="#BCBBBD" stroke="#BCBBBD"/>
<path d="M10.8877 6.98242C12.2428 6.98248 12.9111 7.70254 12.9111 8.4375C12.911 8.84018 12.7276 9.21355 12.4736 9.53711C12.2215 9.85829 11.9303 10.091 11.7773 10.21L11.7764 10.2109C11.4074 10.4994 11.1666 10.786 11.0391 11.1328C10.9236 11.4467 10.9209 11.7668 10.9209 12.0508C10.8858 12.0602 10.8238 12.0713 10.7217 12.0713C10.6606 12.0713 10.6202 12.0666 10.5947 12.0625C10.594 12.0594 10.5926 12.0563 10.5918 12.0527C10.5799 11.9996 10.5703 11.9135 10.5703 11.7783C10.5703 11.3469 10.6644 11.0534 10.7773 10.8457C10.8913 10.6362 11.0386 10.487 11.1875 10.3584C11.2742 10.2848 11.3701 10.2142 11.5 10.1133C11.6208 10.0194 11.7601 9.90692 11.8896 9.77832C12.1474 9.52235 12.4179 9.14995 12.418 8.63867C12.418 8.1979 12.2155 7.84436 11.8916 7.62012C11.589 7.41069 11.2114 7.33301 10.8516 7.33301C10.4859 7.33306 10.1885 7.40236 9.94336 7.53711C9.69743 7.67237 9.54479 7.85162 9.44043 7.99512C9.3972 8.05458 9.34234 8.13783 9.31934 8.1709C9.29174 8.21055 9.27332 8.2313 9.26172 8.24414C9.20414 8.24346 9.14229 8.22258 9.10352 8.19141C9.08651 8.17769 9.07517 8.16428 9.06836 8.15039C9.06196 8.13733 9.05377 8.11306 9.05371 8.07031C9.05371 7.7918 9.47099 6.98242 10.8877 6.98242Z" fill="#BCBBBD" stroke="#BCBBBD"/>
</svg>
