<svg width="20" height="20" viewBox="0 0 20 20" fill="none" xmlns="http://www.w3.org/2000/svg">
<path d="M12.777 16.0371V16.7234C12.777 17.2696 12.361 17.724 11.8197 17.8013L11.6442 18.4248C11.549 18.7632 11.2332 19 10.8673 19H9.12802C8.76211 19 8.44633 18.7632 8.3511 18.4248L8.18067 17.8013C7.63432 17.7191 7.2183 17.2696 7.2183 16.7186V16.0323C7.2183 15.6649 7.52405 15.3701 7.90499 15.3701H12.0903C12.4713 15.3749 12.777 15.6697 12.777 16.0371ZM16 6.78583C16 8.34704 15.3584 9.76324 14.3158 10.8024C13.5239 11.5951 13.0126 12.6053 12.8422 13.6832C12.767 14.1472 12.351 14.4904 11.8598 14.4904H8.13556C7.64936 14.4904 7.22832 14.152 7.15815 13.688C6.98271 12.6102 6.46644 11.5855 5.67448 10.7976C4.65195 9.77291 4.01538 8.38087 4.00034 6.84866C3.96526 3.62957 6.62182 1.02433 9.96007 1.00017C13.2933 0.976 16 3.57641 16 6.78583Z" fill="#484848"/>
</svg>
