<svg width="24" height="24" viewBox="0 0 381 381" fill="none" xmlns="http://www.w3.org/2000/svg">
<circle cx="190" cy="190" r="185" fill="#28282A"/>
<path d="M189.999 95C161.934 95.27 138.667 118.301 138.632 146.366V178.5C138.632 180.591 140.309 182.266 142.399 182.266H158.666C160.757 182.266 162.432 180.591 162.432 178.5V146.366C162.432 131.431 175.064 119 189.999 119C204.934 119 217.566 131.431 217.566 146.366V178.5C217.566 180.591 219.241 182.266 221.332 182.266H237.599C239.69 182.266 241.366 180.591 241.366 178.5V146.366C241.331 118.301 218.064 95.27 189.999 95Z" fill="#455A64"/>
<path d="M142.801 174.534H238.001C248.955 174.534 257.834 183.413 257.834 194.366V265.866C257.834 276.82 248.955 285.6 238.001 285.6H142.801C131.847 285.6 122.968 276.72 122.968 265.866V194.366C122.968 183.413 131.847 174.534 142.801 174.534Z" fill="#FFC107"/>
<path d="M210.234 218.166C210.28 207.213 201.438 198.096 190.484 198.05C179.53 198.004 170.414 206.846 170.368 217.8C170.335 225.771 174.817 232.699 181.602 235.858L178.541 257.278C178.234 259.447 179.743 261.454 181.913 261.761C182.097 261.787 182.281 261.8 182.468 261.8H198.334C200.425 261.822 202.118 260.164 202.141 258.074C202.142 257.871 202.129 257.67 202.1 257.47L199.038 236.05C205.741 232.895 210.19 226.062 210.234 218.166Z" fill="#455A64"/>
</svg>
