<svg width="163" height="25" viewBox="0 0 163 25" fill="none" xmlns="http://www.w3.org/2000/svg">
<path d="M47.1664 20L43.0567 5.32258H46.097L48.9067 16.2048L51.968 5.32258H54.4422L57.5244 16.2048L60.3341 5.32258H63.3744L59.2648 20H55.9728L53.2051 10.3129L50.4583 20H47.1664ZM65.963 15.8694C66.3264 17.1833 67.3119 17.8403 68.9194 17.8403C69.9538 17.8403 70.7366 17.4909 71.2678 16.7919L73.4485 18.05C72.4141 19.5457 70.8904 20.2935 68.8775 20.2935C67.1442 20.2935 65.7533 19.7694 64.7049 18.721C63.6565 17.6726 63.1323 16.3516 63.1323 14.7581C63.1323 13.1785 63.6495 11.8645 64.6839 10.8161C65.7184 9.75376 67.0463 9.22258 68.6678 9.22258C70.2055 9.22258 71.4705 9.75376 72.463 10.8161C73.4694 11.8785 73.9727 13.1925 73.9727 14.7581C73.9727 15.1075 73.9377 15.478 73.8678 15.8694H65.963ZM65.921 13.7726H71.2678C71.1141 13.0597 70.7926 12.5285 70.3033 12.179C69.828 11.8296 69.2829 11.6548 68.6678 11.6548C67.9409 11.6548 67.3399 11.8435 66.8646 12.221C66.3893 12.5844 66.0748 13.1016 65.921 13.7726ZM85.527 20H82.3819L78.5657 15.2403V20H75.8609V5.32258H78.5657V14.129L82.1722 9.51613H85.4012L81.1867 14.6952L85.527 20ZM88.405 15.8694C88.7685 17.1833 89.7539 17.8403 91.3615 17.8403C92.3959 17.8403 93.1787 17.4909 93.7099 16.7919L95.8905 18.05C94.8561 19.5457 93.3324 20.2935 91.3195 20.2935C89.5862 20.2935 88.1953 19.7694 87.147 18.721C86.0986 17.6726 85.5744 16.3516 85.5744 14.7581C85.5744 13.1785 86.0916 11.8645 87.126 10.8161C88.1604 9.75376 89.4883 9.22258 91.1099 9.22258C92.6475 9.22258 93.9125 9.75376 94.905 10.8161C95.9115 11.8785 96.4147 13.1925 96.4147 14.7581C96.4147 15.1075 96.3797 15.478 96.3099 15.8694H88.405ZM88.3631 13.7726H93.7099C93.5561 13.0597 93.2346 12.5285 92.7453 12.179C92.2701 11.8296 91.7249 11.6548 91.1099 11.6548C90.383 11.6548 89.7819 11.8435 89.3066 12.221C88.8314 12.5844 88.5168 13.1016 88.3631 13.7726ZM104.729 9.51613H107.622L103.806 20C103.261 21.5097 102.534 22.6 101.626 23.271C100.731 23.9559 99.6128 24.2634 98.2708 24.1935V21.6774C98.9977 21.6914 99.5708 21.5376 99.9902 21.2161C100.424 20.8946 100.766 20.3774 101.018 19.6645L96.7192 9.51613H99.6757L102.401 16.5613L104.729 9.51613ZM123.985 5.32258V8.09032H120.023V20H117.129V8.09032H113.187V5.32258H123.985ZM132.503 18.7C131.427 19.7624 130.113 20.2935 128.561 20.2935C127.009 20.2935 125.695 19.7624 124.619 18.7C123.557 17.6237 123.026 16.3097 123.026 14.7581C123.026 13.2065 123.557 11.8995 124.619 10.8371C125.695 9.76075 127.009 9.22258 128.561 9.22258C130.113 9.22258 131.427 9.76075 132.503 10.8371C133.579 11.8995 134.117 13.2065 134.117 14.7581C134.117 16.3097 133.579 17.6237 132.503 18.7ZM126.527 16.8339C127.072 17.379 127.75 17.6516 128.561 17.6516C129.372 17.6516 130.05 17.379 130.595 16.8339C131.14 16.2887 131.413 15.5968 131.413 14.7581C131.413 13.9194 131.14 13.2274 130.595 12.6823C130.05 12.1371 129.372 11.8645 128.561 11.8645C127.75 11.8645 127.072 12.1371 126.527 12.6823C125.996 13.2274 125.73 13.9194 125.73 14.7581C125.73 15.5968 125.996 16.2887 126.527 16.8339ZM144.953 18.7C143.876 19.7624 142.562 20.2935 141.011 20.2935C139.459 20.2935 138.145 19.7624 137.069 18.7C136.006 17.6237 135.475 16.3097 135.475 14.7581C135.475 13.2065 136.006 11.8995 137.069 10.8371C138.145 9.76075 139.459 9.22258 141.011 9.22258C142.562 9.22258 143.876 9.76075 144.953 10.8371C146.029 11.8995 146.567 13.2065 146.567 14.7581C146.567 16.3097 146.029 17.6237 144.953 18.7ZM138.977 16.8339C139.522 17.379 140.2 17.6516 141.011 17.6516C141.821 17.6516 142.499 17.379 143.044 16.8339C143.59 16.2887 143.862 15.5968 143.862 14.7581C143.862 13.9194 143.59 13.2274 143.044 12.6823C142.499 12.1371 141.821 11.8645 141.011 11.8645C140.2 11.8645 139.522 12.1371 138.977 12.6823C138.446 13.2274 138.18 13.9194 138.18 14.7581C138.18 15.5968 138.446 16.2887 138.977 16.8339ZM148.47 20V4.69355H151.175V20H148.47ZM156.064 12.4935C156.064 12.7731 156.245 13.0038 156.609 13.1855C156.986 13.3532 157.441 13.507 157.972 13.6468C158.503 13.7726 159.034 13.9403 159.565 14.15C160.096 14.3457 160.544 14.6812 160.907 15.1565C161.285 15.6317 161.473 16.2258 161.473 16.9387C161.473 18.0151 161.068 18.8468 160.257 19.4339C159.46 20.007 158.461 20.2935 157.259 20.2935C155.106 20.2935 153.638 19.4618 152.856 17.7984L155.204 16.4774C155.512 17.386 156.196 17.8403 157.259 17.8403C158.223 17.8403 158.706 17.5398 158.706 16.9387C158.706 16.6591 158.517 16.4355 158.139 16.2677C157.776 16.086 157.329 15.9253 156.798 15.7855C156.266 15.6457 155.735 15.471 155.204 15.2613C154.673 15.0516 154.219 14.7231 153.841 14.2758C153.478 13.8145 153.296 13.2414 153.296 12.5565C153.296 11.522 153.673 10.7113 154.428 10.1242C155.197 9.52312 156.148 9.22258 157.28 9.22258C158.132 9.22258 158.908 9.41828 159.607 9.80968C160.306 10.1871 160.858 10.7323 161.264 11.4452L158.957 12.7032C158.622 11.9903 158.063 11.6339 157.28 11.6339C156.93 11.6339 156.637 11.7108 156.399 11.8645C156.175 12.0183 156.064 12.228 156.064 12.4935Z" fill="#BCBBBD"/>
<path d="M26.0925 0L20.1711 22.2011H14.2984L10.5992 8.32542L9.76367 5.12129H14.4444L17.2326 15.5806L21.3917 0H26.0925Z" fill="#09CEA7"/>
<path d="M13.1722 5.12367L12.3358 8.32522L8.63219 22.2009H2.76168L0 11.8411H4.69862L5.69804 15.5804L8.48626 5.12109L13.1722 5.12367Z" fill="#09CEA7"/>
</svg>
