<svg width="22" height="22" viewBox="0 0 22 22" fill="none" xmlns="http://www.w3.org/2000/svg">
<path d="M15.5 3.5C17.1545 3.5 18.5 4.8455 18.5 6.5V15.5C18.5 17.1545 17.1545 18.5 15.5 18.5H6.5C4.8455 18.5 3.5 17.1545 3.5 15.5V6.5C3.5 4.8455 4.8455 3.5 6.5 3.5H15.5ZM15.5 2H6.5C4.0145 2 2 4.0145 2 6.5V15.5C2 17.9855 4.0145 20 6.5 20H15.5C17.9855 20 20 17.9855 20 15.5V6.5C20 4.0145 17.9855 2 15.5 2Z" fill="#BCBBBD"/>
<path d="M7.25 15.4998C6.836 15.4998 6.5 15.1646 6.5 14.7498V10.2498C6.5 9.83582 6.836 9.49982 7.25 9.49982C7.664 9.49982 8 9.83582 8 10.2498V14.7498C8 15.1646 7.664 15.4998 7.25 15.4998Z" fill="#BCBBBD"/>
<path d="M11.001 15.5C10.587 15.5 10.251 15.1647 10.251 14.75V7.25C10.251 6.836 10.587 6.5 11.001 6.5C11.415 6.5 11.751 6.836 11.751 7.25V14.75C11.751 15.1647 11.415 15.5 11.001 15.5Z" fill="#BCBBBD"/>
<path d="M14.749 15.4998C14.3343 15.4998 13.999 15.1646 13.999 14.7498V10.2498C13.999 9.83582 14.3343 9.49982 14.749 9.49982C15.1638 9.49982 15.499 9.83582 15.499 10.2498V14.7498C15.499 15.1646 15.1638 15.4998 14.749 15.4998Z" fill="#BCBBBD"/>
</svg>
