<svg width="22" height="22" viewBox="0 0 22 22" fill="none" xmlns="http://www.w3.org/2000/svg">
<path d="M6.48981 15.6785C5.75576 15.0159 5.22622 14.2215 4.87928 13.3686C3.95897 11.1062 4.38991 8.41545 6.18669 6.5594L7.8447 8.22142C7.936 8.31294 8.10034 8.24705 8.12225 8.1116L9.02794 2.17006C9.04255 2.07122 8.95855 1.98702 8.85995 2.00166L2.92911 2.90955C2.79399 2.93152 2.72825 3.09625 2.81955 3.18777L4.48121 4.85345C1.73856 7.66497 1.27111 11.8823 3.07154 15.177C3.61204 16.1691 4.36069 17.077 5.31386 17.8384C6.93535 19.1307 8.92934 19.7494 10.9087 19.7091L11.2812 17.2673C9.57574 17.4138 7.82278 16.8866 6.48981 15.6785Z" fill="white"/>
<path d="M17.5188 17.1466C20.2614 14.3351 20.7289 10.1178 18.9284 6.82302C18.3879 5.83094 17.6393 4.92305 16.6861 4.16159C15.0646 2.86932 13.0706 2.25064 11.0913 2.29091L10.7188 4.73268C12.4206 4.58625 14.1772 5.11341 15.5102 6.32149C16.2442 6.9841 16.7738 7.7785 17.1207 8.63147C18.041 10.8939 17.6101 13.5846 15.8133 15.4406L14.1553 13.7786C14.064 13.6871 13.8996 13.753 13.8777 13.8884L12.972 19.83C12.9574 19.9288 13.0414 20.013 13.14 19.9984L19.0709 19.0905C19.206 19.0685 19.2681 18.9038 19.1804 18.8123L17.5188 17.1466Z" fill="white"/>
</svg>
