<svg width="14" height="14" viewBox="0 0 14 14" fill="none" xmlns="http://www.w3.org/2000/svg">
<path d="M2.04382 8.97056C2.0052 9.04765 1.99181 9.13496 2.00556 9.22009C2.01931 9.30522 2.0595 9.38386 2.12043 9.44487L2.22057 9.54503C2.51048 9.20145 2.84796 8.82883 3.25754 8.41914C3.28658 8.39009 3.31612 8.37607 3.34516 8.34952L2.69975 7.70394C2.32622 8.38408 2.10641 8.84785 2.04382 8.97056Z" fill="#484848"/>
<path d="M2.04382 8.97056C2.0052 9.04765 1.99181 9.13496 2.00556 9.22009C2.01931 9.30522 2.0595 9.38386 2.12043 9.44487L2.22057 9.54503C2.51048 9.20145 2.84796 8.82883 3.25754 8.41914C3.28658 8.39009 3.31612 8.37607 3.34516 8.34952L2.69975 7.70394C2.32622 8.38408 2.10641 8.84785 2.04382 8.97056Z" fill="#484848"/>
<path d="M5.57787 10.7411C5.16729 11.1518 4.79577 11.4923 4.45429 11.7803L4.58998 11.9161C4.65143 11.9775 4.7308 12.0178 4.81665 12.0313C4.9025 12.0447 4.9904 12.0305 5.06765 11.9907C5.27995 11.881 5.61442 11.7237 6.32342 11.3291L5.64797 10.6534C5.62093 10.6825 5.60691 10.712 5.57787 10.7411Z" fill="#484848"/>
<path d="M5.57787 10.7411C5.16729 11.1518 4.79577 11.4923 4.45429 11.7803L4.58998 11.9161C4.65143 11.9775 4.7308 12.0178 4.81665 12.0313C4.9025 12.0447 4.9904 12.0305 5.06765 11.9907C5.27995 11.881 5.61442 11.7237 6.32342 11.3291L5.64797 10.6534C5.62093 10.6825 5.60691 10.712 5.57787 10.7411Z" fill="#484848"/>
<path d="M5.35905 8.64009C5.06263 8.34359 4.22895 8.60954 3.8374 9.0012C2.9685 9.80655 2.23657 10.7481 1.67035 11.7889C1.6326 11.8659 1.61992 11.9527 1.63409 12.0373C1.64825 12.1219 1.68856 12.1999 1.74935 12.2604C1.81013 12.3208 1.88833 12.3607 1.97295 12.3744C2.05758 12.3881 2.14437 12.375 2.22113 12.3368C3.25854 11.7662 4.19694 11.0317 5.00004 10.1616C5.43065 9.73092 5.64295 8.92207 5.36155 8.64059L5.35905 8.64009Z" fill="#484848"/>
<path d="M5.35905 8.64009C5.06263 8.34359 4.22895 8.60954 3.8374 9.0012C2.9685 9.80655 2.23657 10.7481 1.67035 11.7889C1.6326 11.8659 1.61992 11.9527 1.63409 12.0373C1.64825 12.1219 1.68856 12.1999 1.74935 12.2604C1.81013 12.3208 1.88833 12.3607 1.97295 12.3744C2.05758 12.3881 2.14437 12.375 2.22113 12.3368C3.25854 11.7662 4.19694 11.0317 5.00004 10.1616C5.43065 9.73092 5.64295 8.92207 5.36155 8.64059L5.35905 8.64009Z" fill="#484848"/>
<path d="M1.28077 5.46083L0.120632 6.62128C0.0566105 6.68509 0.0154559 6.76827 0.00356526 6.85788C-0.00832541 6.9475 0.00971388 7.03853 0.0548792 7.11684C0.100044 7.19514 0.169806 7.25632 0.253319 7.29088C0.336832 7.32544 0.42942 7.33144 0.51669 7.30793C1.01574 7.13933 1.54736 7.0901 2.06888 7.16419C2.57332 6.26177 3.14069 5.39601 3.76677 4.57335C3.41677 4.34997 2.26715 4.47417 1.28077 5.46083Z" fill="#484848"/>
<path d="M1.28077 5.46083L0.120632 6.62128C0.0566105 6.68509 0.0154559 6.76827 0.00356526 6.85788C-0.00832541 6.9475 0.00971388 7.03853 0.0548792 7.11684C0.100044 7.19514 0.169806 7.25632 0.253319 7.29088C0.336832 7.32544 0.42942 7.33144 0.51669 7.30793C1.01574 7.13933 1.54736 7.0901 2.06888 7.16419C2.57332 6.26177 3.14069 5.39601 3.76677 4.57335C3.41677 4.34997 2.26715 4.47417 1.28077 5.46083Z" fill="#484848"/>
<path d="M6.9427 13.9561C7.01969 13.9949 7.10697 14.0085 7.19211 13.9948C7.27725 13.9812 7.35591 13.941 7.41687 13.88L8.577 12.7195C9.47527 11.821 9.63299 10.6616 9.4282 10.2939C8.60222 10.9122 7.73629 11.4752 6.83606 11.9793C6.87816 12.4997 6.83896 13.0235 6.71989 13.5319C6.70781 13.617 6.72283 13.7038 6.76283 13.78C6.80282 13.8561 6.86575 13.9177 6.9427 13.9561Z" fill="#484848"/>
<path d="M6.9427 13.9561C7.01969 13.9949 7.10697 14.0085 7.19211 13.9948C7.27725 13.9812 7.35591 13.941 7.41687 13.88L8.577 12.7195C9.47527 11.821 9.63299 10.6616 9.4282 10.2939C8.60222 10.9122 7.73629 11.4752 6.83606 11.9793C6.87816 12.4997 6.83896 13.0235 6.71989 13.5319C6.70781 13.617 6.72283 13.7038 6.76283 13.78C6.80282 13.8561 6.86575 13.9177 6.9427 13.9561Z" fill="#484848"/>
<path d="M8.14299 4.11393C7.97095 4.28604 7.8538 4.50531 7.80635 4.74401C7.75889 4.98271 7.78327 5.23012 7.87639 5.45497C7.96951 5.67981 8.12719 5.87199 8.3295 6.0072C8.5318 6.14241 8.76965 6.21457 9.01296 6.21457C9.25626 6.21457 9.49412 6.14241 9.69643 6.0072C9.89873 5.87199 10.0564 5.67981 10.1495 5.45497C10.2427 5.23012 10.267 4.98271 10.2196 4.74401C10.1721 4.50531 10.055 4.28604 9.88294 4.11393C9.65203 3.88348 9.33915 3.75406 9.01296 3.75406C8.68677 3.75406 8.3739 3.88348 8.14299 4.11393Z" fill="#484848"/>
<path d="M8.14299 4.11393C7.97095 4.28604 7.8538 4.50531 7.80635 4.74401C7.75889 4.98271 7.78327 5.23012 7.87639 5.45497C7.96951 5.67981 8.12719 5.87199 8.3295 6.0072C8.5318 6.14241 8.76965 6.21457 9.01296 6.21457C9.25626 6.21457 9.49412 6.14241 9.69643 6.0072C9.89873 5.87199 10.0564 5.67981 10.1495 5.45497C10.2427 5.23012 10.267 4.98271 10.2196 4.74401C10.1721 4.50531 10.055 4.28604 9.88294 4.11393C9.65203 3.88348 9.33915 3.75406 9.01296 3.75406C8.68677 3.75406 8.3739 3.88348 8.14299 4.11393Z" fill="#484848"/>
<path d="M13.9762 0.39876C13.969 0.30072 13.9268 0.208533 13.8573 0.139022C13.7878 0.0695115 13.6956 0.0273117 13.5976 0.020124C12.5864 -0.0512612 11.5708 0.0676566 10.6034 0.370713C10.7098 1.13381 11.0689 1.8392 11.6233 2.37408C12.168 2.93673 12.8887 3.29618 13.6657 3.39279C13.9468 2.42126 14.0519 1.4073 13.9762 0.39876Z" fill="#484848"/>
<path d="M13.9762 0.39876C13.969 0.30072 13.9268 0.208533 13.8573 0.139022C13.7878 0.0695115 13.6956 0.0273117 13.5976 0.020124C12.5864 -0.0512612 11.5708 0.0676566 10.6034 0.370713C10.7098 1.13381 11.0689 1.8392 11.6233 2.37408C12.168 2.93673 12.8887 3.29618 13.6657 3.39279C13.9468 2.42126 14.0519 1.4073 13.9762 0.39876Z" fill="#484848"/>
<path d="M11.0435 2.95401C10.4052 2.33411 9.9744 1.53176 9.81025 0.65715C7.34728 1.66735 4.98946 3.87405 3.12684 6.97325L4.05264 7.89931C4.68503 7.64238 5.45462 7.57476 5.9398 8.06158C6.42498 8.5484 6.35839 9.31719 6.10153 9.94875L7.05737 10.9049C9.44173 9.46744 12.2171 7.20314 13.3978 4.19058C12.5019 4.03835 11.6774 3.60533 11.0435 2.95401ZM10.4632 6.43485C10.1762 6.72247 9.81046 6.91849 9.41212 6.99808C9.01377 7.07767 8.60078 7.03727 8.2254 6.88198C7.85003 6.72669 7.52915 6.46349 7.30338 6.12571C7.07761 5.78793 6.9571 5.39074 6.9571 4.98441C6.9571 4.57809 7.07761 4.1809 7.30338 3.84312C7.52915 3.50534 7.85003 3.24214 8.2254 3.08685C8.60078 2.93156 9.01377 2.89116 9.41212 2.97075C9.81046 3.05034 10.1762 3.24636 10.4632 3.53398C10.8472 3.91895 11.0629 4.44058 11.0629 4.98441C11.0629 5.52825 10.8472 6.04988 10.4632 6.43485Z" fill="#484848"/>
<path d="M11.0435 2.95401C10.4052 2.33411 9.9744 1.53176 9.81025 0.65715C7.34728 1.66735 4.98946 3.87405 3.12684 6.97325L4.05264 7.89931C4.68503 7.64238 5.45462 7.57476 5.9398 8.06158C6.42498 8.5484 6.35839 9.31719 6.10153 9.94875L7.05737 10.9049C9.44173 9.46744 12.2171 7.20314 13.3978 4.19058C12.5019 4.03835 11.6774 3.60533 11.0435 2.95401ZM10.4632 6.43485C10.1762 6.72247 9.81046 6.91849 9.41212 6.99808C9.01377 7.07767 8.60078 7.03727 8.2254 6.88198C7.85003 6.72669 7.52915 6.46349 7.30338 6.12571C7.07761 5.78793 6.9571 5.39074 6.9571 4.98441C6.9571 4.57809 7.07761 4.1809 7.30338 3.84312C7.52915 3.50534 7.85003 3.24214 8.2254 3.08685C8.60078 2.93156 9.01377 2.89116 9.41212 2.97075C9.81046 3.05034 10.1762 3.24636 10.4632 3.53398C10.8472 3.91895 11.0629 4.44058 11.0629 4.98441C11.0629 5.52825 10.8472 6.04988 10.4632 6.43485Z" fill="#484848"/>
</svg>
