<svg width="30" height="30" viewBox="0 0 30 30" fill="none" xmlns="http://www.w3.org/2000/svg">
<path d="M22.1766 8.52297H12.3235C11.8099 8.4633 11.2896 8.52055 10.8013 8.69045C10.3131 8.86034 9.86958 9.13847 9.50403 9.50403C9.13847 9.86958 8.86034 10.3131 8.69045 10.8013C8.52055 11.2896 8.4633 11.8099 8.52297 12.3235V22.1766C8.4633 22.6901 8.52055 23.2105 8.69045 23.6987C8.86034 24.187 9.13847 24.6305 9.50403 24.996C9.86958 25.3616 10.3131 25.6397 10.8013 25.8096C11.2896 25.9795 11.8099 26.0368 12.3235 25.9771H22.1766C22.6901 26.0368 23.2105 25.9795 23.6987 25.8096C24.187 25.6397 24.6305 25.3616 24.996 24.996C25.3616 24.6305 25.6397 24.187 25.8096 23.6987C25.9795 23.2105 26.0368 22.6901 25.9771 22.1766V12.3235C26.0368 11.8099 25.9795 11.2896 25.8096 10.8013C25.6397 10.3131 25.3616 9.86958 24.996 9.50403C24.6305 9.13847 24.187 8.86034 23.6987 8.69045C23.2105 8.52055 22.6901 8.4633 22.1766 8.52297ZM24.288 22.1766C24.288 23.6765 23.6765 24.288 22.1766 24.288H12.3235C10.8235 24.288 10.2121 23.6765 10.2121 22.1766V12.3235C10.2121 10.8235 10.8235 10.2121 12.3235 10.2121H22.1766C23.6765 10.2121 24.288 10.8235 24.288 12.3235V22.1766ZM5.70779 7.81354V17.6779C5.70779 19.0292 6.25168 19.3592 6.43072 19.4684C6.61322 19.5895 6.74163 19.7766 6.78894 19.9904C6.83626 20.2042 6.79878 20.4281 6.68439 20.6148C6.57001 20.8016 6.38764 20.9367 6.17567 20.9917C5.96369 21.0467 5.73865 21.0173 5.54788 20.9098C5.02584 20.5584 4.60825 20.0728 4.33912 19.504C4.06999 18.9352 3.95928 18.3044 4.01868 17.6779V7.81354C3.96528 7.30207 4.02673 6.78513 4.19856 6.30043C4.37039 5.81574 4.64825 5.37552 5.01189 5.01189C5.37552 4.64825 5.81574 4.37039 6.30043 4.19856C6.78513 4.02673 7.30207 3.96528 7.81354 4.01868H17.6779C18.3045 3.95855 18.9356 4.06892 19.5045 4.33812C20.0734 4.60731 20.559 5.02532 20.9098 5.54788C20.9677 5.64245 21.0065 5.74751 21.0239 5.85706C21.0412 5.96662 21.0369 6.07852 21.011 6.18638C20.9851 6.29424 20.9382 6.39594 20.873 6.48569C20.8079 6.57543 20.7256 6.65146 20.6311 6.70943C20.5365 6.7674 20.4314 6.80617 20.3219 6.82354C20.2123 6.8409 20.1004 6.83652 19.9926 6.81064C19.8847 6.78476 19.783 6.73789 19.6933 6.6727C19.6035 6.60752 19.5275 6.52529 19.4695 6.43072C19.3569 6.25168 19.027 5.70779 17.6779 5.70779H7.81354C6.31812 5.70779 5.70779 6.31812 5.70779 7.81354Z" fill="#BCBBBD"/>
</svg>
