<svg width="30" height="30" viewBox="0 0 30 30" fill="none" xmlns="http://www.w3.org/2000/svg">
<path d="M22.6733 19.126C24.0224 16.909 24.5122 14.2744 24.0498 11.7207C23.5875 9.16705 22.2052 6.87132 20.1644 5.26781C18.1236 3.6643 15.5659 2.86421 12.975 3.01887C10.384 3.17354 7.93965 4.27224 6.10416 6.10715C4.2704 7.94274 3.17275 10.3865 3.01873 12.9763C2.8647 15.5662 3.66497 18.1228 5.26825 20.1627C6.87153 22.2027 9.16672 23.5846 11.7199 24.0474C14.2731 24.5101 16.9074 24.0215 19.1248 22.674L22.7164 26.2651C23.187 26.7357 23.8252 27 24.4907 27C25.1562 27 25.7945 26.7357 26.265 26.2651C26.7356 25.7946 27 25.1565 27 24.4911C27 23.8256 26.7356 23.1875 26.265 22.717L22.6733 19.126ZM7.49639 19.7183C6.69396 18.916 6.05743 17.9635 5.62315 16.9152C5.18887 15.8669 4.96535 14.7434 4.96535 13.6088C4.96535 12.4741 5.18887 11.3506 5.62315 10.3023C6.05743 9.25399 6.69396 8.3015 7.49639 7.49918C9.11697 5.87883 11.3149 4.96852 13.6068 4.96852C15.8986 4.96852 18.0966 5.87883 19.7172 7.49918C21.3378 9.11954 22.2482 11.3172 22.2482 13.6088C22.2482 15.9003 21.3378 18.098 19.7172 19.7183C16.3479 23.0871 10.8656 23.0871 7.49639 19.7183ZM24.8727 24.8731C24.7705 24.9727 24.6334 25.0284 24.4907 25.0284C24.3479 25.0284 24.2109 24.9727 24.1086 24.8731L20.7177 21.4827C20.8509 21.3623 20.9814 21.2382 21.1094 21.1104C21.2373 20.9826 21.3615 20.852 21.4819 20.7187L24.8727 24.1091C24.973 24.211 25.0291 24.3482 25.0291 24.4911C25.0291 24.634 24.973 24.7712 24.8727 24.8731ZM18.0626 10.5692C18.154 10.6606 18.2265 10.7691 18.276 10.8885C18.3255 11.0079 18.351 11.136 18.351 11.2652C18.351 11.3945 18.3255 11.5225 18.276 11.6419C18.2265 11.7613 18.154 11.8699 18.0626 11.9613L13.3748 16.6484C13.2834 16.7398 13.1748 16.8123 13.0554 16.8618C12.936 16.9113 12.8079 16.9367 12.6787 16.9367C12.5494 16.9367 12.4213 16.9113 12.3019 16.8618C12.1825 16.8123 12.0739 16.7398 11.9825 16.6484L9.15076 13.817C8.96613 13.6324 8.86241 13.382 8.86241 13.121C8.86241 12.8599 8.96613 12.6095 9.15076 12.4249C9.33539 12.2403 9.5858 12.1366 9.8469 12.1366C10.108 12.1366 10.3584 12.2403 10.543 12.4249L12.6787 14.5603L16.6703 10.5693C16.7617 10.4779 16.8702 10.4053 16.9897 10.3559C17.1091 10.3064 17.2371 10.2809 17.3664 10.2809C17.4957 10.2809 17.6237 10.3063 17.7432 10.3558C17.8626 10.4053 17.9712 10.4778 18.0626 10.5692Z" fill="#BCBBBD"/>
</svg>
