<svg width="30" height="30" viewBox="0 0 30 30" fill="none" xmlns="http://www.w3.org/2000/svg">
<path d="M4.94641 12.2664C4.4406 12.2664 4.03125 11.8566 4.03125 11.3513V6.78435C4.03125 5.26546 5.26727 4.0299 6.7857 4.0299H12.2677C12.7735 4.0299 13.1829 4.43971 13.1829 4.94506C13.1829 5.45041 12.7735 5.86022 12.2677 5.86022H6.7857C6.27623 5.86031 5.86157 6.27497 5.86157 6.78435V11.3512C5.86157 11.8566 5.45222 12.2664 4.94641 12.2664Z" fill="#BCBBBD"/>
<path d="M23.3094 25.9925H17.755C17.2492 25.9925 16.8398 25.5827 16.8398 25.0773C16.8398 24.572 17.2492 24.1622 17.755 24.1622H23.3094C23.784 24.1622 24.17 23.7761 24.17 23.3016V18.6712C24.17 18.1659 24.5794 17.756 25.0852 17.756C25.591 17.756 26.0003 18.1659 26.0003 18.6712V23.3016C26.0004 24.7856 24.793 25.9925 23.3094 25.9925Z" fill="#BCBBBD"/>
<path d="M12.2677 25.9898H6.74635C5.24942 25.9898 4.03125 24.7717 4.03125 23.2743V18.6686C4.03125 18.1632 4.4406 17.7534 4.94641 17.7534C5.45222 17.7534 5.86157 18.1632 5.86157 18.6686V23.2743C5.86157 23.7623 6.25839 24.1595 6.74635 24.1595H12.2677C12.7735 24.1595 13.1829 24.5693 13.1829 25.0747C13.1829 25.58 12.7735 25.9898 12.2677 25.9898Z" fill="#BCBBBD"/>
<path d="M25.0777 12.2664C24.5719 12.2664 24.1625 11.8566 24.1625 11.3513V6.74509C24.1625 6.25713 23.7657 5.86031 23.2777 5.86031H17.7609C17.2551 5.86031 16.8457 5.45051 16.8457 4.94515C16.8457 4.4398 17.2551 4.02999 17.7609 4.02999H23.2777C24.7747 4.02999 25.9928 5.24816 25.9928 6.74509V11.3513C25.9928 11.8566 25.5836 12.2664 25.0777 12.2664Z" fill="#BCBBBD"/>
<path d="M12.277 15.9449H8.60657C8.10076 15.9449 7.69141 15.5351 7.69141 15.0298C7.69141 14.5244 8.10076 14.1146 8.60657 14.1146H12.277C12.7828 14.1146 13.1922 14.5244 13.1922 15.0298C13.1922 15.5351 12.7829 15.9449 12.277 15.9449Z" fill="#BCBBBD"/>
<path d="M21.4181 15.9239C20.9123 15.9239 20.5029 15.5141 20.5029 15.0087V13.1815C20.5029 12.6762 20.9123 12.2664 21.4181 12.2664C21.9239 12.2664 22.3333 12.6762 22.3333 13.1815V15.0087C22.3333 15.5142 21.9239 15.9239 21.4181 15.9239Z" fill="#BCBBBD"/>
<path d="M21.4188 11.3387C20.913 11.3387 20.5036 10.9289 20.5036 10.4236V9.52096H15.0001C14.4943 9.52096 14.085 9.11115 14.085 8.6058C14.085 8.10045 14.4943 7.69064 15.0001 7.69064H21.4188C21.9246 7.69064 22.334 8.10045 22.334 8.6058V10.4236C22.334 10.9289 21.9246 11.3387 21.4188 11.3387Z" fill="#BCBBBD"/>
<path d="M12.2666 13.1565H8.63098C8.12517 13.1565 7.71582 12.7467 7.71582 12.2414V8.6058C7.71582 8.10045 8.12517 7.69064 8.63098 7.69064H12.2666C12.7725 7.69064 13.1818 8.10045 13.1818 8.6058V12.2415C13.1818 12.7468 12.7725 13.1565 12.2666 13.1565ZM9.54614 11.3262H11.3515V9.52087H9.54614V11.3262Z" fill="#BCBBBD"/>
<path d="M12.2666 22.3082H8.63098C8.12517 22.3082 7.71582 21.8983 7.71582 21.393V17.7573C7.71582 17.252 8.12517 16.8422 8.63098 16.8422H12.2666C12.7725 16.8422 13.1818 17.252 13.1818 17.7573V21.393C13.1818 21.8984 12.7725 22.3082 12.2666 22.3082ZM9.54614 20.4778H11.3515V18.6725H9.54614V20.4778Z" fill="#BCBBBD"/>
<path d="M18.6788 15.9257H15.0333C14.5275 15.9257 14.1182 15.5159 14.1182 15.0106V11.3646C14.1182 10.8593 14.5275 10.4495 15.0333 10.4495H18.6788C19.1846 10.4495 19.5939 10.8593 19.5939 11.3646V15.0106C19.5939 15.5159 19.1846 15.9257 18.6788 15.9257ZM15.9485 14.0954H17.7636V12.2798H15.9485V14.0954Z" fill="#BCBBBD"/>
<path d="M18.6789 19.5864H15.0353C14.5295 19.5864 14.1201 19.1766 14.1201 18.6712V17.7574C14.1201 17.2521 14.5295 16.8423 15.0353 16.8423C15.5403 16.8423 15.9495 17.2511 15.9504 17.756H17.7637C17.7647 17.2511 18.1739 16.8423 18.6789 16.8423C19.1847 16.8423 19.5941 17.2521 19.5941 17.7574V18.6712C19.5941 19.1766 19.1847 19.5864 18.6789 19.5864Z" fill="#BCBBBD"/>
<path d="M21.4186 22.3319H19.5909C19.0851 22.3319 18.6758 21.922 18.6758 21.4167C18.6758 20.9113 19.0851 20.5015 19.5909 20.5015H20.5035V17.8418C20.5035 17.3364 20.9128 16.9266 21.4186 16.9266C21.9244 16.9266 22.3338 17.3364 22.3338 17.8418V21.4167C22.3338 21.922 21.9244 22.3319 21.4186 22.3319Z" fill="#BCBBBD"/>
<path d="M16.8529 22.3319H15.0118C14.506 22.3319 14.0967 21.922 14.0967 21.4167C14.0967 20.9113 14.506 20.5015 15.0118 20.5015H16.8529C17.3587 20.5015 17.768 20.9113 17.768 21.4167C17.768 21.922 17.3588 22.3319 16.8529 22.3319Z" fill="#BCBBBD"/>
</svg>
