<svg width="30" height="30" viewBox="0 0 30 30" fill="none" xmlns="http://www.w3.org/2000/svg">
<path d="M15.159 27.3226C14.7709 27.323 14.3881 27.2333 14.0406 27.0604L9.69636 24.8882C8.07645 24.0852 6.71396 22.8443 5.7634 21.3063C4.81285 19.7683 4.31226 17.9947 4.31842 16.1867V9.85701C4.31711 9.15209 4.56025 8.46853 5.00641 7.92278C5.45257 7.37704 6.07415 7.00286 6.76525 6.86401C7.81577 6.658 8.84067 6.33797 9.82175 5.90959C11.0596 5.3684 12.2168 4.65882 13.2605 3.80098C13.7961 3.36283 14.4667 3.12344 15.1587 3.12344C15.8507 3.12344 16.5214 3.36283 17.057 3.80098C18.1012 4.65871 19.2587 5.36845 20.4968 5.91017C21.4779 6.33835 22.5028 6.6582 23.5532 6.86404C24.2442 7.00317 24.8655 7.37744 25.3116 7.92313C25.7576 8.46882 26.0007 9.15222 25.9996 9.85701V16.1867C26.0057 17.9947 25.5051 19.7682 24.5545 21.3062C23.604 22.8442 22.2415 24.0851 20.6217 24.8882L16.2774 27.0604C15.93 27.2333 15.5471 27.3231 15.159 27.3226ZM15.159 4.79014C14.8526 4.78971 14.5556 4.89563 14.3186 5.08982C13.1563 6.04488 11.8678 6.83501 10.4895 7.43785C9.39696 7.91492 8.25553 8.27119 7.08557 8.50031C6.77373 8.5645 6.49378 8.73476 6.29334 8.98211C6.0929 9.22947 5.98436 9.53864 5.9862 9.85701V16.1867C5.98104 17.6848 6.3958 19.1543 7.18343 20.4286C7.97106 21.703 9.10004 22.7311 10.4423 23.3964L14.786 25.5685C14.9021 25.6258 15.0298 25.6556 15.1593 25.6556C15.2887 25.6556 15.4165 25.6258 15.5325 25.5685L19.8768 23.3964C21.2188 22.7309 22.3475 21.7027 23.135 20.4284C23.9224 19.1541 24.337 17.6846 24.3318 16.1867V9.85701C24.3337 9.53856 24.225 9.22932 24.0245 8.98195C23.8239 8.73458 23.5439 8.56437 23.2319 8.50031C22.0624 8.27111 20.9213 7.91502 19.829 7.43836C18.4504 6.83526 17.1616 6.04496 15.9989 5.08979C15.7621 4.89554 15.4652 4.78961 15.159 4.79014Z" fill="#BCBBBD"/>
<path d="M16.2724 19.9946H15.1606C14.9394 19.9945 14.7274 19.9066 14.571 19.7503C14.4146 19.5939 14.3268 19.3818 14.3267 19.1607V15.5471H14.0487C13.8276 15.5471 13.6155 15.4593 13.4591 15.3029C13.3027 15.1465 13.2148 14.9344 13.2148 14.7132C13.2148 14.4921 13.3027 14.28 13.4591 14.1236C13.6155 13.9672 13.8276 13.8793 14.0487 13.8793H15.1606C15.3817 13.8794 15.5938 13.9673 15.7502 14.1237C15.9066 14.28 15.9944 14.4921 15.9945 14.7132V18.3268H16.2724C16.4936 18.3268 16.7057 18.4146 16.8621 18.571C17.0185 18.7274 17.1063 18.9395 17.1063 19.1607C17.1063 19.3818 17.0185 19.5939 16.8621 19.7503C16.7057 19.9067 16.4936 19.9946 16.2724 19.9946Z" fill="#BCBBBD"/>
<path d="M15.159 12.2116C15.8499 12.2116 16.4099 11.6515 16.4099 10.9607C16.4099 10.2699 15.8499 9.70988 15.159 9.70988C14.4682 9.70988 13.9082 10.2699 13.9082 10.9607C13.9082 11.6515 14.4682 12.2116 15.159 12.2116Z" fill="#BCBBBD"/>
</svg>
