<svg width="30" height="30" viewBox="0 0 30 30" fill="none" xmlns="http://www.w3.org/2000/svg">
<path d="M9.75536 4.56819C9.43349 3.79929 8.17903 3.79929 7.85579 4.56819L4.07455 13.5543C3.85172 14.0811 4.09655 14.6905 4.62199 14.9133C5.14193 15.1361 5.75128 14.8899 5.97273 14.3617L6.86543 12.2449H10.7485L11.6398 14.3617C11.8062 14.7579 12.1872 14.9945 12.5889 14.9945C12.7237 14.9945 12.8599 14.9683 12.9905 14.9133C13.516 14.6905 13.7608 14.0811 13.538 13.5543L9.75536 4.56819ZM7.73337 10.1816L8.80626 7.6328L9.87915 10.1816H7.73337Z" fill="#A8A7A8"/>
<path d="M17.4027 8.8069C19.4893 8.8069 21.1853 10.5029 21.1853 12.5895C21.1853 13.159 21.6475 13.6211 22.217 13.6211C22.7864 13.6211 23.2486 13.159 23.2486 12.5895C23.2486 9.36673 20.6269 6.74365 17.4027 6.74365C16.8333 6.74365 16.3711 7.20582 16.3711 7.77528C16.3711 8.34473 16.8333 8.8069 17.4027 8.8069Z" fill="#A8A7A8"/>
<path d="M12.59 21.1872C10.5034 21.1872 8.80739 19.4912 8.80739 17.4046C8.80739 16.8351 8.34522 16.373 7.77576 16.373C7.20631 16.373 6.74414 16.8351 6.74414 17.4046C6.74414 20.6274 9.36584 23.2504 12.59 23.2504C13.1595 23.2504 13.6216 22.7883 13.6216 22.2188C13.6216 21.6494 13.1595 21.1872 12.59 21.1872Z" fill="#A8A7A8"/>
<path d="M25.3409 24.0067L23.3162 23.2199C23.1429 23.1525 22.9833 23.0659 22.821 22.9833C23.7412 21.9022 24.3519 20.5748 24.5473 19.1223H24.9682C25.5376 19.1223 25.9998 18.6601 25.9998 18.0907C25.9998 17.5212 25.5376 17.0591 24.9682 17.0591H22.2172V16.0274C22.2172 15.458 21.755 14.9958 21.1855 14.9958C20.6161 14.9958 20.1539 15.458 20.1539 16.0274V17.0591H17.4029C16.8335 17.0591 16.3713 17.5212 16.3713 18.0907C16.3713 18.6601 16.8335 19.1223 17.4029 19.1223H17.8238C18.0191 20.5748 18.6299 21.9008 19.5501 22.9833C19.3878 23.0659 19.2282 23.1525 19.0549 23.2199L17.0302 24.0067C16.4978 24.213 16.2351 24.8114 16.4414 25.3423C16.601 25.7495 16.9916 25.9998 17.4043 25.9998C17.5295 25.9998 17.656 25.9778 17.7771 25.9297L19.8018 25.1429C20.2983 24.9503 20.7523 24.6945 21.1855 24.4139C21.6188 24.6945 22.0727 24.9489 22.5693 25.1429L24.594 25.9297C24.7164 25.9778 24.843 25.9998 24.9668 25.9998C25.3794 25.9998 25.7701 25.7495 25.9283 25.3423C26.136 24.8114 25.8732 24.213 25.3409 24.0067ZM22.4551 19.1223C22.2708 20.103 21.8307 20.9985 21.1855 21.7289C20.5391 20.9985 20.1003 20.103 19.916 19.1223H22.4551Z" fill="#A8A7A8"/>
</svg>
