<svg width="22" height="22" viewBox="0 0 22 22" fill="none" xmlns="http://www.w3.org/2000/svg">
<path d="M14.9826 3.43994H7.45632C5.23787 3.43994 3.43945 5.23835 3.43945 7.45681V14.9831C3.43945 17.2016 5.23787 19 7.45632 19H14.9826C17.2011 19 18.9995 17.2016 18.9995 14.9831V7.45681C18.9995 5.23835 17.2011 3.43994 14.9826 3.43994Z" fill="url(#paint0_linear_1672_6488)"/>
<path d="M11.2195 5.56775C10.2476 5.56791 9.29299 5.82402 8.45157 6.31031C7.61016 6.79659 6.91165 7.4959 6.42634 8.33788C5.94102 9.17985 5.68601 10.1348 5.68697 11.1066C5.68793 12.0785 5.94481 13.0329 6.43178 13.8739L5.67969 16.7529L8.60618 15.9778C9.34769 16.3749 10.17 16.5978 11.0106 16.6294C11.8511 16.661 12.6878 16.5005 13.4571 16.1601C14.2263 15.8198 14.9078 15.3085 15.4498 14.6652C15.9917 14.0219 16.3799 13.2635 16.5847 12.4476C16.7895 11.6318 16.8056 10.78 16.6317 9.95697C16.4578 9.13397 16.0986 8.36144 15.5813 7.69813C15.0641 7.03481 14.4024 6.49818 13.6465 6.12902C12.8907 5.75987 12.0606 5.56791 11.2195 5.56775ZM14.4732 14.3546C13.7303 15.0971 12.7559 15.5633 11.7116 15.6758C10.6673 15.7884 9.61591 15.5405 8.73187 14.9733L7.03179 15.4242L7.46634 13.7636C6.95869 13.0482 6.6661 12.2026 6.62303 11.3265C6.57996 10.4503 6.78821 9.58008 7.22324 8.81834C7.65828 8.0566 8.30197 7.43507 9.07848 7.02698C9.85499 6.61888 10.732 6.44124 11.6061 6.51496C12.4802 6.58869 13.315 6.91071 14.0122 7.4431C14.7094 7.97549 15.2399 8.69605 15.5412 9.5199C15.8425 10.3437 15.902 11.2365 15.7128 12.0931C15.5236 12.9497 15.0935 13.7343 14.4732 14.3546Z" fill="white"/>
<path d="M13.9927 12.5497C13.9929 12.6406 13.9852 12.7315 13.9696 12.8211C13.9549 12.9119 13.9325 13.0014 13.9027 13.0885C13.8342 13.282 13.4598 13.519 13.4598 13.519C13.1938 13.6961 12.8759 13.7785 12.5573 13.753C12.4826 13.7454 12.4084 13.7336 12.335 13.7176C12.2107 13.6898 12.1502 13.6721 12.1502 13.6721C12.09 13.6544 11.9339 13.6053 11.9339 13.6053C11.7778 13.5565 11.7427 13.5471 11.7427 13.5471C11.5056 13.4758 11.2758 13.3822 11.0565 13.2673C10.5507 12.9926 9.99986 12.5002 9.99986 12.5002C9.67371 12.2102 9.37884 11.8869 9.12008 11.5355C8.98244 11.3298 8.86384 11.1119 8.76576 10.8847C8.75238 10.8513 8.68653 10.7012 8.68653 10.7012C8.61968 10.5514 8.59628 10.4936 8.59628 10.4936C8.57222 10.4354 8.52943 10.3151 8.52943 10.3151C8.50502 10.2441 8.48504 10.1716 8.4696 10.0982C8.4573 10.0319 8.44904 9.96489 8.44486 9.8976C8.42547 9.54595 8.60029 9.17592 8.60029 9.17592C8.7925 8.77814 8.97902 8.68722 8.97902 8.68722C9.06244 8.64957 9.14845 8.61796 9.2364 8.59262C9.32346 8.56562 9.41307 8.5477 9.50381 8.53914C9.53098 8.53648 9.5584 8.53886 9.58471 8.54616C9.6549 8.56521 9.80365 8.82527 9.80365 8.82527C9.84978 8.89547 9.92967 9.02583 9.92967 9.02583C10.0099 9.15553 10.0771 9.25982 10.0771 9.25982C10.1439 9.36511 10.2068 9.45737 10.2068 9.45737C10.2191 9.47208 10.279 9.54929 10.279 9.54929C10.3118 9.59083 10.3418 9.63462 10.3686 9.68032C10.3869 9.71342 10.3983 9.74995 10.402 9.78762C10.406 9.86417 10.3037 9.98484 10.3037 9.98484C10.2342 10.0647 10.1589 10.1394 10.0784 10.2081C9.99895 10.2755 9.9236 10.3476 9.85279 10.4241C9.74983 10.537 9.75251 10.6059 9.75251 10.6059C9.75653 10.6352 9.76452 10.6637 9.77624 10.6908C9.7983 10.7413 9.81334 10.7674 9.81334 10.7674C9.82805 10.7931 9.87184 10.8559 9.87184 10.8559C9.91563 10.9188 9.91964 10.9261 9.91964 10.9261C10.1214 11.2415 10.3616 11.5306 10.6346 11.7869C11.0301 12.1405 11.5706 12.4016 11.5706 12.4016C11.5786 12.4049 11.6458 12.4414 11.6458 12.4414C11.7126 12.4781 11.7404 12.4898 11.7404 12.4898C11.7678 12.5019 11.8206 12.5179 11.8206 12.5179C11.8486 12.5274 11.878 12.5323 11.9075 12.5323C11.9764 12.5286 12.0773 12.4136 12.0773 12.4136C12.1452 12.3346 12.2084 12.2517 12.2665 12.1653C12.326 12.0778 12.3918 11.9948 12.4634 11.9169C12.572 11.8016 12.6486 11.7972 12.6486 11.7972C12.6863 11.7969 12.7238 11.8039 12.7589 11.818C12.807 11.84 12.8538 11.8649 12.8989 11.8925C12.9825 11.9433 12.9992 11.954 12.9992 11.954C13.0995 12.0061 13.2105 12.061 13.2105 12.061C13.3228 12.1161 13.4605 12.1813 13.4605 12.1813C13.5982 12.2465 13.6731 12.2843 13.6731 12.2843C13.9482 12.4033 13.9739 12.4708 13.9739 12.4708C13.984 12.496 13.9903 12.5226 13.9927 12.5497Z" fill="white"/>
<defs>
<linearGradient id="paint0_linear_1672_6488" x1="11.2195" y1="19" x2="11.2195" y2="3.43994" gradientUnits="userSpaceOnUse">
<stop stop-color="#00D02D"/>
<stop offset="0.25" stop-color="#10D93A"/>
<stop offset="0.75" stop-color="#3AF15D"/>
<stop offset="1" stop-color="#51FE71"/>
</linearGradient>
</defs>
</svg>
