<svg width="22" height="22" viewBox="0 0 22 22" fill="none" xmlns="http://www.w3.org/2000/svg">
<path d="M16.8182 3H5.18182C3.97683 3 3 3.97683 3 5.18182V16.8182C3 18.0232 3.97683 19 5.18182 19H16.8182C18.0232 19 19 18.0232 19 16.8182V5.18182C19 3.97683 18.0232 3 16.8182 3Z" fill="#039BE5"/>
<path d="M9.9716 12.2725L9.80417 14.5061C10.0437 14.5061 10.1475 14.4085 10.2719 14.2913L11.395 13.2733L13.7221 14.8897C14.1489 15.1153 14.4496 14.9965 14.5648 14.5173L16.0923 7.72856L16.0927 7.72816C16.2281 7.12976 15.8646 6.89576 15.4487 7.04256L6.46989 10.3029C5.85711 10.5285 5.86638 10.8525 6.36572 10.9993L8.66125 11.6765L13.9933 8.51215C14.2442 8.35456 14.4724 8.44175 14.2847 8.59935L9.9716 12.2725Z" fill="white"/>
</svg>
