<svg width="30" height="30" viewBox="0 0 30 30" fill="none" xmlns="http://www.w3.org/2000/svg">
<path d="M23.6429 4H6.35714C5.05757 4 4 5.05757 4 6.35714V17.3571C4 18.6567 5.05757 19.7143 6.35714 19.7143H14.2143V24.4286H11.8571C11.4226 24.4286 11.0714 24.7806 11.0714 25.2143C11.0714 25.648 11.4226 26 11.8571 26H18.1429C18.5774 26 18.9286 25.648 18.9286 25.2143C18.9286 24.7806 18.5774 24.4286 18.1429 24.4286H15.7857V19.7143H23.6429C24.9424 19.7143 26 18.6567 26 17.3571V6.35714C26 5.05757 24.9424 4 23.6429 4ZM24.4286 17.3571C24.4286 17.7901 24.0766 18.1429 23.6429 18.1429H6.35714C5.92343 18.1429 5.57143 17.7901 5.57143 17.3571V6.35714C5.57143 5.92421 5.92343 5.57143 6.35714 5.57143H23.6429C24.0766 5.57143 24.4286 5.92421 24.4286 6.35714V17.3571ZM21.1396 7.71486L21.4059 10.0563C21.4546 10.4869 21.1459 10.8766 20.7145 10.9253C20.6839 10.9284 20.654 10.93 20.6249 10.93C20.2305 10.93 19.8903 10.6346 19.8455 10.2331L19.7984 9.82214L15.5956 14.725C15.3379 15.0267 14.8955 15.0888 14.5639 14.8672L12.7426 13.6533L10.0555 16.3404C9.90229 16.4936 9.70114 16.5706 9.5 16.5706C9.29886 16.5706 9.09771 16.4936 8.9445 16.3404C8.63729 16.0332 8.63729 15.5366 8.9445 15.2294L12.0874 12.0866C12.3521 11.8218 12.7686 11.7809 13.0789 11.9884L14.857 13.1732L18.6135 8.79129L18.1067 8.84864C17.6589 8.89657 17.2856 8.587 17.2377 8.15643C17.189 7.72507 17.4978 7.33614 17.9291 7.28743L20.2714 7.02107C20.7176 6.96843 21.0916 7.28193 21.1404 7.71329L21.1396 7.71486Z" fill="#BCBBBD"/>
</svg>
