<svg width="30" height="30" viewBox="0 0 30 30" fill="none" xmlns="http://www.w3.org/2000/svg">
<path d="M15 3C8.3828 3 3 8.3828 3 15C3 21.6172 8.3828 27 15 27C21.6172 27 27 21.6163 27 15C27 8.38373 21.6172 3 15 3ZM15 25.141C9.40898 25.141 4.85902 20.592 4.85902 15C4.85902 9.40805 9.40898 4.85902 15 4.85902C20.591 4.85902 25.141 9.40805 25.141 15C25.141 20.592 20.592 25.141 15 25.141Z" fill="#BCBBBD"/>
<path d="M19.6485 13.9872H15.9305C15.4164 13.9872 14.0714 13.9872 14.0714 13.9872H10.3534C9.83933 13.9872 9.42383 14.4037 9.42383 14.9168C9.42383 15.4299 9.83933 15.8463 10.3534 15.8463H14.0714C14.5854 15.8463 15.9305 15.8463 15.9305 15.8463H19.6485C20.1625 15.8463 20.578 15.4299 20.578 14.9168C20.578 14.4037 20.1625 13.9872 19.6485 13.9872Z" fill="#BCBBBD"/>
</svg>
