<svg width="22" height="22" viewBox="0 0 22 22" fill="none" xmlns="http://www.w3.org/2000/svg">
<g clip-path="url(#clip0_1672_6506)">
<path d="M16.8182 3H5.18182C3.97683 3 3 3.97683 3 5.18182V16.8182C3 18.0232 3.97683 19 5.18182 19H16.8182C18.0232 19 19 18.0232 19 16.8182V5.18182C19 3.97683 18.0232 3 16.8182 3Z" fill="#0077B5"/>
<path d="M8.76341 7.36364C8.76341 7.63334 8.68343 7.89698 8.53359 8.12123C8.38375 8.34548 8.17078 8.52026 7.92161 8.62347C7.67244 8.72668 7.39826 8.75369 7.13374 8.70107C6.86922 8.64845 6.62624 8.51858 6.43553 8.32787C6.24483 8.13716 6.11495 7.89419 6.06234 7.62967C6.00972 7.36515 6.03672 7.09097 6.13993 6.8418C6.24314 6.59262 6.41793 6.37965 6.64217 6.22981C6.86642 6.07998 7.13007 6 7.39977 6C7.76143 6 8.10828 6.14367 8.36401 6.3994C8.61974 6.65513 8.76341 7.00198 8.76341 7.36364Z" fill="white"/>
<path d="M8.45453 9.6364V15.6609C8.45477 15.7054 8.44622 15.7494 8.42938 15.7906C8.41253 15.8317 8.38773 15.8691 8.35639 15.9006C8.32504 15.9321 8.28778 15.9571 8.24674 15.9742C8.2057 15.9913 8.1617 16 8.11725 16H6.67998C6.63554 16.0002 6.59151 15.9915 6.55042 15.9745C6.50934 15.9576 6.47201 15.9327 6.44058 15.9013C6.40915 15.8698 6.38425 15.8325 6.3673 15.7914C6.35034 15.7503 6.34168 15.7063 6.3418 15.6619V9.6364C6.3418 9.54671 6.37743 9.46069 6.44085 9.39727C6.50427 9.33385 6.59029 9.29822 6.67998 9.29822H8.11725C8.20679 9.29846 8.29257 9.33419 8.3558 9.39759C8.41902 9.46099 8.45453 9.54687 8.45453 9.6364Z" fill="white"/>
<path d="M15.9672 12.7728V15.6892C15.9673 15.73 15.9593 15.7705 15.9437 15.8083C15.9282 15.846 15.9053 15.8804 15.8764 15.9093C15.8475 15.9382 15.8131 15.9611 15.7754 15.9766C15.7376 15.9922 15.6971 16.0002 15.6563 16.0001H14.1108C14.0699 16.0002 14.0295 15.9922 13.9917 15.9766C13.9539 15.9611 13.9196 15.9382 13.8907 15.9093C13.8618 15.8804 13.8389 15.846 13.8233 15.8083C13.8077 15.7705 13.7998 15.73 13.7999 15.6892V12.8628C13.7999 12.441 13.9235 11.0155 12.6972 11.0155C11.7472 11.0155 11.5535 11.991 11.5153 12.4292V15.6892C11.5154 15.7708 11.4832 15.8492 11.4259 15.9074C11.3686 15.9656 11.2906 15.9989 11.209 16.0001H9.71625C9.67546 16.0001 9.63508 15.992 9.59741 15.9764C9.55974 15.9607 9.52552 15.9378 9.49673 15.9089C9.46793 15.8801 9.44511 15.8458 9.42959 15.8081C9.41406 15.7703 9.40613 15.7299 9.40625 15.6892V9.61006C9.40613 9.56927 9.41406 9.52887 9.42959 9.49115C9.44511 9.45343 9.46793 9.41915 9.49673 9.39027C9.52552 9.36139 9.55974 9.33847 9.59741 9.32284C9.63508 9.3072 9.67546 9.29915 9.71625 9.29915H11.209C11.2914 9.29915 11.3705 9.33191 11.4288 9.39021C11.4871 9.44852 11.5199 9.5276 11.5199 9.61006V10.1355C11.8726 9.60642 12.3953 9.19824 13.5108 9.19824C15.9817 9.19824 15.9672 11.5055 15.9672 12.7728Z" fill="white"/>
</g>
<defs>
<clipPath id="clip0_1672_6506">
<rect width="16" height="16" fill="white" transform="translate(3 3)"/>
</clipPath>
</defs>
</svg>
