<svg width="30" height="30" viewBox="0 0 30 30" fill="none" xmlns="http://www.w3.org/2000/svg">
<path d="M15 4.45312C17.4331 4.45505 19.7907 5.29787 21.6735 6.83884C23.5564 8.37981 24.8488 10.5242 25.3318 12.9088C25.8148 15.2935 25.4588 17.7718 24.324 19.924C23.1892 22.0762 21.3454 23.77 19.1048 24.7186C16.5313 25.7853 13.6404 25.7909 11.0628 24.734C8.48517 23.6772 6.4302 21.6438 5.34626 19.0774C4.26233 16.5111 4.23742 13.6203 5.27697 11.0357C6.31653 8.45104 8.33616 6.3825 10.8952 5.28141C12.1937 4.73182 13.5899 4.4501 15 4.45312ZM15 3C8.37281 3 3 8.37281 3 15C3 21.6272 8.37281 27 15 27C21.6272 27 27 21.6272 27 15C27 8.37281 21.6272 3 15 3Z" fill="#BCBBBD"/>
<path d="M19.0716 19.1964C18.9029 19.1964 18.7388 19.1148 18.5696 18.9474C18.0436 18.4267 17.4235 17.8103 16.8104 17.1873C16.6191 16.9923 16.5432 16.7415 16.6083 16.5165C16.6702 16.3004 16.8469 16.1415 17.0921 16.0853C17.1348 16.0749 17.1785 16.0696 17.2224 16.0693C17.4376 16.0693 17.5974 16.1996 17.7099 16.3135C17.9199 16.5226 18.1318 16.7354 18.3526 16.9604L18.4463 17.0542V16.5596C18.4463 15.5973 18.4463 14.6021 18.4463 13.6234C18.4463 13.014 18.1711 12.7407 17.5557 12.737C17.2027 12.737 16.8221 12.7342 16.3918 12.7342C15.9315 12.7342 15.4632 12.7342 15.0104 12.7342H14.8852C14.6977 12.7342 14.4329 12.7009 14.2857 12.4126C14.2342 12.3153 14.2085 12.2064 14.2111 12.0963C14.2137 11.9863 14.2446 11.8787 14.3007 11.784C14.3541 11.6951 14.4297 11.6216 14.5201 11.5708C14.6105 11.5201 14.7126 11.4937 14.8163 11.4943L15.3319 11.4868C15.7346 11.4803 16.1513 11.4737 16.5615 11.4737C17.0635 11.4737 17.4816 11.4835 17.8786 11.5042C18.9151 11.5576 19.6988 12.422 19.7016 13.5137C19.704 14.3368 19.7016 15.1731 19.7016 15.9821C19.7016 16.3349 19.7016 16.6881 19.7016 17.0415V17.0528L19.7954 16.9534C20.0054 16.7364 20.2219 16.5118 20.4516 16.307C20.5763 16.1964 20.7858 16.0848 20.9729 16.0848C20.9885 16.0849 21.0042 16.0858 21.0197 16.0876C21.1273 16.0965 21.2305 16.1347 21.318 16.198C21.4054 16.2613 21.474 16.3473 21.5161 16.4467C21.5588 16.5543 21.572 16.6713 21.5545 16.7857C21.5369 16.9002 21.4892 17.0079 21.4163 17.0978C21.3522 17.1766 21.2826 17.2508 21.2082 17.3199C21.1857 17.342 21.1613 17.364 21.1407 17.3865L20.8163 17.7113C20.4146 18.114 19.9993 18.5298 19.5886 18.9371C19.4129 19.1115 19.2436 19.1964 19.0716 19.1964Z" fill="#BCBBBD"/>
<path d="M13.4626 18.5257C12.9751 18.5257 12.5485 18.5187 12.1594 18.5042C11.9101 18.4946 11.6653 18.4353 11.4392 18.3299C11.2131 18.2244 11.0103 18.0749 10.8427 17.8901C10.4988 17.516 10.3075 17.0267 10.3065 16.5185C10.3022 15.6926 10.3032 14.8531 10.3041 14.0417C10.3041 13.6835 10.3041 13.3257 10.3041 12.9682V12.9499L10.1794 13.0793C9.9699 13.2931 9.75334 13.5143 9.53303 13.7257C9.40553 13.8547 9.23293 13.9292 9.05162 13.9334C8.78865 13.9334 8.5674 13.767 8.47365 13.4993C8.39209 13.2649 8.44928 13.0428 8.63771 12.852C9.31834 12.1629 9.89209 11.5864 10.4785 11.0126C10.6163 10.8781 10.7724 10.8068 10.9299 10.8068C11.0874 10.8068 11.2533 10.8818 11.3987 11.0229C12.0019 11.6154 12.6174 12.229 13.223 12.8473C13.494 13.1229 13.5005 13.4951 13.2385 13.7524C13.1826 13.8101 13.1158 13.856 13.042 13.8876C12.9683 13.9193 12.8889 13.9359 12.8087 13.9367C12.6317 13.9321 12.4635 13.8586 12.3399 13.7318C12.1632 13.5631 11.9893 13.3873 11.8205 13.2162C11.7352 13.1293 11.6494 13.0431 11.5632 12.9574V13.301V16.3756C11.5632 16.9887 11.8369 17.2639 12.4468 17.2662C12.7979 17.2685 13.1771 17.2699 13.606 17.2699C14.0551 17.2699 14.5112 17.2699 14.9527 17.2671H15.1177C15.3052 17.2671 15.5715 17.2999 15.7196 17.5817C15.7726 17.6782 15.7997 17.7869 15.7983 17.897C15.7969 18.0072 15.767 18.1151 15.7116 18.2103C15.6556 18.3021 15.5768 18.3778 15.4828 18.4301C15.3888 18.4824 15.2829 18.5096 15.1754 18.5089L14.7488 18.514C14.3251 18.5206 13.8905 18.5257 13.4626 18.5257Z" fill="#BCBBBD"/>
</svg>
