<svg width="22" height="22" viewBox="0 0 22 22" fill="none" xmlns="http://www.w3.org/2000/svg">
<path d="M16.1381 18.727C12.7237 19.0913 9.28021 19.0913 5.86581 18.727C5.20277 18.657 4.58376 18.3618 4.11198 17.8907C3.6402 17.4196 3.34415 16.801 3.2732 16.1381C2.90893 12.7237 2.90893 9.28021 3.2732 5.86581C3.34322 5.20277 3.6384 4.58376 4.10952 4.11198C4.58063 3.6402 5.19923 3.34415 5.86218 3.2732C9.27657 2.90893 12.72 2.90893 16.1344 3.2732C16.7975 3.34322 17.4165 3.6384 17.8883 4.10952C18.36 4.58063 18.6561 5.19923 18.727 5.86218C19.0913 9.27657 19.0913 12.72 18.727 16.1344C18.657 16.7975 18.3618 17.4165 17.8907 17.8883C17.4196 18.36 16.801 18.6561 16.1381 18.727Z" fill="#6F3FAA"/>
<path d="M15.6217 8.58628V8.57446C15.5144 8.13993 15.2345 7.69086 14.8672 7.3127C14.4381 6.86908 13.8918 6.52092 13.37 6.40819H13.3591C11.803 6.11003 10.2045 6.11003 8.6484 6.40819H8.63749C7.66844 6.61818 6.61667 7.63087 6.38214 8.57446V8.58628C6.09398 9.89447 6.09398 11.2497 6.38214 12.5579V12.5688C6.5494 13.2415 7.13119 13.9488 7.80207 14.376C8.02117 14.5188 8.25966 14.6293 8.51022 14.7042V15.7569C8.51057 15.841 8.53597 15.9231 8.58316 15.9927C8.63036 16.0624 8.69723 16.1164 8.77524 16.1479C8.85325 16.1794 8.93887 16.1869 9.02119 16.1696C9.1035 16.1522 9.17879 16.1108 9.23746 16.0505L10.3047 14.9414C10.5356 14.9542 10.7683 14.9614 10.9992 14.9614C11.7896 14.9612 12.5782 14.8863 13.3545 14.7378H13.3655C14.3318 14.5269 15.3844 13.5142 15.6172 12.5706V12.5597C15.9071 11.2513 15.9086 9.89539 15.6217 8.58628ZM14.7772 12.3634C14.6208 12.9788 13.8227 13.7451 13.1873 13.886C12.362 14.0441 11.522 14.1127 10.6819 14.0906C10.6738 14.0901 10.6656 14.0914 10.658 14.0946C10.6504 14.0977 10.6437 14.1026 10.6383 14.1087L9.85925 14.9087L9.0302 15.7587C9.01693 15.7727 8.99977 15.7824 8.98092 15.7866C8.96208 15.7907 8.94242 15.7891 8.9245 15.782C8.90657 15.7748 8.89121 15.7624 8.88039 15.7465C8.86958 15.7305 8.86381 15.7116 8.86384 15.6923V13.9469C8.86386 13.9329 8.85896 13.9193 8.84999 13.9085C8.84102 13.8977 8.82855 13.8904 8.81475 13.8879C8.68221 13.8564 8.55444 13.8075 8.43477 13.7424C7.89479 13.4542 7.35027 12.8634 7.22482 12.3634C6.96498 11.1809 6.96498 9.95605 7.22482 8.77354C7.38027 8.16084 8.18296 7.39633 8.81384 7.25452C10.2585 6.97809 11.7426 6.97809 13.1873 7.25452C13.5373 7.3327 13.9372 7.59905 14.25 7.92631C14.5072 8.19266 14.7045 8.49992 14.7772 8.77627C15.0366 9.9579 15.0366 11.1817 14.7772 12.3634Z" fill="white"/>
<path d="M13.2099 12.4543C13.0918 12.7238 12.8888 12.9473 12.6317 13.0906C12.5511 13.1248 12.4674 13.1513 12.3818 13.1697C12.2845 13.1406 12.1918 13.1206 12.109 13.0851C11.4199 12.817 10.7785 12.4398 10.2091 11.9679C10.04 11.8237 9.88115 11.6679 9.7337 11.5016C9.36957 11.0823 9.06378 10.6156 8.82465 10.1144C8.70829 9.87711 8.61011 9.63167 8.51012 9.38714C8.41921 9.16442 8.55375 8.93261 8.69193 8.76626C8.82718 8.61198 8.99354 8.48806 9.18009 8.40264C9.24573 8.36965 9.32085 8.36068 9.39242 8.37728C9.46398 8.39388 9.52748 8.43502 9.57189 8.49354C9.80415 8.75449 10.0089 9.03871 10.1828 9.34168C10.2376 9.42978 10.2563 9.53559 10.2352 9.63715C10.214 9.73871 10.1545 9.82822 10.0691 9.88711C10.0237 9.91893 9.97823 9.95529 9.93914 9.99075C9.90061 10.0193 9.86738 10.0544 9.84097 10.0944C9.81818 10.1318 9.80435 10.174 9.80056 10.2177C9.79678 10.2614 9.80314 10.3054 9.81915 10.3462C9.9946 10.8289 10.2609 11.2316 10.6591 11.5143C10.7939 11.6096 10.939 11.6892 11.0918 11.7516C11.1916 11.8058 11.3037 11.8334 11.4173 11.8316C11.6154 11.8079 11.6809 11.5889 11.8191 11.4761C11.8825 11.4242 11.961 11.3941 12.0429 11.3904C12.1247 11.3866 12.2057 11.4093 12.2736 11.4552C12.4208 11.5461 12.5627 11.6489 12.7045 11.7488C12.8447 11.8446 12.9798 11.9477 13.109 12.0579C13.1694 12.1018 13.2126 12.1655 13.231 12.2379C13.2495 12.3103 13.242 12.3868 13.2099 12.4543Z" fill="white"/>
<path d="M11.2609 8.09822H11.1445C11.1818 8.0964 11.2209 8.09822 11.2609 8.09822Z" fill="white"/>
<path d="M13.2732 10.8227C13.1823 10.8227 13.1378 10.7455 13.1314 10.6609C13.1196 10.4946 13.1105 10.3273 13.0878 10.1618C13.0485 9.8827 12.9513 9.61486 12.8023 9.37552C12.6493 9.12618 12.4456 8.91174 12.2044 8.74607C11.9633 8.5804 11.6901 8.46718 11.4024 8.41374C11.2715 8.39011 11.1379 8.38465 11.0061 8.37102C10.9224 8.36193 10.8124 8.35647 10.7943 8.25284C10.7915 8.23271 10.7931 8.21224 10.799 8.19278C10.8048 8.17333 10.8147 8.15534 10.8281 8.14002C10.8414 8.12471 10.8578 8.11241 10.8763 8.10397C10.8948 8.09552 10.9148 8.09111 10.9352 8.09103C10.957 8.08977 10.9788 8.08977 11.0006 8.09103C11.398 8.09439 11.7883 8.1957 12.1372 8.38598C12.486 8.57626 12.7826 8.84963 13.0005 9.18189C13.1726 9.4497 13.2894 9.74918 13.3441 10.0628C13.3787 10.2591 13.3914 10.4609 13.4069 10.6609C13.41 10.6805 13.4089 10.7005 13.4036 10.7197C13.3984 10.7388 13.3892 10.7566 13.3765 10.7719C13.3639 10.7873 13.3481 10.7997 13.3303 10.8084C13.3125 10.8172 13.2931 10.8221 13.2732 10.8227Z" fill="white"/>
<path d="M12.7812 10.3981C12.7807 10.4251 12.777 10.4519 12.7703 10.4781C12.7623 10.5044 12.7465 10.5276 12.7249 10.5445C12.7033 10.5615 12.677 10.5714 12.6496 10.5729C12.6222 10.5744 12.595 10.5674 12.5717 10.5529C12.5484 10.5383 12.5301 10.517 12.5194 10.4917C12.5094 10.455 12.5048 10.417 12.5057 10.379C12.5078 10.1757 12.4676 9.97413 12.3876 9.78721C12.3694 9.74721 12.3494 9.7063 12.3266 9.66721C12.1965 9.44293 12.0034 9.2618 11.7712 9.14633C11.6311 9.08019 11.4824 9.03428 11.3294 9.00997C11.2621 8.99906 11.1949 8.9927 11.1276 8.98361C11.1101 8.98273 11.093 8.97827 11.0772 8.9705C11.0615 8.96273 11.0476 8.95182 11.0362 8.93844C11.0249 8.92507 11.0164 8.90951 11.0114 8.89273C11.0063 8.87595 11.0047 8.8583 11.0067 8.84089C11.0067 8.82307 11.0105 8.80546 11.0178 8.78921C11.0251 8.77296 11.0357 8.75843 11.049 8.74658C11.0623 8.73474 11.078 8.72584 11.095 8.72047C11.112 8.7151 11.1299 8.71339 11.1476 8.71544C11.4145 8.72574 11.676 8.79398 11.9139 8.91543C12.2045 9.06163 12.4415 9.29576 12.5912 9.58449C12.6755 9.75308 12.732 9.9342 12.7584 10.1208C12.7633 10.1452 12.767 10.1697 12.7694 10.1945C12.7739 10.249 12.7757 10.3035 12.7803 10.3708C12.7803 10.3772 12.7812 10.3854 12.7812 10.3981Z" fill="white"/>
<path d="M12.1573 10.2726C12.1522 10.2957 12.1403 10.3166 12.1231 10.3328C12.1059 10.349 12.0843 10.3597 12.061 10.3635H12.041C12.0112 10.3655 11.9816 10.3576 11.9567 10.3412C11.9317 10.3248 11.9128 10.3007 11.9028 10.2726C11.8972 10.2577 11.8935 10.2421 11.8919 10.2263C11.8871 10.1651 11.878 10.1043 11.8646 10.0445C11.8376 9.92322 11.7687 9.8154 11.6701 9.73992C11.6224 9.70568 11.5692 9.67986 11.5128 9.66356C11.441 9.64265 11.3656 9.64811 11.2947 9.63083C11.2596 9.62462 11.2285 9.60478 11.208 9.57564C11.1876 9.54651 11.1795 9.51046 11.1856 9.47539C11.1923 9.44179 11.2111 9.41181 11.2384 9.39107C11.2657 9.37032 11.2996 9.36022 11.3337 9.36266C11.7501 9.39266 12.061 9.59265 12.141 10.039C12.1492 10.0804 12.155 10.1223 12.1583 10.1644C12.1633 10.2003 12.163 10.2368 12.1573 10.2726Z" fill="white"/>
</svg>
