<svg width="30" height="30" viewBox="0 0 30 30" fill="none" xmlns="http://www.w3.org/2000/svg">
<path d="M5 7.7182C5 7.16592 5.44772 6.7182 6 6.7182H19.0006C19.5529 6.7182 20.0006 7.16592 20.0006 7.7182V8.21828C20.0006 8.77057 19.5529 9.21828 19.0006 9.21828H6C5.44772 9.21828 5 8.77057 5 8.21828V7.7182Z" fill="#BCBBBD"/>
<path d="M5 12.4056C5 11.8533 5.44772 11.4056 6 11.4056H14.2505C14.8028 11.4056 15.2505 11.8533 15.2505 12.4056V12.9057C15.2505 13.4579 14.8028 13.9057 14.2505 13.9057H6C5.44772 13.9057 5 13.4579 5 12.9057V12.4056Z" fill="#BCBBBD"/>
<path d="M5 17.095C5 16.5427 5.44772 16.095 6 16.095H23.0006C23.5529 16.095 24.0006 16.5427 24.0006 17.095V17.5951C24.0006 18.1473 23.5529 18.5951 23.0006 18.5951H6C5.44771 18.5951 5 18.1473 5 17.5951V17.095Z" fill="#BCBBBD"/>
<path d="M5 21.7823C5 21.2301 5.44772 20.7823 6 20.7823H16.5004C17.0527 20.7823 17.5004 21.2301 17.5004 21.7823V22.2824C17.5004 22.8347 17.0527 23.2824 16.5004 23.2824H6C5.44772 23.2824 5 22.8347 5 22.2824V21.7823Z" fill="#BCBBBD"/>
</svg>
