<svg width="22" height="22" viewBox="0 0 22 22" fill="none" xmlns="http://www.w3.org/2000/svg">
<path d="M11.0026 3C7.66266 3 6.68586 3.00345 6.49599 3.0192C5.81059 3.07619 5.38409 3.18414 4.91944 3.41553C4.56136 3.5934 4.27894 3.79957 4.00023 4.08858C3.49264 4.61563 3.185 5.26405 3.07364 6.03482C3.0195 6.40901 3.00374 6.48532 3.00055 8.39661C2.99932 9.03371 3.00055 9.87218 3.00055 10.9968C3.00055 14.3349 3.00423 15.311 3.02024 15.5006C3.07561 16.1677 3.1802 16.5874 3.4017 17.0465C3.825 17.9254 4.63346 18.5851 5.58589 18.8313C5.91568 18.9162 6.27991 18.963 6.74752 18.9851C6.94563 18.9938 8.96493 18.9999 10.9855 18.9999C13.006 18.9999 15.0265 18.9975 15.2197 18.9876C15.7612 18.9621 16.0756 18.9199 16.4232 18.8301C17.3818 18.5827 18.1755 17.9328 18.6074 17.0416C18.8246 16.5936 18.9347 16.1578 18.9845 15.5255C18.9954 15.3877 18.9999 13.1897 18.9999 10.9947C18.9999 8.79935 18.995 6.60545 18.9842 6.46759C18.9337 5.82508 18.8236 5.39305 18.5994 4.9364C18.4154 4.56258 18.2112 4.28342 17.9146 3.99799C17.3853 3.49235 16.7381 3.18463 15.9668 3.07336C15.5931 3.01932 15.5186 3.00332 13.6064 3H11.0026Z" fill="url(#paint0_radial_1672_6398)"/>
<path d="M11.0026 3C7.66266 3 6.68586 3.00345 6.49599 3.0192C5.81059 3.07619 5.38409 3.18414 4.91944 3.41553C4.56136 3.5934 4.27894 3.79957 4.00023 4.08858C3.49264 4.61563 3.185 5.26405 3.07364 6.03482C3.0195 6.40901 3.00374 6.48532 3.00055 8.39661C2.99932 9.03371 3.00055 9.87218 3.00055 10.9968C3.00055 14.3349 3.00423 15.311 3.02024 15.5006C3.07561 16.1677 3.1802 16.5874 3.4017 17.0465C3.825 17.9254 4.63346 18.5851 5.58589 18.8313C5.91568 18.9162 6.27991 18.963 6.74752 18.9851C6.94563 18.9938 8.96493 18.9999 10.9855 18.9999C13.006 18.9999 15.0265 18.9975 15.2197 18.9876C15.7612 18.9621 16.0756 18.9199 16.4232 18.8301C17.3818 18.5827 18.1755 17.9328 18.6074 17.0416C18.8246 16.5936 18.9347 16.1578 18.9845 15.5255C18.9954 15.3877 18.9999 13.1897 18.9999 10.9947C18.9999 8.79935 18.995 6.60545 18.9842 6.46759C18.9337 5.82508 18.8236 5.39305 18.5994 4.9364C18.4154 4.56258 18.2112 4.28342 17.9146 3.99799C17.3853 3.49235 16.7381 3.18463 15.9668 3.07336C15.5931 3.01932 15.5186 3.00332 13.6064 3H11.0026Z" fill="url(#paint1_radial_1672_6398)"/>
<path d="M11.0026 3C7.66266 3 6.68586 3.00345 6.49599 3.0192C5.81059 3.07619 5.38409 3.18414 4.91944 3.41553C4.56136 3.5934 4.27894 3.79957 4.00023 4.08858C3.49264 4.61563 3.185 5.26405 3.07364 6.03482C3.0195 6.40901 3.00374 6.48532 3.00055 8.39661C2.99932 9.03371 3.00055 9.87218 3.00055 10.9968C3.00055 14.3349 3.00423 15.311 3.02024 15.5006C3.07561 16.1677 3.1802 16.5874 3.4017 17.0465C3.825 17.9254 4.63346 18.5851 5.58589 18.8313C5.91568 18.9162 6.27991 18.963 6.74752 18.9851C6.94563 18.9938 8.96493 18.9999 10.9855 18.9999C13.006 18.9999 15.0265 18.9975 15.2197 18.9876C15.7612 18.9621 16.0756 18.9199 16.4232 18.8301C17.3818 18.5827 18.1755 17.9328 18.6074 17.0416C18.8246 16.5936 18.9347 16.1578 18.9845 15.5255C18.9954 15.3877 18.9999 13.1897 18.9999 10.9947C18.9999 8.79935 18.995 6.60545 18.9842 6.46759C18.9337 5.82508 18.8236 5.39305 18.5994 4.9364C18.4154 4.56258 18.2112 4.28342 17.9146 3.99799C17.3853 3.49235 16.7381 3.18463 15.9668 3.07336C15.5931 3.01932 15.5186 3.00332 13.6064 3H11.0026Z" fill="url(#paint2_radial_1672_6398)"/>
<path d="M11.0026 3C7.66266 3 6.68586 3.00345 6.49599 3.0192C5.81059 3.07619 5.38409 3.18414 4.91944 3.41553C4.56136 3.5934 4.27894 3.79957 4.00023 4.08858C3.49264 4.61563 3.185 5.26405 3.07364 6.03482C3.0195 6.40901 3.00374 6.48532 3.00055 8.39661C2.99932 9.03371 3.00055 9.87218 3.00055 10.9968C3.00055 14.3349 3.00423 15.311 3.02024 15.5006C3.07561 16.1677 3.1802 16.5874 3.4017 17.0465C3.825 17.9254 4.63346 18.5851 5.58589 18.8313C5.91568 18.9162 6.27991 18.963 6.74752 18.9851C6.94563 18.9938 8.96493 18.9999 10.9855 18.9999C13.006 18.9999 15.0265 18.9975 15.2197 18.9876C15.7612 18.9621 16.0756 18.9199 16.4232 18.8301C17.3818 18.5827 18.1755 17.9328 18.6074 17.0416C18.8246 16.5936 18.9347 16.1578 18.9845 15.5255C18.9954 15.3877 18.9999 13.1897 18.9999 10.9947C18.9999 8.79935 18.995 6.60545 18.9842 6.46759C18.9337 5.82508 18.8236 5.39305 18.5994 4.9364C18.4154 4.56258 18.2112 4.28342 17.9146 3.99799C17.3853 3.49235 16.7381 3.18463 15.9668 3.07336C15.5931 3.01932 15.5186 3.00332 13.6064 3H11.0026Z" fill="url(#paint3_radial_1672_6398)"/>
<path d="M11.0031 5.05432C9.38748 5.05432 9.18472 5.06138 8.55017 5.09024C7.91686 5.11921 7.48458 5.2194 7.10632 5.36641C6.71506 5.51824 6.38316 5.72134 6.0525 6.05188C5.7216 6.3823 5.51834 6.71394 5.3659 7.10479C5.21842 7.48289 5.11803 7.91497 5.08953 8.54757C5.06115 9.18164 5.05371 9.38437 5.05371 10.9988C5.05371 12.6132 5.0609 12.8152 5.08965 13.4493C5.11878 14.0821 5.21904 14.5141 5.36603 14.8921C5.51809 15.283 5.72135 15.6147 6.05213 15.9451C6.38267 16.2757 6.71457 16.4794 7.10558 16.6312C7.48407 16.7782 7.91649 16.8784 8.54967 16.9074C9.18422 16.9362 9.38685 16.9433 11.0023 16.9433C12.6181 16.9433 12.8202 16.9362 13.4548 16.9073C14.0881 16.8784 14.5209 16.7782 14.8994 16.6312C15.2905 16.4794 15.6219 16.2757 15.9524 15.9451C16.2834 15.6147 16.4866 15.283 16.639 14.8922C16.7853 14.5141 16.8857 14.082 16.9154 13.4494C16.9439 12.8153 16.9514 12.6132 16.9514 10.9988C16.9514 9.38437 16.9439 9.18177 16.9154 8.54769C16.8857 7.91485 16.7853 7.48289 16.639 7.10492C16.4866 6.71394 16.2834 6.38229 15.9524 6.05188C15.6215 5.72121 15.2906 5.51811 14.899 5.36641C14.5198 5.2194 14.0872 5.11921 13.4539 5.09024C12.8194 5.06138 12.6173 5.05432 11.0012 5.05432H11.0031ZM10.4694 6.12557C10.6278 6.12532 10.8046 6.12557 11.0031 6.12557C12.5914 6.12557 12.7797 6.13126 13.4069 6.15975C13.987 6.18625 14.3018 6.28309 14.5115 6.36446C14.7891 6.4722 14.987 6.601 15.1951 6.80905C15.4033 7.01711 15.5322 7.21526 15.6403 7.49267C15.7217 7.70196 15.8187 8.01652 15.8451 8.59611C15.8736 9.22276 15.8798 9.411 15.8798 10.9974C15.8798 12.5839 15.8736 12.7721 15.8451 13.3988C15.8186 13.9783 15.7217 14.2929 15.6403 14.5022C15.5324 14.7796 15.4033 14.9771 15.1951 15.1851C14.9869 15.3931 14.7892 15.5219 14.5115 15.6297C14.302 15.7114 13.987 15.808 13.4069 15.8345C12.7798 15.863 12.5914 15.8692 11.0031 15.8692C9.41462 15.8692 9.22636 15.863 8.59925 15.8345C8.01923 15.8078 7.70444 15.7109 7.49461 15.6295C7.217 15.5218 7.0187 15.393 6.81049 15.1849C6.60228 14.9769 6.47339 14.7792 6.36532 14.5017C6.28389 14.2924 6.18685 13.9778 6.16045 13.3983C6.13195 12.7716 6.12624 12.5834 6.12624 10.9959C6.12624 9.40853 6.13195 9.22127 6.16045 8.59463C6.18698 8.01504 6.28389 7.70048 6.36532 7.49094C6.47314 7.21353 6.60228 7.01538 6.81049 6.80732C7.0187 6.59926 7.217 6.47047 7.49461 6.36248C7.70431 6.28074 8.01923 6.18415 8.59925 6.15751C9.14803 6.13275 9.36071 6.12532 10.4694 6.12407L10.4694 6.12557ZM14.1786 7.11259C13.7845 7.11259 13.4647 7.43174 13.4647 7.82568C13.4647 8.21951 13.7845 8.53902 14.1786 8.53902C14.5727 8.53902 14.8924 8.21951 14.8924 7.82568C14.8924 7.43186 14.5727 7.11259 14.1786 7.11259ZM11.0031 7.94606C9.31596 7.94606 7.9481 9.31291 7.9481 10.9988C7.9481 12.6847 9.31596 14.0509 11.0031 14.0509C12.6902 14.0509 14.0576 12.6847 14.0576 10.9988C14.0576 9.31291 12.6902 7.94606 11.0031 7.94606ZM11.0031 9.0173C12.0982 9.0173 12.9861 9.90439 12.9861 10.9988C12.9861 12.0931 12.0982 12.9803 11.0031 12.9803C9.90788 12.9803 9.02013 12.0931 9.02013 10.9988C9.02013 9.90439 9.90788 9.0173 11.0031 9.0173Z" fill="white"/>
<defs>
<radialGradient id="paint0_radial_1672_6398" cx="0" cy="0" r="1" gradientTransform="matrix(-9.83924 2.77489 -1.99921 -7.08869 18.4833 10.4994)" gradientUnits="userSpaceOnUse">
<stop stop-color="#FF005F"/>
<stop offset="1" stop-color="#FC01D8"/>
</radialGradient>
<radialGradient id="paint1_radial_1672_6398" cx="0" cy="0" r="1" gradientUnits="userSpaceOnUse" gradientTransform="translate(7.24986 20.2322) rotate(-90) scale(12.7714 13.5502)">
<stop stop-color="#FFCC00"/>
<stop offset="0.1242" stop-color="#FFCC00"/>
<stop offset="0.5672" stop-color="#FE4A05"/>
<stop offset="0.6942" stop-color="#FF0F3F"/>
<stop offset="1" stop-color="#FE0657" stop-opacity="0"/>
</radialGradient>
<radialGradient id="paint2_radial_1672_6398" cx="0" cy="0" r="1" gradientTransform="matrix(2.6509 -4.56758 5.94647 3.45118 11.4043 18.7743)" gradientUnits="userSpaceOnUse">
<stop stop-color="#FFCC00"/>
<stop offset="1" stop-color="#FFCC00" stop-opacity="0"/>
</radialGradient>
<radialGradient id="paint3_radial_1672_6398" cx="0" cy="0" r="1" gradientTransform="matrix(-9.73121 2.74015 -0.933327 -3.31548 5.17085 3.65151)" gradientUnits="userSpaceOnUse">
<stop stop-color="#780CFF"/>
<stop offset="1" stop-color="#820BFF" stop-opacity="0"/>
</radialGradient>
</defs>
</svg>
