<svg width="22" height="22" viewBox="0 0 22 22" fill="none" xmlns="http://www.w3.org/2000/svg">
<path d="M16.1379 18.7268C12.7235 19.0911 9.28011 19.0911 5.86577 18.7268C5.20273 18.6568 4.58373 18.3616 4.11196 17.8905C3.64019 17.4194 3.34415 16.8008 3.2732 16.1379C2.90893 12.7235 2.90893 9.28011 3.2732 5.86577C3.34322 5.20273 3.63839 4.58373 4.1095 4.11196C4.58061 3.64019 5.1992 3.34415 5.86213 3.2732C9.27648 2.90893 12.7199 2.90893 16.1342 3.2732C16.7973 3.34322 17.4163 3.63839 17.888 4.1095C18.3598 4.58061 18.6559 5.1992 18.7268 5.86213C19.0911 9.27648 19.0911 12.7199 18.7268 16.1342C18.6568 16.7973 18.3616 17.4163 17.8905 17.888C17.4194 18.3598 16.8008 18.6559 16.1379 18.7268Z" fill="#FF0000"/>
<path d="M15.766 8.59479C15.566 7.97937 14.9042 7.60667 14.2952 7.52122C12.1045 7.2885 9.89534 7.2885 7.70466 7.52122C7.09561 7.60667 6.43202 7.97573 6.23385 8.59479C5.92205 10.1835 5.92205 11.8176 6.23385 13.4063C6.43383 14.0208 7.09561 14.3944 7.70466 14.4799C9.89534 14.7126 12.1045 14.7126 14.2952 14.4799C14.9042 14.3944 15.5678 14.0254 15.766 13.4063C16.0778 11.8176 16.0778 10.1835 15.766 8.59479ZM9.80363 12.9163V9.08385L12.9234 11.0001C11.8717 11.6464 10.8508 12.2727 9.80363 12.9163Z" fill="white"/>
</svg>
