<svg width="22" height="22" viewBox="0 0 22 22" fill="none" xmlns="http://www.w3.org/2000/svg">
<path d="M16.34 3H5.66C4.19092 3 3 4.19092 3 5.66V16.34C3 17.8091 4.19092 19 5.66 19H16.34C17.8091 19 19 17.8091 19 16.34V5.66C19 4.19092 17.8091 3 16.34 3Z" fill="black"/>
<path d="M15.5037 10.0536V8.20684C13.0897 8.10491 13.012 5.91124 13.012 5.70511V5.68958H11.1461V12.8822C11.1459 13.193 11.0477 13.4958 10.8655 13.7476C10.6832 13.9994 10.4262 14.1872 10.131 14.2845C9.8358 14.3818 9.51745 14.3835 9.22123 14.2894C8.925 14.1953 8.666 14.0102 8.48106 13.7604C8.29612 13.5106 8.19467 13.2088 8.19113 12.898C8.1876 12.5872 8.28216 12.2832 8.46137 12.0293C8.64058 11.7753 8.8953 11.5844 9.18931 11.4835C9.48332 11.3827 9.80163 11.3772 10.099 11.4677V9.56303C9.95602 9.5447 9.81205 9.53551 9.66793 9.53553C9.00603 9.53553 8.35899 9.73181 7.80864 10.0995C7.25829 10.4673 6.82934 10.9899 6.57604 11.6015C6.32274 12.213 6.25646 12.8859 6.3856 13.5351C6.51473 14.1843 6.83346 14.7806 7.3015 15.2486C7.76954 15.7166 8.36585 16.0354 9.01504 16.1645C9.66422 16.2936 10.3371 16.2274 10.9486 15.9741C11.5602 15.7208 12.0828 15.2918 12.4506 14.7415C12.8183 14.1911 13.0146 13.5441 13.0146 12.8822C13.0146 12.8352 13.0146 12.7887 13.0113 12.7424V9.20061C13.8705 9.98662 15.5037 10.0536 15.5037 10.0536Z" fill="#00F6EF"/>
<path d="M16.0525 10.5092V8.66143C13.6382 8.55949 13.5608 6.36583 13.5608 6.1597V6.14417H11.695V13.3368C11.6948 13.6476 11.5967 13.9505 11.4145 14.2023C11.2322 14.4541 10.9753 14.642 10.6801 14.7394C10.3849 14.8367 10.0665 14.8384 9.77025 14.7444C9.474 14.6503 9.21496 14.4652 9.02998 14.2154C8.84501 13.9656 8.74352 13.6638 8.73996 13.353C8.7364 13.0422 8.83095 12.7382 9.01015 12.4843C9.18935 12.2303 9.44408 12.0393 9.7381 11.9385C10.0321 11.8376 10.3504 11.8321 10.6478 11.9226V10.0176C10.5045 9.99968 10.3602 9.99092 10.2158 9.99141C9.55387 9.9916 8.90688 10.1881 8.35663 10.556C7.80637 10.9239 7.37758 11.4467 7.12446 12.0583C6.87135 12.6699 6.80529 13.3429 6.93464 13.992C7.06398 14.6412 7.38292 15.2374 7.85113 15.7053C8.31933 16.1732 8.91577 16.4917 9.56501 16.6206C10.2143 16.7495 10.8871 16.683 11.4986 16.4295C12.11 16.176 12.6326 15.7468 13.0001 15.1963C13.3676 14.6458 13.5637 13.9987 13.5634 13.3368C13.5634 13.2898 13.5634 13.2432 13.5602 13.197V9.6552C14.4193 10.4412 16.0525 10.5092 16.0525 10.5092Z" fill="white"/>
<path d="M13.0586 6.14417C13.1486 6.63409 13.4113 7.40005 14.1773 7.84823C13.5919 7.16641 13.5624 6.28655 13.5624 6.1597V6.14417H13.0586Z" fill="#FF004F"/>
<path d="M16.0529 10.5091V8.6614C15.8681 8.65463 15.6841 8.63298 15.5028 8.59668V10.0512C15.5028 10.0512 13.8696 9.98427 13.0111 9.19825V12.739C13.013 12.7853 13.0143 12.8319 13.0143 12.8788C13.0142 13.4843 12.8499 14.0785 12.5388 14.5979C12.2278 15.1174 11.7816 15.5427 11.2479 15.8287C10.7141 16.1146 10.1129 16.2504 9.50805 16.2216C8.90325 16.1927 8.3176 16.0004 7.81348 15.665C8.27709 16.1438 8.87312 16.4733 9.52517 16.6111C10.1772 16.749 10.8556 16.6891 11.4734 16.4389C12.0911 16.1888 12.6201 15.7599 12.9925 15.2072C13.365 14.6545 13.5639 14.0032 13.5638 13.3367C13.5638 13.2898 13.5638 13.2432 13.5606 13.1969V9.65517C14.4197 10.4412 16.0529 10.5091 16.0529 10.5091Z" fill="#FF004F"/>
<path d="M10.0983 11.4648C9.74203 11.3562 9.35786 11.386 9.02262 11.5483C8.68737 11.7106 8.42576 11.9935 8.29007 12.3404C8.15438 12.6873 8.15462 13.0726 8.29074 13.4193C8.42687 13.7661 8.68884 14.0486 9.02428 14.2105C8.84097 13.9601 8.74109 13.6584 8.7388 13.3481C8.7365 13.0378 8.83191 12.7346 9.0115 12.4815C9.19109 12.2284 9.44576 12.0383 9.73943 11.938C10.0331 11.8377 10.3509 11.8323 10.6478 11.9227V10.0177C10.5045 9.99974 10.3602 9.99098 10.2158 9.99147C10.176 9.99147 10.1368 9.99147 10.0973 9.99374L10.0983 11.4648Z" fill="#FF004F"/>
</svg>
