<svg width="30" height="30" viewBox="0 0 30 30" fill="none" xmlns="http://www.w3.org/2000/svg">
<path d="M22.4303 19.7269L21.0009 18.2458C20.5928 17.8348 20.592 17.1469 20.9995 16.7347C21.2033 16.5281 21.4714 16.4146 21.739 16.4146C22.0058 16.4146 22.2729 16.5129 22.4767 16.7181L25.6933 19.9586C25.8895 20.1561 26 20.4238 26 20.7037C26 20.9839 25.8895 21.2515 25.6933 21.4494L22.4767 24.6918C22.0686 25.1036 21.407 25.1024 20.9995 24.6904C20.592 24.2782 20.5928 23.6505 21.0009 23.2391L22.4303 21.8383H21.083C19.1389 21.8383 16.6594 19.3371 13.788 16.5336C11.4293 14.2303 8.49285 11.2831 7.04303 11.2831H5.04467C4.46775 11.2831 4.0002 10.8102 4.0002 10.2276C4.0002 9.64504 4.46795 9.17197 5.04467 9.17197H7.04303C9.33758 9.17197 12.2049 12.0523 15.2401 15.0157C17.242 16.9697 19.984 19.7269 21.083 19.7269H22.4303ZM25.6931 11.0542C25.8893 10.8565 25.9998 10.5868 25.9998 10.3063C25.9998 10.027 25.8893 9.75674 25.6931 9.55925L22.4765 6.31374C22.2729 6.10834 22.0056 6 21.7388 6C21.471 6 21.2031 6.0939 20.9993 6.30049C20.5918 6.71228 20.5926 7.35953 21.0007 7.77132L22.4301 9.17216H21.0828C19.569 9.17216 18.1089 10.3109 15.9436 12.3568C15.5224 12.7549 15.5003 13.453 15.8945 13.878C16.2885 14.3039 16.9494 14.3056 17.3707 13.9077C18.7918 12.5653 20.2246 11.2831 21.0828 11.2831H22.4301L21.0007 12.7644C20.5926 13.1758 20.5918 13.8834 20.9993 14.2957C21.4068 14.7085 22.0684 14.7097 22.4765 14.2977L25.6931 11.0542ZM4 20.783C4 21.3656 4.46775 21.8385 5.04447 21.8385H7.04283C8.74345 21.8385 10.4529 20.5547 12.496 18.6806C12.9229 18.2891 12.9544 17.5859 12.567 17.1544C12.361 16.9258 12.0774 16.8185 11.7931 16.8185C11.5427 16.8185 11.2913 16.93 11.0914 17.1135C9.78459 18.3119 8.14384 19.7269 7.04303 19.7269H5.04467C4.46775 19.7269 4 20.2 4 20.783Z" fill="#BCBBBD"/>
</svg>
