<svg width="30" height="30" viewBox="0 0 30 30" fill="none" xmlns="http://www.w3.org/2000/svg">
<path d="M20.0901 19.4837C20.5832 19.4837 20.983 19.084 20.983 18.5909C20.983 18.0977 20.5832 17.698 20.0901 17.698C19.597 17.698 19.1973 18.0977 19.1973 18.5909C19.1973 19.084 19.597 19.4837 20.0901 19.4837Z" fill="#BCBBBD"/>
<path d="M24.1071 19.3044C24.6003 19.3044 25 18.9047 25 18.4115V15.108C25 13.1387 23.3979 11.5365 21.4286 11.5365H20.3555V8.38769C20.3555 5.49613 17.9523 3.14368 14.9983 3.14368C12.0444 3.14368 9.64121 5.49613 9.64121 8.38769V11.5365H8.57143C6.60214 11.5365 5 13.1387 5 15.108V22.4294C5 24.3987 6.60214 26.0008 8.57143 26.0008H21.4286C23.3979 26.0008 25 24.3987 25 22.4294C25 21.9363 24.6003 21.5365 24.1071 21.5365C23.614 21.5365 23.2143 21.9363 23.2143 22.4294C23.2143 23.414 22.4132 24.2151 21.4286 24.2151H8.57143C7.58679 24.2151 6.78571 23.414 6.78571 22.4294V15.108C6.78571 14.1233 7.58679 13.3222 8.57143 13.3222H21.4286C22.4132 13.3222 23.2143 14.1233 23.2143 15.108V18.4115C23.2143 18.9047 23.614 19.3044 24.1071 19.3044ZM18.5698 11.5365H11.4269V8.38769C11.4269 6.48077 13.0291 4.92939 14.9983 4.92939C16.9676 4.92939 18.5698 6.48077 18.5698 8.38769V11.5365Z" fill="#BCBBBD"/>
<path d="M13.3479 19.4837C13.841 19.4837 14.2408 19.084 14.2408 18.5909C14.2408 18.0977 13.841 17.698 13.3479 17.698C12.8548 17.698 12.4551 18.0977 12.4551 18.5909C12.4551 19.084 12.8548 19.4837 13.3479 19.4837Z" fill="#BCBBBD"/>
<path d="M10.0003 19.4837C10.4934 19.4837 10.8931 19.084 10.8931 18.5909C10.8931 18.0977 10.4934 17.698 10.0003 17.698C9.50717 17.698 9.10742 18.0977 9.10742 18.5909C9.10742 19.084 9.50717 19.4837 10.0003 19.4837Z" fill="#BCBBBD"/>
<path d="M16.6956 19.4837C17.1887 19.4837 17.5884 19.084 17.5884 18.5909C17.5884 18.0977 17.1887 17.698 16.6956 17.698C16.2025 17.698 15.8027 18.0977 15.8027 18.5909C15.8027 19.084 16.2025 19.4837 16.6956 19.4837Z" fill="#BCBBBD"/>
</svg>
