<svg width="30" height="30" viewBox="0 0 30 30" fill="none" xmlns="http://www.w3.org/2000/svg">
<path d="M10.3045 13.7345C10.9209 13.7345 11.327 14.0281 11.3514 14.2384C11.3808 14.5222 11.6352 14.7423 11.9189 14.7081C12.2075 14.6787 12.4179 14.4243 12.3885 14.1406C12.3103 13.3138 11.415 12.6925 10.3045 12.6925C9.13533 12.6925 8.21562 13.3823 8.21562 14.258C8.21562 15.075 8.86138 15.5935 10.1431 15.8039L10.2996 15.8283C11.1655 15.9702 11.3465 16.1904 11.3465 16.3469C11.3465 16.5524 10.9307 16.8704 10.2996 16.8704C9.68324 16.8704 9.2772 16.5768 9.25274 16.3665C9.22339 16.0827 8.969 15.8626 8.68526 15.8968C8.39663 15.9262 8.18627 16.1806 8.21562 16.4643C8.2939 17.2911 9.18914 17.9124 10.2996 17.9124C11.4688 17.9124 12.3885 17.2226 12.3885 16.3469C12.3934 15.5299 11.7428 15.0065 10.466 14.7961L10.3094 14.7717C9.39461 14.62 9.25763 14.3852 9.25763 14.258C9.25763 14.0525 9.67346 13.7345 10.3045 13.7345Z" fill="#BCBBBD"/>
<path d="M19.6963 12.6925C18.5467 12.6925 17.6074 13.6269 17.6074 14.7814V15.8235C17.6074 16.9731 18.5418 17.9124 19.6963 17.9124C20.846 17.9124 21.7852 16.978 21.7852 15.8235V14.7814C21.7852 13.6269 20.846 12.6925 19.6963 12.6925ZM20.7383 15.8235C20.7383 16.4007 20.2687 16.8655 19.6963 16.8655C19.1191 16.8655 18.6543 16.3958 18.6543 15.8235V14.7814C18.6543 14.2042 19.124 13.7394 19.6963 13.7394C20.2736 13.7394 20.7383 14.2091 20.7383 14.7814V15.8235Z" fill="#BCBBBD"/>
<path d="M15.0687 3.3047C15.0442 3.3047 15.0247 3.2998 15.0002 3.2998C14.9806 3.2998 14.9611 3.3047 14.9366 3.3047C8.3519 3.33405 3 8.70552 3 15.3C3 21.9189 8.38615 27.3002 15.0002 27.3002C21.6142 27.3002 27.0004 21.9189 27.0004 15.3C27.0004 8.70552 21.6534 3.33894 15.0687 3.3047ZM23.5906 8.51473H20.6114C20.039 7.01287 19.2856 5.78007 18.41 4.88972C20.4744 5.56972 22.2698 6.84654 23.5906 8.51473ZM15.5236 4.39562C17.0744 4.67936 18.5078 6.20079 19.4813 8.51473H15.5236V4.39562ZM14.4767 4.39562V8.51473H10.5191C11.4926 6.20079 12.926 4.67936 14.4767 4.39562ZM11.5953 4.88972C10.7197 5.78007 9.96628 7.01287 9.39391 8.51473H6.40976C7.7355 6.84654 9.52599 5.56972 11.5953 4.88972ZM6.40976 22.0853H9.38902C9.96628 23.592 10.7197 24.8248 11.5953 25.7103C9.52599 25.0352 7.7355 23.7535 6.40976 22.0853ZM14.4767 26.2044C12.926 25.9206 11.4926 24.3992 10.5191 22.0853H14.4767V26.2044ZM15.5236 26.2044V22.0853H19.4813C18.5078 24.3992 17.0744 25.9206 15.5236 26.2044ZM18.4051 25.7103C19.2807 24.8199 20.0341 23.5871 20.6065 22.0853H23.5906C22.2649 23.7535 20.4744 25.0352 18.4051 25.7103ZM24.3147 21.0384H20.9587C21.1006 20.5736 21.2278 20.0893 21.3354 19.5805C21.3941 19.2968 21.218 19.0229 20.9343 18.9593C20.6505 18.8957 20.3766 19.0767 20.313 19.3604C20.1858 19.9474 20.0341 20.5051 19.858 21.0335H15.5139V19.468C15.5139 19.1794 15.279 18.9446 14.9904 18.9446C14.7018 18.9446 14.467 19.1794 14.467 19.468V21.0335H10.1228C9.9516 20.5051 9.79506 19.9474 9.66786 19.3604C9.60916 19.0767 9.33031 18.8957 9.04657 18.9593C8.76283 19.018 8.58672 19.2968 8.64543 19.5805C8.75305 20.0893 8.88024 20.5736 9.02211 21.0384H5.68574C4.73668 19.5072 4.15942 17.7265 4.07136 15.8186H6.65436C6.94299 15.8186 7.17781 15.5837 7.17781 15.2951C7.17781 15.0065 6.94299 14.7717 6.65436 14.7717H4.07136C4.16431 12.8638 4.73668 11.0879 5.68574 9.55184H9.04168C8.89981 10.0166 8.77262 10.5009 8.66499 11.0097C8.60629 11.2885 8.7824 11.5674 9.06614 11.6261C9.34499 11.6897 9.62384 11.5087 9.68743 11.2249C9.81463 10.6379 9.96628 10.0802 10.1424 9.55184H14.4865V11.1173C14.4865 11.4059 14.7214 11.6407 15.01 11.6407C15.2986 11.6407 15.5334 11.4059 15.5334 11.1173V9.55184H19.8776C20.0488 10.0802 20.2053 10.6379 20.3325 11.2249C20.3863 11.4695 20.6016 11.6359 20.8413 11.6359C20.8756 11.6359 20.9147 11.631 20.9538 11.6212C21.2376 11.5625 21.4137 11.2836 21.355 10.9999C21.2473 10.496 21.1202 10.0117 20.9783 9.54206H24.3342C25.2833 11.0733 25.8605 12.854 25.9486 14.7619H23.3656C23.077 14.7619 22.8422 14.9967 22.8422 15.2853C22.8422 15.574 23.077 15.8088 23.3656 15.8088H25.9486C25.841 17.7314 25.2637 19.5072 24.3147 21.0384Z" fill="#BCBBBD"/>
<path d="M16.5645 13.7345C16.8531 13.7345 17.088 13.4997 17.088 13.2111C17.088 12.9225 16.8531 12.6876 16.5645 12.6876H13.957C13.6684 12.6876 13.4336 12.9225 13.4336 13.2111V17.384C13.4336 17.6726 13.6684 17.9075 13.957 17.9075H16.5645C16.8531 17.9075 17.088 17.6726 17.088 17.384C17.088 17.0954 16.8531 16.8655 16.5645 16.8655H14.4756V15.8234H16.0411C16.3297 15.8234 16.5645 15.5886 16.5645 15.3C16.5645 15.0114 16.3297 14.7766 16.0411 14.7766H14.4756V13.7345H16.5645Z" fill="#BCBBBD"/>
</svg>
