<svg width="30" height="30" viewBox="0 0 30 30" fill="none" xmlns="http://www.w3.org/2000/svg">
<path d="M27 16.631C27 19.1839 26.197 21.6072 24.6779 23.6394C24.3782 24.0405 23.8146 24.1182 23.4194 23.8158C23.0237 23.5129 22.9456 22.9428 23.2448 22.5424C24.526 20.8288 25.2031 18.7846 25.2031 16.631C25.2031 11.2045 20.8599 6.81818 15.5 6.81818C10.1364 6.81818 5.79688 11.2079 5.79688 16.631C5.79688 18.7846 6.47404 20.8288 7.75501 22.5424C8.05437 22.9428 7.97629 23.5129 7.58059 23.8158C7.18472 24.1188 6.62144 24.0397 6.3219 23.6394C4.80298 21.6072 4 19.1839 4 16.631C4 10.1992 9.14706 5 15.5 5C21.8564 5 27 10.2028 27 16.631ZM21.1926 11.1561C21.5434 11.511 21.5434 12.0866 21.1926 12.4416L18.2641 15.4048C18.5052 15.8546 18.6424 16.3695 18.6424 16.916C18.6424 18.6694 17.2327 20.0957 15.5 20.0957C13.7672 20.0957 12.3576 18.6694 12.3576 16.916C12.3576 15.1628 13.7672 13.7363 15.5 13.7363C16.0403 13.7363 16.549 13.8752 16.9935 14.1191L19.922 11.1559C20.2729 10.801 20.8417 10.801 21.1926 11.1561ZM16.8456 16.9162C16.8456 16.1655 16.2419 15.5547 15.5 15.5547C14.7581 15.5547 14.1544 16.1655 14.1544 16.9162C14.1544 17.6669 14.7581 18.2777 15.5 18.2777C16.2419 18.2777 16.8456 17.6669 16.8456 16.9162Z" fill="#BCBBBD"/>
</svg>
