<svg width="30" height="30" viewBox="0 0 30 30" fill="none" xmlns="http://www.w3.org/2000/svg">
<path d="M6.25977 24.3331H23.7363C24.3286 24.3331 24.8086 23.8531 24.8086 23.2609V9.92885H5.1875V23.2609C5.1875 23.8531 5.66753 24.3331 6.25977 24.3331Z" stroke="#BCBBBD" stroke-width="1.33333" stroke-miterlimit="10" stroke-linecap="round" stroke-linejoin="round"/>
<path d="M24.8096 10.0473V6.90472C24.8095 6.16257 24.2734 5.66661 23.7373 5.66644H6.2627C5.7265 5.66644 5.19045 6.16244 5.19043 6.90472V10.0473H24.8096Z" stroke="#BCBBBD" stroke-width="1.33333" stroke-miterlimit="10" stroke-linecap="round" stroke-linejoin="round"/>
<path d="M23.4761 7.74736C23.4761 8.10751 23.1842 8.39949 22.824 8.39949C22.4639 8.39949 22.1719 8.10751 22.1719 7.74736C22.1719 7.38721 22.4639 7.09523 22.824 7.09523C23.1842 7.09523 23.4761 7.38721 23.4761 7.74736Z" fill="#BCBBBD"/>
<path d="M20.8668 7.74736C20.8668 8.10751 20.5748 8.39949 20.2146 8.39949C19.8545 8.39949 19.5625 8.10751 19.5625 7.74736C19.5625 7.38721 19.8545 7.09523 20.2146 7.09523C20.5748 7.09523 20.8668 7.38721 20.8668 7.74736Z" fill="#BCBBBD"/>
<path d="M18.2584 7.74736C18.2584 8.10751 17.9664 8.39949 17.6062 8.39949C17.2461 8.39949 16.9541 8.10751 16.9541 7.74736C16.9541 7.38721 17.2461 7.09523 17.6062 7.09523C17.9664 7.09523 18.2584 7.38721 18.2584 7.74736Z" fill="#BCBBBD"/>
<path d="M10.7218 14.9059C10.6478 14.7673 9.78782 14.1208 8.68637 14.4526C7.67505 14.7572 7.53358 15.9234 8.26527 16.4004C8.26527 16.4004 8.98322 16.7207 9.77956 17.0144C11.6965 17.7215 10.8707 19.576 9.32759 19.576C8.55477 19.576 7.90621 19.2376 7.51367 18.8044" stroke="#BCBBBD" stroke-width="1.33333" stroke-miterlimit="10" stroke-linecap="round" stroke-linejoin="round"/>
<path d="M15.3672 14.359H13.1689V19.576H15.3672" stroke="#BCBBBD" stroke-width="1.33333" stroke-miterlimit="10" stroke-linecap="round" stroke-linejoin="round"/>
<path d="M15.2051 16.9675H13.1689" stroke="#BCBBBD" stroke-width="1.33333" stroke-miterlimit="10" stroke-linecap="round" stroke-linejoin="round"/>
<path d="M22.4836 16.9675C22.4836 18.4082 21.3158 19.576 19.8751 19.576C18.4345 19.576 17.2666 18.4082 17.2666 16.9675C17.2666 15.5269 18.4345 14.359 19.8751 14.359C21.3158 14.359 22.4836 15.5269 22.4836 16.9675Z" stroke="#BCBBBD" stroke-width="1.33333" stroke-miterlimit="10" stroke-linecap="round" stroke-linejoin="round"/>
</svg>
