<svg width="30" height="30" viewBox="0 0 30 30" fill="none" xmlns="http://www.w3.org/2000/svg">
<path d="M17.3981 8.58067C17.4776 8.42172 17.4606 8.23443 17.3527 8.0982L15.367 4.18162C15.2819 4.0681 15.1457 4 15.0038 4C14.8619 4 14.7256 4.0681 14.6348 4.18162L12.6491 8.0982C12.5413 8.23443 12.5299 8.42743 12.6037 8.58067C12.6832 8.73961 12.8421 8.83609 13.0181 8.83609H13.7844V12.8492C15.7256 13.8085 16.2175 15.3618 16.2175 15.3618V8.83609H16.9838C17.1597 8.83609 17.3187 8.73391 17.3981 8.58067Z" fill="#BCBBBD"/>
<path d="M21.2742 12.6511C21.1379 12.5432 20.945 12.5319 20.7917 12.6057C20.6328 12.6851 20.5363 12.844 20.5363 13.02V13.7863H20.3149C19.1626 13.7863 18.0387 14.0134 17 14.4447V17.6101C17.7209 16.7587 18.7937 16.2194 19.9857 16.2194H20.5363V16.9857C20.5363 17.1617 20.6385 17.3206 20.7917 17.4001C20.9507 17.4796 21.1379 17.4625 21.2742 17.3547L25.1908 15.369C25.3043 15.2839 25.3724 15.1476 25.3724 15.0057C25.3724 14.8581 25.3043 14.7276 25.1908 14.6368L21.2742 12.6511Z" fill="#BCBBBD"/>
<path d="M3.67366 13.8047L7.59023 15.7904C7.72646 15.8982 7.91946 15.9152 8.0727 15.8358C8.23165 15.7563 8.32813 15.5974 8.32813 15.4214V14.6552H8.87874C11.0357 14.6552 13.784 16.5 13.784 19.5604C13.784 22.6208 13.784 23.9822 13.784 23.9822C13.784 24.2376 13.9883 24.4419 14.2437 24.4419H15.7573C16.0127 24.4419 16.2171 24.2376 16.2171 23.9822V19.8953C16.2171 15.6583 13.3289 12.2277 8.5495 12.2277H8.32246V11.4615C8.32246 11.2855 8.22598 11.1266 8.06703 11.0471C7.90809 10.9733 7.7208 10.9847 7.58456 11.0925L3.66795 13.0781C3.55443 13.1633 3.48633 13.2995 3.48633 13.4471C3.492 13.589 3.55443 13.7196 3.67366 13.8047Z" fill="#BCBBBD"/>
</svg>
