<svg width="30" height="30" viewBox="0 0 30 30" fill="none" xmlns="http://www.w3.org/2000/svg">
<path fill-rule="evenodd" clip-rule="evenodd" d="M22.8812 8.86119C22.8812 8.43758 22.5374 8.09378 22.1138 8.09378H7.78889C7.36528 8.09378 7.02148 8.43758 7.02148 8.86119V22.6745C7.02148 23.5565 7.37142 24.4027 7.99558 25.0258C8.61871 25.65 9.4649 25.9999 10.3469 25.9999H19.5558C20.4378 25.9999 21.284 25.65 21.9071 25.0258C22.5313 24.4027 22.8812 23.5565 22.8812 22.6745C22.8812 18.07 22.8812 8.86119 22.8812 8.86119ZM21.3464 9.62859V22.6745C21.3464 23.1492 21.1581 23.6046 20.8215 23.9402C20.4859 24.2768 20.0305 24.4651 19.5558 24.4651C16.9548 24.4651 12.9479 24.4651 10.3469 24.4651C9.87214 24.4651 9.41681 24.2768 9.0812 23.9402C8.74456 23.6046 8.55629 23.1492 8.55629 22.6745V9.62859H21.3464Z" fill="#BCBBBD"/>
<path fill-rule="evenodd" clip-rule="evenodd" d="M19.5583 9.62764C19.9819 9.62764 20.3257 9.28384 20.3257 8.86023C20.3257 8.86023 20.3257 7.83703 20.3257 6.81382C20.3257 6.0679 20.029 5.35166 19.502 4.82368C18.974 4.29673 18.2578 4 17.5119 4C15.9894 4 13.9184 4 12.3958 4C11.6499 4 10.9337 4.29673 10.4057 4.82368C9.87876 5.35166 9.58203 6.0679 9.58203 6.81382V8.86023C9.58203 9.28384 9.92583 9.62764 10.3494 9.62764H19.5583ZM18.7909 8.09283H11.1168V6.81382C11.1168 6.47411 11.2519 6.14976 11.4913 5.9093C11.7318 5.66987 12.0561 5.53481 12.3958 5.53481H17.5119C17.8516 5.53481 18.1759 5.66987 18.4164 5.9093C18.6558 6.14976 18.7909 6.47411 18.7909 6.81382V8.09283Z" fill="#BCBBBD"/>
<path fill-rule="evenodd" clip-rule="evenodd" d="M23.1387 8.09378H6.76741C6.3438 8.09378 6 8.43758 6 8.86119C6 9.28479 6.3438 9.62859 6.76741 9.62859H23.1387C23.5623 9.62859 23.9061 9.28479 23.9061 8.86119C23.9061 8.43758 23.5623 8.09378 23.1387 8.09378Z" fill="#BCBBBD"/>
<path fill-rule="evenodd" clip-rule="evenodd" d="M11.627 13.464V20.6264C11.627 21.0501 11.9708 21.3939 12.3944 21.3939C12.818 21.3939 13.1618 21.0501 13.1618 20.6264V13.464C13.1618 13.0404 12.818 12.6966 12.3944 12.6966C11.9708 12.6966 11.627 13.0404 11.627 13.464Z" fill="#BCBBBD"/>
<path fill-rule="evenodd" clip-rule="evenodd" d="M16.7422 13.464V20.6264C16.7422 21.0501 17.086 21.3939 17.5096 21.3939C17.9332 21.3939 18.277 21.0501 18.277 20.6264V13.464C18.277 13.0404 17.9332 12.6966 17.5096 12.6966C17.086 12.6966 16.7422 13.0404 16.7422 13.464Z" fill="#BCBBBD"/>
</svg>
