<svg width="22" height="22" viewBox="0 0 22 22" fill="none" xmlns="http://www.w3.org/2000/svg">
<path d="M17.9227 2.34631H4.07687C3.52605 2.34631 2.99779 2.56513 2.6083 2.95462C2.21881 3.3441 2 3.87237 2 4.42319V17.5767C2 18.1275 2.21881 18.6558 2.6083 19.0453C2.99779 19.4348 3.52605 19.6536 4.07687 19.6536H17.9227C18.4735 19.6536 19.0018 19.4348 19.3913 19.0453C19.7808 18.6558 19.9996 18.1275 19.9996 17.5767V4.42319C19.9996 3.87237 19.7808 3.3441 19.3913 2.95462C19.0018 2.56513 18.4735 2.34631 17.9227 2.34631ZM18.615 17.5767C18.615 17.7603 18.5421 17.9364 18.4122 18.0662C18.2824 18.1961 18.1063 18.269 17.9227 18.269H4.07687C3.89327 18.269 3.71718 18.1961 3.58735 18.0662C3.45752 17.9364 3.38458 17.7603 3.38458 17.5767V4.42319C3.38458 4.23958 3.45752 4.06349 3.58735 3.93366C3.71718 3.80383 3.89327 3.7309 4.07687 3.7309H17.9227C18.1063 3.7309 18.2824 3.80383 18.4122 3.93366C18.5421 4.06349 18.615 4.23958 18.615 4.42319V17.5767Z" fill="#BCBBBD"/>
<path d="M15.5007 9.9615C15.6843 9.9615 15.8604 9.88856 15.9902 9.75873C16.12 9.6289 16.193 9.45281 16.193 9.26921C16.193 9.0856 16.12 8.90951 15.9902 8.77968C15.8604 8.64985 15.6843 8.57691 15.5007 8.57691H7.82664L8.72316 7.6804C8.85306 7.5505 8.92604 7.37431 8.92604 7.1906C8.92604 7.00689 8.85306 6.83071 8.72316 6.70081C8.59326 6.5709 8.41707 6.49792 8.23336 6.49792C8.04965 6.49792 7.87347 6.5709 7.74357 6.70081L5.66669 8.77768C5.56927 8.8743 5.50276 8.9977 5.47561 9.13219C5.44845 9.26669 5.46188 9.40622 5.51418 9.53308C5.56647 9.65993 5.65529 9.76838 5.76934 9.84466C5.8834 9.92094 6.01755 9.96161 6.15476 9.9615H15.5007Z" fill="#BCBBBD"/>
<path d="M16.1925 12.3846H6.84659C6.66298 12.3846 6.48689 12.4576 6.35706 12.5874C6.22723 12.7172 6.1543 12.8933 6.1543 13.0769C6.1543 13.2605 6.22723 13.4366 6.35706 13.5665C6.48689 13.6963 6.66298 13.7692 6.84659 13.7692H14.5206L13.6241 14.6657C13.4942 14.7956 13.4212 14.9718 13.4212 15.1555C13.4212 15.3392 13.4942 15.5154 13.6241 15.6453C13.754 15.7752 13.9302 15.8482 14.1139 15.8482C14.2976 15.8482 14.4738 15.7752 14.6037 15.6453L16.6806 13.5685C16.778 13.4718 16.8445 13.3484 16.8717 13.2139C16.8988 13.0794 16.8854 12.9399 16.8331 12.8131C16.7808 12.6862 16.692 12.5778 16.5779 12.5015C16.4639 12.4252 16.3297 12.3845 16.1925 12.3846Z" fill="#BCBBBD"/>
</svg>
