<svg width="22" height="22" viewBox="0 0 22 22" fill="none" xmlns="http://www.w3.org/2000/svg">
<g clip-path="url(#clip0_1707_6188)">
<path d="M18.0002 6.01135C17.735 6.01135 17.4806 6.11671 17.2931 6.30425C17.1055 6.49179 17.0002 6.74615 17.0002 7.01137V18.2025C16.9715 18.7082 16.7442 19.1821 16.3677 19.5209C15.9912 19.8597 15.4961 20.0361 14.9902 20.0115H7.01005C6.50414 20.0361 6.00902 19.8597 5.63254 19.5209C5.25606 19.1821 5.02871 18.7082 5.00003 18.2025V7.01137C5.00003 6.74615 4.89467 6.49179 4.70713 6.30425C4.51959 6.11671 4.26523 6.01135 4.00001 6.01135C3.73479 6.01135 3.48044 6.11671 3.2929 6.30425C3.10536 6.49179 3 6.74615 3 7.01137V18.2025C3.02854 19.2388 3.46659 20.2215 4.2182 20.9354C4.9698 21.6493 5.97371 22.0363 7.01005 22.0116H14.9902C16.0265 22.0363 17.0304 21.6493 17.782 20.9354C18.5336 20.2215 18.9717 19.2388 19.0002 18.2025V7.01137C19.0002 6.74615 18.8949 6.49179 18.7073 6.30425C18.5198 6.11671 18.2654 6.01135 18.0002 6.01135Z" fill="#BCBBBD"/>
<path d="M19.0002 3.01127H15.0002V1.01124C15.0002 0.746023 14.8948 0.491666 14.7073 0.304127C14.5197 0.116589 14.2654 0.0112305 14.0002 0.0112305H8.00008C7.73486 0.0112305 7.4805 0.116589 7.29296 0.304127C7.10542 0.491666 7.00006 0.746023 7.00006 1.01124V3.01127H3.00001C2.73479 3.01127 2.48044 3.11663 2.2929 3.30417C2.10536 3.49171 2 3.74606 2 4.01128C2 4.2765 2.10536 4.53086 2.2929 4.7184C2.48044 4.90594 2.73479 5.01129 3.00001 5.01129H19.0002C19.2654 5.01129 19.5198 4.90594 19.7073 4.7184C19.8949 4.53086 20.0002 4.2765 20.0002 4.01128C20.0002 3.74606 19.8949 3.49171 19.7073 3.30417C19.5198 3.11663 19.2654 3.01127 19.0002 3.01127ZM9.00009 3.01127V2.01126H13.0001V3.01127H9.00009Z" fill="#BCBBBD"/>
<path d="M10 16.0115V9.01137C10 8.74615 9.89467 8.49179 9.70713 8.30425C9.51959 8.11671 9.26523 8.01135 9.00001 8.01135C8.73479 8.01135 8.48044 8.11671 8.2929 8.30425C8.10536 8.49179 8 8.74615 8 9.01137V16.0115C8 16.2767 8.10536 16.531 8.2929 16.7186C8.48044 16.9061 8.73479 17.0115 9.00001 17.0115C9.26523 17.0115 9.51959 16.9061 9.70713 16.7186C9.89467 16.531 10 16.2767 10 16.0115Z" fill="#BCBBBD"/>
<path d="M14 16.0115V9.01137C14 8.74615 13.8947 8.49179 13.7071 8.30425C13.5196 8.11671 13.2652 8.01135 13 8.01135C12.7348 8.01135 12.4804 8.11671 12.2929 8.30425C12.1054 8.49179 12 8.74615 12 9.01137V16.0115C12 16.2767 12.1054 16.531 12.2929 16.7186C12.4804 16.9061 12.7348 17.0115 13 17.0115C13.2652 17.0115 13.5196 16.9061 13.7071 16.7186C13.8947 16.531 14 16.2767 14 16.0115Z" fill="#BCBBBD"/>
</g>
<defs>
<clipPath id="clip0_1707_6188">
<rect width="22" height="22" fill="white"/>
</clipPath>
</defs>
</svg>
