<svg width="20" height="20" viewBox="0 0 20 20" fill="none" xmlns="http://www.w3.org/2000/svg">
<path d="M17.3469 14.1143C17.7076 14.1143 18 13.8219 18 13.4612V10.4571C18 9.37685 17.1211 8.49796 16.0408 8.49796H14.7673V5.91837C14.7673 4.47798 13.5955 3.30612 12.1551 3.30612H10.603C10.3503 2.53064 9.62785 2 8.80186 2H7.96549C7.13949 2 6.41704 2.53064 6.16434 3.30612H4.61224C3.17185 3.30612 2 4.47798 2 5.91837V16.1061C2 17.5465 3.17185 18.7184 4.61224 18.7184H7.48571C7.8464 18.7184 8.13878 18.426 8.13878 18.0653C8.13878 17.7046 7.8464 17.4122 7.48571 17.4122H4.61224C3.89205 17.4122 3.30612 16.8263 3.30612 16.1061V5.91837C3.30612 5.19817 3.89205 4.61224 4.61224 4.61224H4.67755V6.53878C4.67755 6.89946 4.96993 7.19184 5.33061 7.19184H11.502C11.8627 7.19184 12.1551 6.89946 12.1551 6.53878V4.61224C12.8753 4.61224 13.4612 5.19817 13.4612 5.91837V8.49796H11.3385C10.2584 8.49796 9.37959 9.37675 9.37959 10.4569V16.7594C9.37959 17.8396 10.2585 18.7184 11.3391 18.7184L16.0408 18.716C17.1211 18.716 18 17.8372 18 16.757C18 16.3963 17.7076 16.104 17.3469 16.104C16.9863 16.104 16.6939 16.3963 16.6939 16.757C16.6939 17.117 16.4009 17.4098 16.0405 17.4098L11.3388 17.4122C10.9787 17.4122 10.6857 17.1194 10.6857 16.7594V10.4569C10.6857 10.0969 10.9786 9.80408 11.3385 9.80408H16.0408C16.4009 9.80408 16.6939 10.097 16.6939 10.4571V13.4612C16.6939 13.8219 16.9863 14.1143 17.3469 14.1143ZM10.849 5.88571H5.98367V4.61224H6.66939C6.96904 4.61224 7.23027 4.40829 7.30295 4.11758L7.39432 3.75207C7.45995 3.4895 7.69482 3.30612 7.96549 3.30612H8.80186C9.07252 3.30612 9.30736 3.4895 9.37303 3.75207L9.46439 4.11758C9.53708 4.40829 9.7983 4.61224 10.098 4.61224H10.849V5.88571Z" fill="#BCBBBD"/>
<path d="M14.735 11.1101H12.6452C12.2846 11.1101 11.9922 11.4025 11.9922 11.7632C11.9922 12.1239 12.2846 12.4162 12.6452 12.4162H14.735C15.0957 12.4162 15.3881 12.1239 15.3881 11.7632C15.3881 11.4025 15.0958 11.1101 14.735 11.1101Z" fill="#BCBBBD"/>
<path d="M14.735 13.396H12.6452C12.2846 13.396 11.9922 13.6884 11.9922 14.0491C11.9922 14.4097 12.2846 14.7021 12.6452 14.7021H14.735C15.0957 14.7021 15.3881 14.4097 15.3881 14.0491C15.3881 13.6884 15.0958 13.396 14.735 13.396Z" fill="#BCBBBD"/>
</svg>
