<svg width="22" height="22" viewBox="0 0 22 22" fill="none" xmlns="http://www.w3.org/2000/svg">
<path d="M15.7998 8.342H15.4818V6.482C15.4818 5.2933 15.0096 4.15329 14.1691 3.31275C13.3285 2.47221 12.1885 2 10.9998 2C9.8111 2 8.67109 2.47221 7.83055 3.31275C6.99001 4.15329 6.5178 5.2933 6.5178 6.482V8.342H6.1998C5.56328 8.342 4.95284 8.59486 4.50275 9.04494C4.05266 9.49503 3.7998 10.1055 3.7998 10.742V17.6C3.7998 18.2365 4.05266 18.847 4.50275 19.2971C4.95284 19.7471 5.56328 20 6.1998 20H15.7998C16.4363 20 17.0468 19.7471 17.4969 19.2971C17.9469 18.847 18.1998 18.2365 18.1998 17.6V10.742C18.1998 10.1055 17.9469 9.49503 17.4969 9.04494C17.0468 8.59486 16.4363 8.342 15.7998 8.342ZM7.7178 6.482C7.7178 6.051 7.8027 5.62422 7.96763 5.22603C8.13257 4.82784 8.37432 4.46604 8.67908 4.16128C8.98384 3.85651 9.34565 3.61476 9.74384 3.44983C10.142 3.28489 10.5688 3.2 10.9998 3.2C11.4308 3.2 11.8576 3.28489 12.2558 3.44983C12.654 3.61476 13.0158 3.85651 13.3205 4.16128C13.6253 4.46604 13.867 4.82784 14.032 5.22603C14.1969 5.62422 14.2818 6.051 14.2818 6.482V8.342H7.7178V6.482ZM16.9998 17.6C16.9998 17.9183 16.8734 18.2235 16.6483 18.4485C16.4233 18.6736 16.1181 18.8 15.7998 18.8H6.1998C5.88154 18.8 5.57632 18.6736 5.35128 18.4485C5.12623 18.2235 4.9998 17.9183 4.9998 17.6V10.742C4.9998 10.4237 5.12623 10.1185 5.35128 9.89347C5.57632 9.66843 5.88154 9.542 6.1998 9.542H15.7998C16.1181 9.542 16.4233 9.66843 16.6483 9.89347C16.8734 10.1185 16.9998 10.4237 16.9998 10.742V17.6Z" fill="#BCBBBD"/>
<path d="M11.0005 12.1556C10.7677 12.1557 10.5403 12.2253 10.3473 12.3554C10.1543 12.4856 10.0046 12.6704 9.91729 12.8862C9.83001 13.102 9.80916 13.339 9.85742 13.5667C9.90567 13.7944 10.0208 14.0026 10.1881 14.1644V15.587C10.1881 15.7462 10.2513 15.8988 10.3639 16.0113C10.4764 16.1238 10.629 16.187 10.7881 16.187H11.2129C11.3721 16.187 11.5247 16.1238 11.6372 16.0113C11.7497 15.8988 11.8129 15.7462 11.8129 15.587V14.1644C11.9802 14.0026 12.0954 13.7944 12.1436 13.5667C12.1919 13.339 12.171 13.102 12.0838 12.8862C11.9965 12.6704 11.8468 12.4856 11.6538 12.3554C11.4608 12.2253 11.2333 12.1557 11.0005 12.1556Z" fill="#BCBBBD"/>
</svg>
