<svg width="22" height="22" viewBox="0 0 22 22" fill="none" xmlns="http://www.w3.org/2000/svg">
<path d="M10.8543 17.0876C9.78858 17.0831 8.74268 16.799 7.82103 16.2639C6.89938 15.7288 6.1342 14.9613 5.60189 14.038C5.06957 13.1147 4.78874 12.068 4.78741 11.0022C4.78609 9.93648 5.06433 8.88903 5.59435 7.96443C5.77579 7.66196 5.82965 7.29979 5.74407 6.9576C5.65849 6.61542 5.44049 6.32124 5.13801 6.13979C4.83553 5.95835 4.47337 5.90449 4.13118 5.99007C3.78899 6.07565 3.49482 6.29366 3.31337 6.59613C2.53793 7.92434 2.12637 9.43352 2.12019 10.9715C2.114 12.5095 2.51341 14.0219 3.27814 15.3563C4.04287 16.6908 5.1459 17.8 6.47601 18.5721C7.80612 19.3443 9.31631 19.7522 10.8543 19.7546V22L16.8194 18.4211L10.8543 14.8422V17.0876V17.0876Z" fill="#BCBBBD"/>
<path d="M10.8547 2.06244e-05L4.88965 3.57822L10.8547 7.15712V4.91169C11.9205 4.91626 12.9664 5.20028 13.888 5.73541C14.8097 6.27053 15.5748 7.03804 16.1072 7.96132C16.6395 8.8846 16.9203 9.93135 16.9216 10.9971C16.9229 12.0628 16.6447 13.1103 16.1147 14.0349C16.0228 14.1858 15.9624 14.3538 15.9374 14.5287C15.9124 14.7037 15.9232 14.8819 15.9691 15.0525C16.015 15.2231 16.0952 15.3827 16.2046 15.5214C16.3141 15.6601 16.4506 15.7751 16.6059 15.8595C16.7554 15.9503 16.9214 16.0105 17.0943 16.0367C17.2673 16.0629 17.4437 16.0546 17.6134 16.0121C17.7831 15.9697 17.9427 15.894 18.0829 15.7895C18.2232 15.685 18.3413 15.5537 18.4305 15.4032C19.2056 14.0773 19.6169 12.5701 19.6226 11.0343C19.6283 9.49841 19.2283 7.98828 18.463 6.65663C17.6977 5.32498 16.5944 4.21905 15.2645 3.4507C13.9346 2.68236 12.4254 2.27885 10.8896 2.281V2.06244e-05H10.8547Z" fill="#BCBBBD"/>
</svg>
