<svg width="22" height="22" viewBox="0 0 22 22" fill="none" xmlns="http://www.w3.org/2000/svg">
<mask id="mask0_1640_6108" style="mask-type:luminance" maskUnits="userSpaceOnUse" x="2" y="2" width="18" height="18">
<path d="M2 2H20V20H2V2Z" fill="white"/>
</mask>
<g mask="url(#mask0_1640_6108)">
<path d="M11.0003 8.23424C9.47289 8.23424 8.23465 9.47244 8.23465 10.9999C8.23465 12.5273 9.47289 13.7655 11.0003 13.7655C12.5277 13.7655 13.7659 12.5273 13.7659 10.9999C13.7659 9.47244 12.5277 8.23424 11.0003 8.23424ZM18.7629 9.02631L18.0141 9.64274C17.1599 10.3459 17.1599 11.6538 18.0141 12.357L18.7629 12.9734C19.0282 13.1919 19.0967 13.5702 18.9249 13.8678L17.4463 16.4288C17.2744 16.7264 16.9126 16.8562 16.5907 16.7357L15.6825 16.3954C14.6464 16.0073 13.5137 16.6612 13.3318 17.7525L13.1724 18.7092C13.1159 19.0482 12.8226 19.2968 12.4789 19.2968H9.52168C9.178 19.2968 8.88465 19.0482 8.82816 18.7092L8.66869 17.7525C8.48682 16.6612 7.35412 16.0073 6.31811 16.3954L5.40988 16.7357C5.08799 16.8562 4.72612 16.7264 4.55425 16.4288L3.07568 13.8678C2.90384 13.5702 2.97235 13.1919 3.23771 12.9734L3.98654 12.357C4.84066 11.6538 4.84066 10.3459 3.98654 9.64274L3.23771 9.02631C2.97235 8.80785 2.90384 8.42957 3.07568 8.1319L4.55425 5.57095C4.72612 5.27328 5.08799 5.14348 5.40988 5.26407L6.31811 5.60431C7.35412 5.99243 8.48682 5.33849 8.66869 4.24721L8.82816 3.2905C8.88465 2.95149 9.178 2.703 9.52168 2.703H12.4789C12.8226 2.703 13.1159 2.95149 13.1724 3.2905L13.3318 4.24721C13.5137 5.33849 14.6464 5.99243 15.6825 5.60431L16.5907 5.26407C16.9126 5.14348 17.2744 5.27328 17.4463 5.57095L18.9249 8.1319C19.0967 8.42957 19.0282 8.80785 18.7629 9.02631Z" stroke="#BCBBBD" stroke-width="1.2" stroke-miterlimit="10" stroke-linecap="round" stroke-linejoin="round"/>
</g>
</svg>
