<svg width="30" height="30" viewBox="0 0 30 30" fill="none" xmlns="http://www.w3.org/2000/svg">
<path d="M16.3045 19.3731L13.0916 22.5861C13.0916 22.5861 13.0916 22.5862 13.0915 22.5862C13.0915 22.5862 13.0915 22.5862 13.0914 22.5862C11.7628 23.9149 9.60081 23.915 8.27203 22.5862C7.62832 21.9425 7.27389 21.0867 7.27389 20.1765C7.27389 19.2663 7.62832 18.4106 8.2718 17.7669C8.27188 17.7668 8.27196 17.7668 8.27203 17.7667L11.4849 14.5537C11.9285 14.1101 11.9285 13.3908 11.4849 12.9472C11.0413 12.5037 10.322 12.5037 9.87837 12.9472L6.66547 16.1602C6.66524 16.1604 6.66501 16.1607 6.66479 16.161C5.59251 17.2336 5.00195 18.6597 5.00195 20.1765C5.00195 21.6936 5.59273 23.1199 6.66554 24.1927C7.77289 25.3 9.22731 25.8537 10.6818 25.8537C12.1363 25.8537 13.5908 25.3 14.698 24.1927C14.6981 24.1927 14.6981 24.1926 14.6981 24.1926L17.911 20.9796C18.3545 20.536 18.3545 19.8167 17.9109 19.3731C17.4674 18.9296 16.7482 18.9296 16.3045 19.3731Z" fill="#BCBBBD"/>
<path d="M26.0017 10.5381C26.0017 9.02097 25.4109 7.59465 24.3381 6.52184C22.1235 4.3073 18.5201 4.30738 16.3056 6.52184C16.3055 6.52199 16.3054 6.52206 16.3053 6.52221L13.0925 9.73496C12.6489 10.1785 12.6489 10.8979 13.0925 11.3415C13.3144 11.5633 13.605 11.6742 13.8958 11.6742C14.1864 11.6742 14.4772 11.5633 14.699 11.3415L17.9118 8.1287C17.9119 8.12855 17.912 8.12848 17.9122 8.12832C19.2408 6.79969 21.4028 6.79962 22.7316 8.12832C23.3752 8.77204 23.7298 9.62788 23.7298 10.5381C23.7298 11.4482 23.3754 12.3039 22.7318 12.9476L22.7316 12.9479L19.5187 16.1608C19.0751 16.6044 19.0751 17.3237 19.5187 17.7673C19.7406 17.9891 20.0313 18.1001 20.322 18.1001C20.6127 18.1001 20.9034 17.9891 21.1252 17.7673L24.3381 14.5544C24.3384 14.5541 24.3386 14.5538 24.3388 14.5536C25.4111 13.4809 26.0017 12.0548 26.0017 10.5381Z" fill="#BCBBBD"/>
<path d="M11.4851 19.373C11.7069 19.5948 11.9976 19.7057 12.2883 19.7057C12.579 19.7057 12.8697 19.5948 13.0916 19.373L19.5175 12.947C19.9611 12.5035 19.9611 11.7842 19.5175 11.3405C19.074 10.897 18.3547 10.897 17.911 11.3405L11.4851 17.7664C11.0414 18.2101 11.0414 18.9294 11.4851 19.373Z" fill="#BCBBBD"/>
</svg>
