<svg width="30" height="30" viewBox="0 0 30 30" fill="none" xmlns="http://www.w3.org/2000/svg">
<path d="M23.4 4.8C24.396 4.8 25.2 5.604 25.2 6.6V23.4C25.2 24.396 24.396 25.2 23.4 25.2H6.6C5.604 25.2 4.8 24.396 4.8 23.4V6.6C4.8 5.604 5.604 4.8 6.6 4.8H23.4ZM23.4 3H6.6C4.608 3 3 4.608 3 6.6V23.4C3 25.392 4.608 27 6.6 27H23.4C25.392 27 27 25.392 27 23.4V6.6C27 4.608 25.392 3 23.4 3Z" fill="#BCBBBD"/>
<path d="M15 22C14.4533 22 14 21.6114 14 21.1429V10.8571C14 10.3886 14.4533 10 15 10C15.5467 10 16 10.3886 16 10.8571V21.1429C16 21.6114 15.5467 22 15 22Z" fill="#BCBBBD"/>
<path d="M10 22C9.45333 22 9 21.6114 9 21.1429V17.8571C9 17.3886 9.45333 17 10 17C10.5467 17 11 17.3886 11 17.8571V21.1429C11 21.6114 10.5467 22 10 22Z" fill="#BCBBBD"/>
<path d="M20 22C19.4533 22 19 21.6114 19 21.1429V15.8571C19 15.3886 19.4533 15 20 15C20.5467 15 21 15.3886 21 15.8571V21.1429C21 21.6114 20.5467 22 20 22Z" fill="#BCBBBD"/>
</svg>
