<svg width="30" height="30" viewBox="0 0 30 30" fill="none" xmlns="http://www.w3.org/2000/svg">
<path d="M14.6682 25.373C20.1998 25.373 24.7114 20.8615 24.7114 15.3299C24.7114 9.79828 20.1998 5.28669 14.6682 5.28669C9.1366 5.28669 4.625 9.79828 4.625 15.3299C4.625 20.8615 9.1366 25.373 14.6682 25.373Z" stroke="#BCBBBD" stroke-width="1.5" stroke-miterlimit="22.926" stroke-linecap="round" stroke-linejoin="round"/>
<path d="M12.713 13.1275C12.4216 12.2764 11.6215 11.7047 10.722 11.7047C9.82188 11.7047 9.02143 12.2772 8.73047 13.1289" stroke="#BCBBBD" stroke-width="1.5" stroke-miterlimit="22.926" stroke-linecap="round" stroke-linejoin="round"/>
<path d="M20.6075 13.1275C20.3161 12.2764 19.5161 11.7047 18.6165 11.7047C17.7164 11.7047 16.916 12.2772 16.625 13.1289" stroke="#BCBBBD" stroke-width="1.5" stroke-miterlimit="22.926" stroke-linecap="round" stroke-linejoin="round"/>
<path d="M18.4266 18.4754C17.6375 19.7999 16.2094 20.6113 14.6676 20.6113C13.1296 20.6113 11.7045 19.8039 10.9141 18.4845" stroke="#BCBBBD" stroke-width="1.5" stroke-miterlimit="22.926" stroke-linecap="round" stroke-linejoin="round"/>
</svg>
