<svg width="30" height="30" viewBox="0 0 30 30" fill="none" xmlns="http://www.w3.org/2000/svg">
<path d="M17.0816 17.345L11.9246 12.188L9.47622 14.6361C9.25601 14.8563 9.23766 15.207 9.43414 15.4487C9.78423 15.8808 9.79198 16.5147 9.45186 16.9557L7.49167 19.8377C7.07436 20.3789 7.13431 21.1344 7.63468 21.6348C8.1398 22.1399 8.89739 22.191 9.43256 21.7779L12.3139 19.8178C12.7513 19.4811 13.3988 19.4919 13.8198 19.8348C14.062 20.0308 14.4133 20.0136 14.6335 19.7934L17.0816 17.345Z" fill="#BCBBBD"/>
<path d="M18.8011 13.048L20.5206 11.3292L17.9416 8.75018L16.2227 10.4698L18.8011 13.048Z" fill="#BCBBBD"/>
<path d="M23.9581 12.188C24.4323 11.7144 24.4323 10.9429 23.9581 10.4693L18.8008 5.31198C18.339 4.85132 17.5425 4.85258 17.0831 5.31071L12.784 9.6098C12.3146 10.0766 12.3037 10.8472 12.7829 11.3275L17.9413 16.486C18.4268 16.9701 19.1989 16.9527 19.662 16.4837L23.9581 12.188ZM21.8095 11.7584L19.2306 14.3368C18.9931 14.5743 18.6086 14.5743 18.3711 14.3368L14.9332 10.8989C14.6959 10.6616 14.6959 10.2769 14.9332 10.0395L17.5116 7.46057C17.7489 7.22328 18.1337 7.22312 18.3711 7.46057L21.8095 10.8989C22.0468 11.1362 22.0469 11.5209 21.8095 11.7584Z" fill="#BCBBBD"/>
<path d="M7.21556 22.6846C6.5 23.499 6 23.999 6 24.4717C6 25.1471 6.54545 25.7021 7.21556 25.7021C7.88568 25.7021 8.43113 25.1579 8.43113 24.4865C8.43113 23.9092 8 23.499 7.21556 22.6846Z" fill="#BCBBBD"/>
</svg>
