<svg width="30" height="30" viewBox="0 0 30 30" fill="none" xmlns="http://www.w3.org/2000/svg">
<path d="M21.7511 23.1644C19.8586 24.731 17.4613 25.5936 15.0007 25.5936C12.1707 25.5936 9.51041 24.4915 7.5092 22.4907C5.50847 20.4895 4.40637 17.8292 4.40637 14.9992C4.40637 14.5426 4.43544 14.0846 4.49357 13.637C4.57795 12.9764 4.72561 12.3216 4.93281 11.6906C4.9382 11.6742 4.94397 11.6577 4.94945 11.6412C5.00233 11.6452 5.05563 11.6479 5.10949 11.6479C6.27252 11.6479 7.21898 10.7015 7.21898 9.53845C7.21898 8.37541 6.27252 7.42896 5.10949 7.42896C3.94646 7.42896 3 8.37541 3 9.53845C3 10.1399 3.25356 10.6831 3.65891 11.0678C3.63758 11.1292 3.61682 11.1906 3.59675 11.2519C3.3619 11.9677 3.19407 12.7102 3.09844 13.4579C3.03333 13.9637 3.00005 14.4822 3.00005 14.9992C3.00005 18.2047 4.2484 21.2185 6.51493 23.485C8.78146 25.7515 11.7952 26.9999 15.0007 26.9999C17.7881 26.9999 20.5041 26.0225 22.6479 24.2472C22.9474 23.9997 22.9891 23.5567 22.7411 23.2576C22.4936 22.9581 22.0506 22.9164 21.7511 23.1644Z" fill="#BCBBBD"/>
<path d="M26.3416 18.9321C26.363 18.8707 26.3837 18.8093 26.4038 18.7481C26.6386 18.0322 26.8065 17.2897 26.9021 16.542C26.9673 16.0362 27.0005 15.5177 27.0005 15.0007C27.0005 11.7952 25.7522 8.78141 23.4857 6.51488C21.2191 4.24835 18.2054 3 14.9999 3C12.2125 3 9.49645 3.9774 7.35274 5.75265C7.05319 6.00017 7.01147 6.44316 7.25945 6.74224C7.50696 7.04179 7.94996 7.08351 8.24951 6.83553C10.142 5.26888 12.5393 4.40633 14.9999 4.40633C17.8299 4.40633 20.4902 5.50842 22.4914 7.50916C24.4921 9.51036 25.5942 12.1707 25.5942 15.0007C25.5942 15.4573 25.5652 15.9152 25.507 16.3629C25.4226 17.0234 25.275 17.6783 25.0678 18.3093C25.0624 18.3257 25.0566 18.3422 25.0511 18.3586C24.9982 18.3547 24.945 18.3519 24.8911 18.3519C23.728 18.3519 22.7816 19.2984 22.7816 20.4614C22.7816 21.6245 23.728 22.5709 24.8911 22.5709C26.0541 22.5709 27.0005 21.6245 27.0005 20.4614C27.0005 19.8599 26.747 19.3168 26.3416 18.9321Z" fill="#BCBBBD"/>
<path d="M18.9953 19.8029C18.607 19.8029 18.2921 19.4881 18.2921 19.0997V13.1097L17.8431 13.6303C17.5894 13.9244 17.1455 13.9572 16.8513 13.7036C16.5573 13.4499 16.5245 13.0059 16.7781 12.7118L18.4628 10.7586C18.6547 10.5361 18.9648 10.4564 19.2403 10.5587C19.5157 10.6611 19.6985 10.924 19.6985 11.2178V19.0997C19.6985 19.4881 19.3836 19.8029 18.9953 19.8029Z" fill="#BCBBBD"/>
<path d="M12.2578 19.8039C10.6133 19.8039 9.27539 18.466 9.27539 16.8215V13.1764C9.27539 11.5319 10.6133 10.194 12.2578 10.194C13.9023 10.194 15.2402 11.532 15.2402 13.1764V16.8215C15.2402 18.466 13.9023 19.8039 12.2578 19.8039ZM12.2578 11.6004C11.3888 11.6004 10.6817 12.3074 10.6817 13.1764V16.8215C10.6817 17.6906 11.3888 18.3976 12.2578 18.3976C13.1269 18.3976 13.8339 17.6906 13.8339 16.8215V13.1764C13.8339 12.3074 13.1269 11.6004 12.2578 11.6004Z" fill="#BCBBBD"/>
</svg>
