<svg width="30" height="30" viewBox="0 0 30 30" fill="none" xmlns="http://www.w3.org/2000/svg">
<path d="M24.6959 23.2168L19.7656 18.2662C21.0332 16.8113 21.7278 14.9807 21.7278 13.075C21.7278 8.62251 17.9757 5 13.3639 5C8.75212 5 5 8.62251 5 13.075C5 17.5275 8.75212 21.15 13.3639 21.15C15.0952 21.15 16.7451 20.6458 18.1557 19.6888L23.1235 24.677C23.3311 24.8852 23.6104 25 23.9097 25C24.193 25 24.4617 24.8957 24.6657 24.7061C25.0992 24.3034 25.113 23.6357 24.6959 23.2168ZM13.3639 7.10652C16.7727 7.10652 19.5459 9.78391 19.5459 13.075C19.5459 16.3661 16.7727 19.0435 13.3639 19.0435C9.95507 19.0435 7.18189 16.3661 7.18189 13.075C7.18189 9.78391 9.95507 7.10652 13.3639 7.10652Z" fill="#BCBBBD"/>
</svg>
