<svg width="30" height="30" viewBox="0 0 30 30" fill="none" xmlns="http://www.w3.org/2000/svg">
<path d="M15 3C8.3828 3 3 8.3828 3 15C3 21.6172 8.3828 27 15 27C21.6172 27 27 21.6163 27 15C27 8.38373 21.6172 3 15 3ZM15 25.141C9.40898 25.141 4.85902 20.592 4.85902 15C4.85902 9.40805 9.40898 4.85902 15 4.85902C20.591 4.85902 25.141 9.40805 25.141 15C25.141 20.592 20.592 25.141 15 25.141Z" fill="#BCBBBD"/>
<path d="M19.6475 13.9867H15.9295V10.2686C15.9295 9.75555 15.514 9.33911 14.9999 9.33911C14.4859 9.33911 14.0704 9.75555 14.0704 10.2686V13.9867H10.3524C9.83835 13.9867 9.42285 14.4031 9.42285 14.9162C9.42285 15.4293 9.83835 15.8457 10.3524 15.8457H14.0704V19.5638C14.0704 20.0769 14.4859 20.4933 14.9999 20.4933C15.514 20.4933 15.9295 20.0769 15.9295 19.5638V15.8457H19.6475C20.1615 15.8457 20.577 15.4293 20.577 14.9162C20.577 14.4031 20.1615 13.9867 19.6475 13.9867Z" fill="#BCBBBD"/>
</svg>
